<?xml version="1.0" encoding="UTF-8" standalone="no"?>
<!-- Created with Inkscape (http://www.inkscape.org/) -->

<svg
   width="74.273994mm"
   height="74.273994mm"
   viewBox="0 0 74.273995 74.273994"
   version="1.1"
   id="svg5"
   inkscape:version="1.1 (c68e22c387, 2021-05-23)"
   sodipodi:docname="logo.svg"
   inkscape:export-filename="/home/noctua/dissertation/logo.png"
   inkscape:export-xdpi="299.57599"
   inkscape:export-ydpi="299.57599"
   xmlns:inkscape="http://www.inkscape.org/namespaces/inkscape"
   xmlns:sodipodi="http://sodipodi.sourceforge.net/DTD/sodipodi-0.dtd"
   xmlns="http://www.w3.org/2000/svg"
   xmlns:svg="http://www.w3.org/2000/svg">
  <sodipodi:namedview
     id="namedview7"
     pagecolor="#ffffff"
     bordercolor="#666666"
     borderopacity="1.0"
     inkscape:pageshadow="2"
     inkscape:pageopacity="0.0"
     inkscape:pagecheckerboard="0"
     inkscape:document-units="mm"
     showgrid="false"
     inkscape:zoom="0.82646577"
     inkscape:cx="144.59159"
     inkscape:cy="307.93774"
     inkscape:window-width="1920"
     inkscape:window-height="1200"
     inkscape:window-x="0"
     inkscape:window-y="0"
     inkscape:window-maximized="1"
     inkscape:current-layer="layer1"
     showguides="true"
     inkscape:guide-bbox="true"
     fit-margin-top="0"
     fit-margin-left="0"
     fit-margin-right="0"
     fit-margin-bottom="0" />
  <defs
     id="defs2" />
  <g
     inkscape:label="Layer 1"
     inkscape:groupmode="layer"
     id="layer1"
     transform="translate(-214.01822,-191.94768)">
    <path
       id="rect31"
       style="fill:#808080;stroke:none;stroke-width:0.600001;stroke-linejoin:round;stroke-miterlimit:4;stroke-dasharray:none;stroke-opacity:1"
       d="m -55.912008,222.23591 c -2.686756,5.3e-4 -4.864745,6.31438 -4.864819,14.10302 -2.4e-5,7.78883 2.177991,14.10309 4.864819,14.10353 1.208458,-0.002 2.373411,-1.30766 3.268017,-3.66283 H 7.2303886 c 0.8944742,2.35482 2.0592203,3.66049 3.2675014,3.66283 h 3.827158 c 2.686828,-5.3e-4 4.864843,-6.3147 4.864819,-14.10353 -7.4e-5,-7.78864 -2.178063,-14.10258 -4.864819,-14.10302 H 10.49789 c -1.2082811,0.002 -2.3730272,1.30801 -3.2675014,3.66283 H -52.641406 c -0.895268,-2.35691 -2.061252,-3.66272 -3.270602,-3.66283 z m 70.236537,2.26498 c 0.73089,0.61213 1.082138,1.58458 1.404567,2.4691 1.361369,4.34234 1.597261,8.91003 1.11311,13.37076 -0.411789,2.7197 -0.696817,5.70539 -2.517677,7.90236 -1.03165,-1.2019 -1.598454,-2.87184 -1.914094,-4.29276 -1.06876,-5.0198 -1.159748,-10.18694 0.01085,-15.20011 0.450321,-1.46845 0.721265,-3.16209 1.903244,-4.24935 z"
       sodipodi:nodetypes="cccccccccccccccccccc" />
    <path
       id="ellipse161"
       style="fill:#808080;stroke:none;stroke-width:0.6;stroke-linejoin:round;stroke-miterlimit:4;stroke-dasharray:none;stroke-opacity:1"
       d="m -59.738648,222.23591 c -2.687029,-5.3e-4 -4.865362,6.31411 -4.865338,14.10353 7.4e-5,7.78923 2.178378,14.10342 4.865338,14.10302 l 2.957162,0.0354 c -2.686757,-4.3e-4 -4.864746,-6.31438 -4.86482,-14.10302 -2.4e-5,-7.78883 2.177993,-14.10309 4.86482,-14.10353 z"
       sodipodi:nodetypes="ccccccc" />
    <path
       style="color:#000000;fill:#dfdfdf;stroke-linejoin:round;-inkscape-stroke:none"
       d="m -68.781022,228.70018 v 0.60157 c 1.485181,0 2.640545,0.83985 3.683593,2.17773 1.043049,1.33788 1.937012,3.15765 2.833985,4.99219 0.896972,1.83454 1.798055,3.68372 2.90039,5.09765 1.102336,1.41393 2.44173,2.40821 4.15625,2.40821 1.714522,0 3.055867,-0.99428 4.158204,-2.40821 1.102337,-1.41393 2.001463,-3.26311 2.898437,-5.09765 0.896974,-1.83454 1.790935,-3.65431 2.833984,-4.99219 1.04305,-1.33788 2.200365,-2.17774 3.685547,-2.17773 1.485182,0 2.640546,0.83985 3.683594,2.17773 1.043049,1.33788 1.937012,3.15765 2.833984,4.99219 0.896973,1.83454 1.798056,3.68372 2.900391,5.09765 1.102336,1.41393 2.44173,2.40821 4.15625,2.40821 1.71452,0 3.055867,-0.99428 4.158203,-2.40821 1.102336,-1.41393 2.001465,-3.26311 2.898438,-5.09765 0.896973,-1.83454 1.790935,-3.65431 2.833984,-4.99219 1.043049,-1.33788 2.200366,-2.17773 3.685547,-2.17773 1.485182,0 2.640545,0.83985 3.683594,2.17773 1.0430479,1.33788 1.9370109,3.15765 2.8339839,4.99219 0.896977,1.83454 1.798057,3.68372 2.900387,5.09765 1.10234,1.41393 2.44173,2.40821 4.15625,2.40821 1.71452,0 3.05587,-0.99428 4.15821,-2.40821 1.10233,-1.41393 2.00146,-3.26311 2.89843,-5.09765 0.89698,-1.83454 1.79094,-3.65431 2.83399,-4.99219 1.0430501,-1.33788 2.2003701,-2.17773 3.6855501,-2.17773 v -0.60157 c -1.71452,0 -3.0558701,0.99623 -4.1582101,2.41016 -1.10233,1.41393 -2.00342,3.26311 -2.90039,5.09766 -0.89697,1.83454 -1.78898,3.6543 -2.83203,4.99218 -1.04305,1.33789 -2.20037,2.17774 -3.68555,2.17774 -1.48518,0 -2.64054,-0.83985 -3.68359,-2.17774 -1.04305,-1.33788 -1.93701,-3.15764 -2.83398,-4.99218 -0.896977,-1.83455 -1.798059,-3.68373 -2.9003949,-5.09766 -1.102336,-1.41393 -2.441729,-2.41016 -4.15625,-2.41016 -1.71452,0 -3.055867,0.99623 -4.158203,2.41016 -1.102336,1.41393 -2.003418,3.26311 -2.900391,5.09766 -0.896973,1.83454 -1.788982,3.6543 -2.832031,4.99218 -1.043049,1.33789 -2.200366,2.17774 -3.685547,2.17774 -1.485181,0 -2.640545,-0.83985 -3.683594,-2.17774 -1.043048,-1.33788 -1.937012,-3.15764 -2.833984,-4.99218 -0.896972,-1.83455 -1.798055,-3.68373 -2.900391,-5.09766 -1.102335,-1.41393 -2.441729,-2.41016 -4.15625,-2.41016 -1.714521,0 -3.055866,0.99623 -4.158203,2.41016 -1.102337,1.41393 -2.003417,3.26311 -2.90039,5.09766 -0.896974,1.83454 -1.788982,3.6543 -2.832032,4.99218 -1.043049,1.33789 -2.200364,2.17774 -3.685547,2.17774 -1.485181,0 -2.640545,-0.83985 -3.683593,-2.17774 -1.043049,-1.33788 -1.937012,-3.15764 -2.833985,-4.99218 -0.896972,-1.83455 -1.798054,-3.68373 -2.90039,-5.09766 -1.102336,-1.41393 -2.44173,-2.41016 -4.15625,-2.41016 z"
       id="path5968" />
    <path
       style="color:#000000;fill:#dfdfdf;stroke-linejoin:round;-inkscape-stroke:none"
       d="m -60.445085,228.70018 v 0.60157 c 1.485182,0 2.640546,0.83985 3.683594,2.17773 1.043048,1.33788 1.937012,3.15765 2.833984,4.99219 0.896973,1.83454 1.798055,3.68372 2.900391,5.09765 1.102336,1.41393 2.441729,2.40821 4.15625,2.40821 1.714521,0 3.055866,-0.99428 4.158203,-2.40821 1.102337,-1.41393 2.003417,-3.26311 2.900391,-5.09765 0.896973,-1.83454 1.790935,-3.65431 2.833984,-4.99219 1.04305,-1.33788 2.198412,-2.17774 3.683594,-2.17773 1.485181,0 2.640546,0.83985 3.683594,2.17773 1.043048,1.33788 1.937012,3.15765 2.833984,4.99219 0.896972,1.83454 1.798054,3.68372 2.900391,5.09765 1.102336,1.41393 2.441728,2.40821 4.15625,2.40821 1.71452,0 3.055867,-0.99428 4.158203,-2.40821 1.102336,-1.41393 2.003417,-3.26311 2.90039,-5.09765 0.896973,-1.83454 1.790936,-3.65431 2.8339849,-4.99219 1.043048,-1.33788 2.198411,-2.17773 3.683591,-2.17773 1.48518,0 2.64055,0.83985 3.6836,2.17773 1.04304,1.33788 1.93701,3.15765 2.83398,4.99219 0.89697,1.83454 1.79806,3.68372 2.90039,5.09765 1.10234,1.41393 2.44173,2.40821 4.15625,2.40821 1.71452,0 3.0558701,-0.99428 4.1582001,-2.40821 1.10234,-1.41393 2.00342,-3.26311 2.9004,-5.09765 0.89697,-1.83454 1.79093,-3.65431 2.83398,-4.99219 1.04305,-1.33788 2.19841,-2.17773 3.68359,-2.17773 v -0.60157 c -1.71452,0 -3.05586,0.99623 -4.1582,2.41016 -1.10234,1.41393 -2.00146,3.26311 -2.89844,5.09766 -0.89697,1.83454 -1.79093,3.6543 -2.83398,4.99218 -1.04305,1.33789 -2.2003701,2.17774 -3.6855501,2.17774 -1.48518,0 -2.64054,-0.83985 -3.68359,-2.17774 -1.04305,-1.33788 -1.93701,-3.15764 -2.83399,-4.99218 -0.89697,-1.83455 -1.7961,-3.68373 -2.89843,-5.09766 -1.10234,-1.41393 -2.44369,-2.41016 -4.15821,-2.41016 -1.71452,0 -3.055865,0.99623 -4.1582009,2.41016 -1.102335,1.41393 -2.001464,3.26311 -2.898437,5.09766 -0.896973,1.83454 -1.790936,3.6543 -2.833985,4.99218 -1.043048,1.33789 -2.200366,2.17774 -3.685546,2.17774 -1.485183,0 -2.640545,-0.83985 -3.683594,-2.17774 -1.043049,-1.33788 -1.937012,-3.15764 -2.833985,-4.99218 -0.896972,-1.83455 -1.796102,-3.68373 -2.898437,-5.09766 -1.102335,-1.41393 -2.443683,-2.41016 -4.158203,-2.41016 -1.714521,0 -3.055866,0.99623 -4.158203,2.41016 -1.102337,1.41393 -2.001464,3.26311 -2.898438,5.09766 -0.896973,1.83454 -1.790935,3.6543 -2.833984,4.99218 -1.04305,1.33789 -2.200365,2.17774 -3.685547,2.17774 -1.485182,0 -2.640545,-0.83985 -3.683594,-2.17774 -1.043048,-1.33788 -1.937012,-3.15764 -2.833984,-4.99218 -0.896973,-1.83455 -1.796102,-3.68373 -2.898438,-5.09766 -1.102335,-1.41393 -2.443682,-2.41016 -4.158203,-2.41016 z"
       id="path6248" />
    <path
       id="path7024"
       style="fill:#808080;stroke:none;stroke-width:0.6;stroke-linejoin:round;stroke-miterlimit:4;stroke-dasharray:none;stroke-opacity:1"
       d="m -55.912008,260.0317 c -2.686756,5.3e-4 -4.864745,6.31438 -4.864819,14.10302 -2.4e-5,7.78883 2.177992,14.10309 4.864819,14.10352 1.208458,-0.002 2.373411,-1.30766 3.268017,-3.66282 H 7.2303839 c 0.89448,2.35482 2.05923,3.66048 3.2675101,3.66282 h 3.82715 c 2.68683,-5.3e-4 4.86485,-6.31469 4.86482,-14.10352 -7e-5,-7.78864 -2.17806,-14.10258 -4.86482,-14.10302 h -3.82715 c -1.2082801,0.002 -2.3730301,1.30801 -3.2675101,3.66283 H -52.641406 c -0.895268,-2.35691 -2.061252,-3.66272 -3.270602,-3.66283 z m 70.236542,2.26498 c 0.73089,0.61213 1.08213,1.58458 1.40456,2.4691 1.36137,4.34234 1.59726,8.91003 1.11311,13.37076 -0.41179,2.7197 -0.69681,5.70539 -2.51767,7.90236 -1.03165,-1.2019 -1.59846,-2.87184 -1.9141,-4.29276 -1.06876,-5.0198 -1.15975,-10.18694 0.0109,-15.20011 0.45032,-1.46845 0.72126,-3.16209 1.90324,-4.24935 z"
       sodipodi:nodetypes="cccccccccccccccccccc" />
    <path
       id="path7026"
       style="fill:#808080;stroke:none;stroke-width:0.6;stroke-linejoin:round;stroke-miterlimit:4;stroke-dasharray:none;stroke-opacity:1"
       d="m -59.738648,260.0317 c -2.687029,-5.3e-4 -4.865362,6.31411 -4.865338,14.10353 7.4e-5,7.78923 2.178378,14.10341 4.865338,14.10301 l 2.957162,0.0354 c -2.686757,-4.3e-4 -4.864746,-6.31437 -4.86482,-14.10301 -2.4e-5,-7.78884 2.177993,-14.1031 4.86482,-14.10353 z"
       sodipodi:nodetypes="ccccccc" />
    <path
       style="fill:none;stroke:#000000;stroke-width:0.600001;stroke-linejoin:round;stroke-miterlimit:4;stroke-dasharray:none;stroke-opacity:1"
       d="m -117.13904,270.64836 c 2.84923,0 3.1949,5.9334 6.04413,5.9334 2.84922,0 3.19489,-5.9334 6.04412,-5.9334 2.84922,0 3.19489,5.9334 6.044123,5.9334 2.849227,0 3.194898,-5.9334 6.044125,-5.9334 2.849225,0 3.194896,5.9334 6.044121,5.9334 2.849227,0 3.194896,-5.9334 6.044122,-5.9334 2.849228,0 3.194897,5.9334 6.044125,5.9334 2.849226,0 3.194896,-5.9334 6.044122,-5.9334 2.849225,0 3.194895,5.9334 6.044121,5.9334 2.849223,0 3.194895,-5.9334 6.044123,-5.9334 2.849227,10e-6 3.194889,5.9334 6.044116,5.9334 2.849228,0 3.194901,-5.9334 6.044127,-5.9334 2.849228,10e-6 3.194891,5.9334 6.044118,5.9334 2.849226,0 3.194899,-5.9334 6.044126,-5.9334 2.849227,0 3.1949,5.9334 6.044127,5.9334 2.849227,0 3.194889,-5.93339 6.044117,-5.9334 2.849227,0 3.194899,5.9334 6.044127,5.9334 2.849227,0 3.19489,-5.93339 6.0441079,-5.9334 2.849236,0 3.194906,5.9334 6.044136,5.9334 2.84922,0 3.19488,-5.93339 6.04412,-5.9334 2.84922,0 3.19489,5.9334 6.04412,5.9334 2.8492201,0 3.1948901,-5.93339 6.0441201,-5.9334"
       id="path7225"
       sodipodi:nodetypes="caaaaaaaaaaaaaaaaaaaaac" />
    <path
       style="fill:none;stroke:#000000;stroke-width:0.600001;stroke-linejoin:round;stroke-miterlimit:4;stroke-dasharray:none;stroke-opacity:1"
       d="m -120.28773,270.64836 c 2.84923,0 3.1949,5.9334 6.04412,5.9334 2.84923,0 3.1949,-5.9334 6.04413,-5.9334 2.84922,0 3.19489,5.9334 6.04412,5.9334 2.849227,0 3.194897,-5.9334 6.044126,-5.9334 2.849225,0 3.194895,5.9334 6.044121,5.9334 2.849226,0 3.194896,-5.9334 6.044122,-5.9334 2.849228,0 3.194897,5.9334 6.044124,5.9334 2.849227,0 3.194896,-5.9334 6.044122,-5.9334 2.849226,0 3.194896,5.9334 6.044122,5.9334 2.849223,0 3.194895,-5.9334 6.044122,-5.9334 2.849228,10e-6 3.19489,5.9334 6.044117,5.9334 2.849227,0 3.1949,-5.9334 6.044127,-5.9334 2.849227,10e-6 3.19489,5.9334 6.044118,5.9334 2.849225,0 3.194898,-5.9334 6.044126,-5.9334 2.849227,0 3.1949,5.9334 6.044127,5.9334 2.849227,0 3.194889,-5.93339 6.044116,-5.9334 2.849228,0 3.1949,5.9334 6.044127,5.9334 2.849228,0 3.194891,-5.93339 6.044114,-5.9334 2.8492279,0 3.1949029,5.9334 6.0441229,5.9334 2.84923,0 3.19489,-5.93339 6.04412,-5.9334 2.84923,0 3.1949,5.9334 6.04413,5.9334 2.84922,0 3.19489,-5.93339 6.0441201,-5.9334"
       id="path7615"
       sodipodi:nodetypes="caaaaaaaaaaaaaaaaaaaaac" />
    <path
       id="path7619"
       style="fill:#808080;stroke:none;stroke-width:0.600001;stroke-linejoin:round;stroke-miterlimit:4;stroke-dasharray:none;stroke-opacity:1"
       d="m -55.912008,295.12345 c -2.252535,5.3e-4 -4.142128,4.44487 -4.695838,10.46913 0.237326,-0.0882 0.485698,-0.15193 0.760161,-0.15193 0.616694,0 1.137497,0.25039 1.575097,0.62839 0.437713,-0.37821 0.958633,-0.62839 1.575614,-0.62839 0.816431,0 1.462882,0.43741 1.97249,1.03095 0.509609,0.59354 0.91322,1.35225 1.312582,2.09393 0.381966,0.70938 0.761299,1.39929 1.183389,1.91254 0.422185,-0.51327 0.801865,-1.20303 1.183907,-1.91254 0.399362,-0.74168 0.802971,-1.50039 1.312582,-2.09393 0.509612,-0.59354 1.158126,-1.03095 1.974557,-1.03095 0.616696,0 1.135972,0.25039 1.573029,0.62839 0.437656,-0.37807 0.95825,-0.62839 1.575099,-0.62839 0.816428,0 1.463395,0.43741 1.973006,1.03095 0.509609,0.59354 0.91322,1.35225 1.312582,2.09393 0.382236,0.70988 0.761974,1.40022 1.184423,1.91357 0.422312,-0.51335 0.800103,-1.20367 1.182357,-1.91357 0.399362,-0.74168 0.802971,-1.50039 1.312582,-2.09393 0.509609,-0.59354 1.158126,-1.03095 1.974557,-1.03095 0.617206,0 1.136779,0.25089 1.574061,0.62942 0.437306,-0.3786 0.957218,-0.62942 1.574583,-0.62942 0.816428,0 1.462879,0.43741 1.97249,1.03095 0.509606,0.59354 0.915289,1.35225 1.314646,2.09393 0.38223,0.70986 0.760084,1.40022 1.182359,1.91357 0.422376,-0.51337 0.800571,-1.20358 1.182873,-1.91357 0.39936,-0.74168 0.804521,-1.50039 1.314133,-2.09393 0.509608,-0.59354 1.156575,-1.03095 1.973005,-1.03095 0.616956,0 1.136375,0.25064 1.573546,0.6289 0.437251,-0.37847 0.957342,-0.6289 1.574581,-0.6289 0.81643,0 1.464947,0.43741 1.974556,1.03095 0.509611,0.59354 0.91322,1.35225 1.312582,2.09393 0.382241,0.70988 0.760547,1.40022 1.182875,1.91357 0.422466,-0.51335 0.802172,-1.20367 1.184423,-1.91357 0.39936,-0.74168 0.802971,-1.50039 1.312582,-2.09393 0.509609,-0.59354 1.15606,-1.03095 1.972488,-1.03095 0.616696,0 1.13698,0.25039 1.5745801,0.62839 0.4371366,-0.37821 0.9570878,-0.62839 1.5740644,-0.62839 0.8164301,0 1.4649476,0.43741 1.9745563,1.03095 0.5096113,0.59354 0.9132226,1.35225 1.312582,2.09393 0.3819684,0.70938 0.7613068,1.39929 1.1833913,1.91254 0.4221877,-0.51327 0.8018674,-1.20303 1.1839072,-1.91254 0.3993595,-0.74168 0.8024548,-1.50039 1.3120635,-2.09393 0.50961127,-0.59354 1.15657572,-1.03095 1.97300579,-1.03095 0.61669611,0 1.13698071,0.25039 1.57458041,0.62839 0.4377134,-0.37821 0.958633,-0.62839 1.5756149,-0.62839 0.81643,0 1.4628812,0.43741 1.9724899,1.03095 0.5096113,0.59354 0.9132226,1.35225 1.312582,2.09393 0.3819657,0.70938 0.7612988,1.39929 1.1833913,1.91254 0.4221876,-0.51327 0.8018674,-1.20303 1.1839045,-1.91254 0.3993621,-0.74168 0.8029734,-1.50039 1.3125824,-2.09393 0.296751,-0.34563 0.647168,-0.62445 1.043863,-0.80874 0.138123,-1.34878 0.356986,-2.69244 0.668176,-4.02508 0.450321,-1.46845 0.721265,-3.16208 1.903243,-4.24935 0.73089,0.61213 1.082138,1.58458 1.404567,2.4691 1.361369,4.34234 1.597261,8.91003 1.11311,13.37076 -0.411789,2.7197 -0.696817,5.70539 -2.517677,7.90236 -1.03165,-1.2019 -1.598454,-2.87184 -1.914094,-4.29276 -0.405235,-1.90333 -0.669107,-3.82801 -0.777729,-5.75727 -0.489061,0.521 -1.094671,0.89296 -1.8453656,0.89296 -0.6172464,10e-6 -1.1373299,-0.25079 -1.5745803,-0.62941 -0.4372822,0.37852 -0.9568657,0.62941 -1.5740645,0.62941 -0.8164301,10e-6 -1.4628812,-0.43791 -1.9724899,-1.03145 -0.5096113,-0.59354 -0.915289,-1.35175 -1.3146484,-2.09342 -0.3822488,-0.70988 -0.7600659,-1.40023 -1.1823567,-1.91357 -0.422447,0.51335 -0.8021876,1.20369 -1.1844232,1.91357 -0.39936208,0.74167 -0.80297336,1.49988 -1.31258202,2.09342 -0.50961131,0.59354 -1.15657578,1.03145 -1.97300588,1.03145 -0.6171141,10e-6 -1.1368722,-0.25093 -1.5740644,-0.62941 -0.4372822,0.37852 -0.956863,0.62941 -1.5740644,0.62941 -0.8164301,10e-6 -1.4649477,-0.43791 -1.9745563,-1.03145 -0.509614,-0.59354 -0.91322,-1.35175 -1.312582,-2.09342 -0.3819684,-0.70938 -0.7613015,-1.3993 -1.1833913,-1.91254 -0.4221641,0.51327 -0.8018811,1.20305 -1.1839041,1.91254 -0.399363,0.74167 -0.802974,1.49988 -1.312583,2.09342 -0.509611,0.59354 -1.156059,1.03145 -1.972489,1.03145 -0.616855,10e-6 -1.137441,-0.25067 -1.575097,-0.6289 -0.437168,0.37826 -0.956601,0.6289 -1.573548,0.6289 -0.81643,10e-6 -1.464945,-0.43791 -1.974557,-1.03145 -0.509611,-0.59354 -0.913219,-1.35175 -1.312582,-2.09342 -0.381978,-0.7094 -0.761288,-1.3993 -1.183391,-1.91254 -0.422087,0.51325 -0.801423,1.20316 -1.183388,1.91254 -0.39936,0.74167 -0.802971,1.49988 -1.312582,2.09342 -0.509609,0.59354 -1.15606,1.03145 -1.97249,1.03145 -0.616853,10e-6 -1.137812,-0.25067 -1.575613,-0.6289 -0.437713,0.37826 -0.958151,0.6289 -1.575099,0.6289 -0.81643,10e-6 -1.462878,-0.43791 -1.972489,-1.03145 -0.509609,-0.59354 -0.91322,-1.35175 -1.312582,-2.09342 -0.382027,-0.70949 -0.761741,-1.39928 -1.183908,-1.91254 -0.422087,0.51325 -0.80142,1.20316 -1.183388,1.91254 -0.399362,0.74167 -0.802971,1.49988 -1.312582,2.09342 -0.509612,0.59354 -1.158127,1.03145 -1.974557,1.03145 -0.616728,10e-6 -1.136523,-0.25029 -1.573545,-0.62838 -0.437603,0.378 -0.957893,0.62838 -1.574584,0.62838 -0.816427,10e-6 -1.463394,-0.43791 -1.973005,-1.03145 -0.509609,-0.59354 -0.91322,-1.35175 -1.312582,-2.09342 -0.381979,-0.7094 -0.761289,-1.3993 -1.183389,-1.91254 -0.422087,0.51325 -0.80142,1.20316 -1.183391,1.91254 -0.399362,0.74167 -0.802971,1.49988 -1.312582,2.09342 -0.509609,0.59354 -1.158127,1.03145 -1.974557,1.03145 -0.617108,10e-6 -1.137242,-0.25093 -1.57458,-0.62941 -0.437282,0.37852 -0.956855,0.62941 -1.574064,0.62941 -0.816428,10e-6 -1.462879,-0.43791 -1.97249,-1.03145 -0.509609,-0.59354 -0.91322,-1.35175 -1.31258,-2.09342 -0.382315,-0.71002 -0.761873,-1.40071 -1.184425,-1.91409 -0.422455,0.5134 -0.800508,1.20398 -1.182873,1.91409 -0.391298,0.7267 -0.788919,1.4682 -1.284158,2.05621 0.286732,6.99609 2.336575,12.42468 4.827095,12.42508 1.208458,-0.002 2.373411,-1.30767 3.268017,-3.66283 H 7.2303886 c 0.8944822,2.35482 2.059223,3.66049 3.2675014,3.66283 h 3.827158 c 2.68683,-5.3e-4 4.864848,-6.31469 4.864819,-14.10353 -7.1e-5,-7.78864 -2.17806,-14.10258 -4.864819,-14.10302 H 10.49789 c -1.2082784,0.002 -2.3730192,1.30801 -3.2675014,3.66283 H -52.641406 c -0.89527,-2.3569 -2.061252,-3.66272 -3.270602,-3.66283 z m -3.935677,10.91665 c -0.303919,0 -0.571516,0.076 -0.819073,0.21652 -0.07091,0.95817 -0.110061,1.95029 -0.110069,2.96985 0,0.23345 0.0085,0.46075 0.01241,0.69143 0.267552,-0.41264 0.523809,-0.876 0.780314,-1.35237 0.393814,-0.73137 0.792782,-1.47779 1.292429,-2.06758 -0.341077,-0.29174 -0.709928,-0.45785 -1.156002,-0.45785 z m 3.150711,0 c -0.446106,0 -0.815342,0.16454 -1.156517,0.4563 0.500197,0.59 0.898819,1.33718 1.292945,2.06913 0.399359,0.74168 0.794649,1.46747 1.240234,1.98644 0.445585,0.51897 0.909553,0.82217 1.517735,0.82217 0.446468,0 0.81472,-0.16614 1.155485,-0.45837 -0.499628,-0.58977 -0.898099,-1.33569 -1.29191,-2.06706 -0.399362,-0.74168 -0.794649,-1.46747 -1.240234,-1.98644 -0.445585,-0.51897 -0.909556,-0.82217 -1.517738,-0.82217 z m 8.939507,0 c -0.608185,0 -1.074219,0.3032 -1.519804,0.82217 -0.445585,0.51897 -0.838806,1.24476 -1.238168,1.98644 -0.394002,0.73172 -0.79498,1.47818 -1.295011,2.06809 0.340982,0.29253 0.709787,0.45734 1.156517,0.45734 0.608185,0 1.071634,-0.3032 1.517222,-0.82217 0.445585,-0.51897 0.840872,-1.24476 1.240234,-1.98644 0.393883,-0.7315 0.79266,-1.47826 1.292426,-2.0681 -0.340349,-0.29143 -0.707601,-0.45733 -1.153416,-0.45733 z m 3.148128,0 c -0.446735,0 -0.815168,0.1648 -1.156001,0.45733 0.499859,0.58987 0.899012,1.33651 1.292944,2.0681 0.39936,0.74168 0.794647,1.46747 1.240235,1.98644 0.445585,0.51897 0.909553,0.82217 1.517734,0.82217 0.446075,0 0.814412,-0.16611 1.155486,-0.45785 -0.499766,-0.58982 -0.898546,-1.33609 -1.292429,-2.06758 -0.399356,-0.74168 -0.794646,-1.46747 -1.240234,-1.98644 -0.445582,-0.51897 -0.909553,-0.82217 -1.517735,-0.82217 z m 8.939507,0 c -0.608185,0 -1.071637,0.3032 -1.517222,0.82217 -0.445585,0.51897 -0.840872,1.24476 -1.240234,1.98644 -0.394243,0.73216 -0.793568,1.47905 -1.293977,2.06913 0.340519,0.29192 0.708724,0.4563 1.154967,0.4563 0.608185,0 1.074219,-0.3032 1.519804,-0.82217 0.445585,-0.51897 0.838806,-1.24476 1.238168,-1.98644 0.393695,-0.73115 0.794486,-1.47736 1.293977,-2.06706 -0.34076,-0.29222 -0.709028,-0.45837 -1.155483,-0.45837 z m 3.148644,0 c -0.446598,0 -0.815107,0.16497 -1.156001,0.45733 0.499858,0.58987 0.89849,1.33651 1.292426,2.0681 0.399362,0.74168 0.794649,1.46747 1.240234,1.98644 0.445588,0.51897 0.909553,0.82217 1.517737,0.82217 0.446083,0 0.81492,-0.1661 1.156002,-0.45785 -0.499848,-0.58986 -0.898493,-1.33599 -1.292429,-2.06758 -0.399356,-0.74168 -0.794647,-1.46747 -1.240234,-1.98644 -0.445582,-0.51897 -0.90955,-0.82217 -1.517735,-0.82217 z m 8.939506,0 c -0.608184,0 -1.072152,0.3032 -1.517737,0.82217 -0.445585,0.51897 -0.840875,1.24476 -1.240234,1.98644 -0.394121,0.73194 -0.793271,1.47862 -1.293461,2.06861 0.341331,0.29206 0.710684,0.45682 1.157034,0.45682 0.608184,0 1.071636,-0.3032 1.517221,-0.82217 0.445585,-0.51897 0.840872,-1.24476 1.240234,-1.98644 0.39369,-0.73115 0.79248,-1.47736 1.29191,-2.06706 -0.340759,-0.29222 -0.708509,-0.45837 -1.154967,-0.45837 z m 3.148127,0 c -0.446731,0 -0.815168,0.1648 -1.156002,0.45733 0.499917,0.58987 0.901076,1.3365 1.295011,2.0681 0.399362,0.74168 0.792583,1.46747 1.238168,1.98644 0.445587,0.51897 0.911103,0.82217 1.519288,0.82217 0.446063,0 0.813943,-0.16612 1.154451,-0.45785 -0.499861,-0.58986 -0.899007,-1.33599 -1.292945,-2.06758 -0.399362,-0.74168 -0.794647,-1.46747 -1.240234,-1.98644 -0.445585,-0.51897 -0.909553,-0.82217 -1.517737,-0.82217 z m 8.939506,0 c -0.608182,0 -1.071634,0.3032 -1.517219,0.82217 -0.445585,0.51897 -0.840875,1.24476 -1.240234,1.98644 -0.394121,0.73194 -0.793271,1.47862 -1.293461,2.06861 0.341183,0.29206 0.710163,0.45682 1.156518,0.45682 0.608181,0 1.072152,-0.3032 1.517737,-0.82217 0.445585,-0.51897 0.840875,-1.24476 1.240234,-1.98644 0.39369,-0.73115 0.792483,-1.47736 1.29191,-2.06706 -0.340759,-0.29222 -0.709027,-0.45837 -1.155485,-0.45837 z m 3.1486445,0 c -0.4461033,0 -0.8143848,0.16454 -1.1549671,0.4563 0.5002028,0.59 0.8993346,1.33718 1.2934606,2.06913 0.3993595,0.74168 0.7946443,1.46747 1.2402344,1.98644 0.4455795,0.51897 0.9095475,0.82217 1.5177373,0.82217 0.4465584,0 0.814144,-0.16654 1.1549671,-0.45889 -0.4994778,-0.58969 -0.899758,-1.33539 -1.2934606,-2.06654 -0.3993595,-0.74168 -0.7930939,-1.46747 -1.2386839,-1.98644 -0.4455795,-0.51897 -0.911098,-0.82217 -1.5192878,-0.82217 z m 8.93950609,0 c -0.60817917,0 -1.07215515,0.3032 -1.51773729,0.82217 -0.4455874,0.51897 -0.8408723,1.24476 -1.2402344,1.98644 -0.3939963,0.73171 -0.7929694,1.47818 -1.292942,2.06809 0.3408336,0.29253 0.7092686,0.45734 1.1560016,0.45734 0.6081792,0 1.0721552,-0.3032 1.51773734,-0.82217 0.44557685,-0.51897 0.84086435,-1.24476 1.24023436,-1.98644 0.39387727,-0.7315 0.7926493,-1.47826 1.2924261,-2.0681 C 1.4086637,306.20598 1.039943,306.0401 0.59410159,306.0401 Z m 3.15019531,0 c -0.4463495,0 -0.8153347,0.16476 -1.1565176,0.45682 0.5000757,0.58995 0.8994061,1.33679 1.2934606,2.06861 0.39937,0.74168 0.7946443,1.46747 1.2402344,1.98644 0.4455795,0.51897 0.9090316,0.82217 1.5172213,0.82217 0.4465585,0 0.81466,-0.16654 1.1554831,-0.45889 -0.4994275,-0.58968 -0.8982208,-1.3354 -1.2919102,-2.06654 C 6.1029091,308.10703 5.7076242,307.38124 5.2620342,306.86227 4.8164547,306.3433 4.3524866,306.0401 3.7442969,306.0401 Z m 7.9442181,0.3421 c -0.181034,0.12987 -0.35537,0.28367 -0.524,0.48007 -0.445587,0.51897 -0.839322,1.24476 -1.2386837,1.98644 -0.3940096,0.73172 -0.7944617,1.47818 -1.2944925,2.06809 0.3408945,0.29237 0.7094035,0.45734 1.1560016,0.45734 0.6081796,0 1.0721556,-0.3032 1.5177376,-0.82217 0.09827,-0.11446 0.193871,-0.24058 0.287837,-0.37311 -0.03911,-1.26615 -0.0059,-2.53321 0.0956,-3.79666 z" />
    <path
       id="path7621"
       style="fill:#808080;stroke:none;stroke-width:0.6;stroke-linejoin:round;stroke-miterlimit:4;stroke-dasharray:none;stroke-opacity:1"
       d="m -59.738648,295.12347 c -2.687029,-5.2e-4 -4.865362,6.31411 -4.865338,14.10354 7.4e-5,7.78922 2.178378,14.10341 4.865338,14.10301 l 2.957162,0.0354 c -2.686757,-4.3e-4 -4.864746,-6.31438 -4.86482,-14.10301 -2.4e-5,-7.78884 2.177993,-14.1031 4.86482,-14.10354 z"
       sodipodi:nodetypes="ccccccc" />
    <rect
       style="fill:#2196f3;fill-opacity:1;stroke:none;stroke-width:0.600001;stroke-linejoin:round;stroke-miterlimit:4;stroke-dasharray:none;stroke-opacity:1"
       id="rect8178"
       width="74.273994"
       height="74.273994"
       x="36.46711"
       y="191.94768" />
    <path
       id="path7881"
       style="fill:#ffc107;fill-opacity:1;stroke:none;stroke-width:0.600001;stroke-linejoin:round;stroke-miterlimit:4;stroke-dasharray:none;stroke-opacity:1"
       d="m 48.437685,214.96355 c -2.687029,-5.3e-4 -4.865362,6.3141 -4.865338,14.10353 7.4e-5,7.78922 2.178378,14.10342 4.865338,14.10302 l 2.956925,0.0357 c -2.686757,-4.3e-4 -4.864746,-6.31437 -4.86482,-14.10301 -2.4e-5,-7.78884 2.177992,-14.1031 4.86482,-14.10353 z m 3.826639,0 c -2.328889,4.6e-4 -4.273314,4.7473 -4.750614,11.08356 0.465732,-0.44975 1.026535,-0.76584 1.711523,-0.76584 0.616693,0 1.135975,0.25038 1.57303,0.62838 0.437713,-0.37821 0.958633,-0.62838 1.575615,-0.62838 0.81643,0 1.462878,0.4374 1.97249,1.03094 0.509608,0.59354 0.913225,1.35019 1.312579,2.09186 0.382318,0.71002 0.761873,1.40071 1.184426,1.9141 0.422479,-0.5134 0.800497,-1.20397 1.182873,-1.9141 0.399362,-0.74167 0.80297,-1.49832 1.312582,-2.09186 0.509608,-0.59354 1.158126,-1.03094 1.974556,-1.03094 0.616955,0 1.136377,0.25063 1.573546,0.6289 0.43725,-0.37848 0.957342,-0.6289 1.574583,-0.6289 0.816427,0 1.463394,0.4374 1.973006,1.03094 0.509611,0.59354 0.913225,1.35019 1.312579,2.09186 0.382241,0.70987 0.761976,1.40022 1.184426,1.91358 0.422312,-0.51335 0.800105,-1.20368 1.182356,-1.91358 0.39936,-0.74167 0.80504,-1.49832 1.314649,-2.09186 0.509609,-0.59354 1.15606,-1.03094 1.97249,-1.03094 0.617207,0 1.136779,0.25089 1.574062,0.62942 0.437306,-0.37861 0.957217,-0.62942 1.574583,-0.62942 0.81643,0 1.462876,0.4374 1.972487,1.03094 0.509614,0.59354 0.915286,1.35019 1.314648,2.09186 0.382366,0.71011 0.760421,1.40069 1.182876,1.9141 0.422568,-0.51339 0.802095,-1.20406 1.184423,-1.9141 0.399362,-0.74167 0.802455,-1.49832 1.312063,-2.09186 0.509612,-0.59354 1.156579,-1.03094 1.973009,-1.03094 0.616693,0 1.136978,0.25038 1.57458,0.62838 0.437076,-0.37807 0.956699,-0.62838 1.573546,-0.62838 0.81643,0 1.464948,0.4374 1.974556,1.03094 0.509612,0.59354 0.91322,1.35019 1.312582,2.09186 0.381971,0.70937 0.761302,1.3993 1.183392,1.91255 0.422182,-0.51328 0.801864,-1.20304 1.183907,-1.91255 0.399362,-0.74167 0.80297,-1.49832 1.312579,-2.09186 0.171344,-0.19956 0.36436,-0.37038 0.567926,-0.524 0.134598,-1.44454 0.361923,-2.88376 0.695047,-4.31033 0.450321,-1.46846 0.721265,-3.16209 1.903243,-4.24935 0.73089,0.61212 1.08214,1.58458 1.404562,2.4691 1.36137,4.34234 1.59727,8.91003 1.11312,13.37076 -0.41179,2.7197 -0.69682,5.70539 -2.517682,7.90236 -1.03165,-1.2019 -1.598454,-2.87183 -1.914094,-4.29276 -0.378351,-1.77706 -0.631727,-3.5727 -0.752409,-5.37332 -0.404635,0.3092 -0.874172,0.50953 -1.421619,0.50953 -0.617366,0 -1.137277,-0.25179 -1.57458,-0.63097 -0.437283,0.37907 -0.956861,0.63097 -1.574065,0.63097 -0.81643,0 -1.464945,-0.43947 -1.974556,-1.03301 -0.509612,-0.59354 -0.91322,-1.35019 -1.312582,-2.09186 -0.381992,-0.70943 -0.76127,-1.3993 -1.183392,-1.91255 -0.422089,0.51325 -0.801422,1.20317 -1.183388,1.91255 -0.399362,0.74167 -0.802974,1.49832 -1.312582,2.09186 -0.509609,0.59354 -1.156063,1.03301 -1.97249,1.03301 -0.616847,0 -1.137814,-0.25129 -1.575615,-0.62993 -0.437055,0.37854 -0.956334,0.62993 -1.57303,0.62993 -0.816427,0 -1.464947,-0.43947 -1.974556,-1.03301 -0.509609,-0.59354 -0.91322,-1.35019 -1.312582,-2.09186 -0.38204,-0.70952 -0.761722,-1.39928 -1.183907,-1.91255 -0.422088,0.51325 -0.801423,1.20317 -1.183389,1.91255 -0.399359,0.74167 -0.802971,1.49832 -1.312582,2.09186 -0.509609,0.59354 -1.15606,1.03301 -1.97249,1.03301 -0.616979,0 -1.137901,-0.25115 -1.575615,-0.62993 -0.4376,0.37854 -0.957887,0.62993 -1.57458,0.62993 -0.816428,0 -1.463395,-0.43947 -1.973006,-1.03301 -0.509611,-0.59354 -0.91322,-1.35019 -1.312582,-2.09186 -0.381992,-0.70943 -0.76127,-1.3993 -1.183389,-1.91255 -0.422089,0.51325 -0.80142,1.20317 -1.183391,1.91255 -0.399359,0.74167 -0.802971,1.49832 -1.312582,2.09186 -0.509609,0.59354 -1.158126,1.03301 -1.974556,1.03301 -0.616847,0 -1.136841,-0.25129 -1.574065,-0.62993 -0.437599,0.37854 -0.957887,0.62993 -1.57458,0.62993 -0.816428,0 -1.462879,-0.43947 -1.97249,-1.03301 -0.509609,-0.59354 -0.913217,-1.35019 -1.312579,-2.09186 -0.382331,-0.71005 -0.761855,-1.40071 -1.184426,-1.9141 -0.422452,0.51341 -0.800508,1.20398 -1.182873,1.9141 -0.399362,0.74167 -0.802971,1.49832 -1.312582,2.09186 -0.242739,0.28272 -0.517901,0.52854 -0.826823,0.71055 0.39723,6.63087 2.386843,11.67797 4.787823,11.67836 1.208458,-0.002 2.373411,-1.30767 3.268017,-3.66283 h 36.144046 c 0.89448,2.35482 2.059221,3.66049 3.267501,3.66283 h 3.827156 c 2.686836,-5.3e-4 4.864856,-6.31469 4.864826,-14.10354 -7e-5,-7.78864 -2.17807,-14.10258 -4.864826,-14.10301 h -3.827156 c -1.20828,0.002 -2.373021,1.30801 -3.267501,3.66283 H 55.534926 c -0.89527,-2.3569 -2.061252,-3.66272 -3.270602,-3.66283 z m -3.039091,10.91716 c -0.608185,0 -1.073703,0.30321 -1.519288,0.82218 -0.08556,0.0996 -0.167997,0.21305 -0.250113,0.32659 -0.03338,0.6669 -0.05632,1.34337 -0.05633,2.03708 -3e-6,0.58543 0.01641,1.15877 0.04031,1.72548 0.139179,-0.11418 0.274069,-0.24706 0.406694,-0.40152 0.445585,-0.51897 0.840872,-1.24478 1.240234,-1.98645 0.39388,-0.73148 0.792666,-1.47625 1.292429,-2.06602 -0.340352,-0.29143 -0.70812,-0.45734 -1.153936,-0.45734 z m 3.148645,0 c -0.446109,0 -0.815343,0.16455 -1.156518,0.45631 0.500192,0.58994 0.898822,1.33512 1.292942,2.06705 0.399362,0.74167 0.79465,1.46748 1.240235,1.98645 0.445587,0.51897 0.909555,0.82423 1.517737,0.82423 0.44609,0 0.814917,-0.16707 1.156002,-0.4594 -0.499841,-0.58981 -0.898496,-1.33444 -1.292427,-2.06602 -0.399362,-0.74168 -0.794649,-1.46747 -1.240234,-1.98644 -0.445585,-0.51897 -0.909555,-0.82218 -1.517737,-0.82218 z m 8.939506,0 c -0.608182,0 -1.072153,0.30321 -1.517737,0.82218 -0.445585,0.51897 -0.840873,1.24476 -1.240235,1.98644 -0.39424,0.73216 -0.79357,1.47754 -1.293976,2.06757 0.340669,0.29252 0.709242,0.45785 1.155483,0.45785 0.608184,0 1.073703,-0.30526 1.519287,-0.82423 0.445585,-0.51897 0.838806,-1.24478 1.238168,-1.98645 0.39369,-0.73114 0.794494,-1.47534 1.293977,-2.06499 -0.34076,-0.29222 -0.708509,-0.45837 -1.154967,-0.45837 z m 3.148129,0 c -0.446736,0 -0.815171,0.16481 -1.156002,0.45734 0.499851,0.58981 0.899012,1.33444 1.292942,2.06602 0.399362,0.74167 0.79465,1.46748 1.240234,1.98645 0.445588,0.51897 0.909556,0.82423 1.517738,0.82423 0.446082,0 0.814406,-0.16708 1.155485,-0.4594 -0.499758,-0.58978 -0.898546,-1.33454 -1.292428,-2.06602 -0.399362,-0.74168 -0.794647,-1.46747 -1.240235,-1.98644 -0.445584,-0.51897 -0.909552,-0.82218 -1.517734,-0.82218 z m 8.939506,0 c -0.608185,0 -1.071637,0.30321 -1.517222,0.82218 -0.445584,0.51897 -0.840874,1.24476 -1.240234,1.98644 -0.394121,0.73193 -0.793271,1.47711 -1.29346,2.06705 0.341182,0.29266 0.710165,0.45837 1.156517,0.45837 0.608185,0 1.072153,-0.30526 1.517737,-0.82423 0.445585,-0.51897 0.840875,-1.24478 1.240235,-1.98645 0.393689,-0.73113 0.79249,-1.47535 1.29191,-2.06499 -0.34076,-0.29222 -0.709028,-0.45837 -1.155483,-0.45837 z m 3.148645,0 c -0.446599,0 -0.815108,0.16498 -1.156002,0.45734 0.499904,0.58981 0.900562,1.33444 1.294492,2.06602 0.399365,0.74167 0.792584,1.46748 1.238168,1.98645 0.445585,0.51897 0.911625,0.82423 1.519804,0.82423 0.445834,0 0.813575,-0.16687 1.153935,-0.45888 -0.499964,-0.58986 -0.898424,-1.33483 -1.292428,-2.06654 -0.399362,-0.74168 -0.794647,-1.46747 -1.240235,-1.98644 -0.445585,-0.51897 -0.90955,-0.82218 -1.517734,-0.82218 z m 8.939506,0 c -0.608185,0 -1.072155,0.30321 -1.517738,0.82218 -0.445584,0.51897 -0.840875,1.24476 -1.240234,1.98644 -0.394121,0.73193 -0.793271,1.47711 -1.293461,2.06705 0.341331,0.29266 0.710682,0.45837 1.157034,0.45837 0.608182,0 1.071637,-0.30526 1.517221,-0.82423 0.445582,-0.51897 0.840873,-1.24478 1.240235,-1.98645 0.393684,-0.73113 0.79249,-1.47535 1.29191,-2.06499 -0.34076,-0.29222 -0.708509,-0.45837 -1.154967,-0.45837 z m 3.148126,0 c -0.446109,0 -0.814017,0.16455 -1.154451,0.45631 0.500192,0.58994 0.89934,1.33512 1.29346,2.06705 0.399362,0.74167 0.792584,1.46748 1.238168,1.98645 0.445588,0.51897 0.911104,0.82423 1.519288,0.82423 0.446463,0 0.814721,-0.16713 1.155486,-0.45992 -0.499608,-0.58969 -0.900219,-1.33424 -1.293979,-2.0655 -0.399362,-0.74168 -0.792584,-1.46747 -1.238168,-1.98644 -0.445583,-0.51897 -0.911622,-0.82218 -1.519804,-0.82218 z m 7.467245,0.77618 c -0.0148,0.0167 -0.03021,0.0288 -0.04496,0.046 -0.445584,0.51897 -0.840875,1.24476 -1.240234,1.98644 -0.393999,0.73171 -0.792972,1.47668 -1.292945,2.06654 0.340895,0.29295 0.709404,0.45888 1.156002,0.45888 0.54574,0 0.974855,-0.24738 1.379244,-0.67282 -0.05914,-1.29509 -0.04346,-2.59161 0.04289,-3.88504 z" />
    <rect
       style="fill:#ffc107;fill-opacity:1;stroke:none;stroke-width:0.600001;stroke-linejoin:round;stroke-miterlimit:4;stroke-dasharray:none;stroke-opacity:1"
       id="rect8559"
       width="74.273994"
       height="74.273994"
       x="124.50717"
       y="191.94768" />
    <path
       id="path8561"
       style="fill:#2196f3;fill-opacity:1;stroke:none;stroke-width:0.600001;stroke-linejoin:round;stroke-miterlimit:4;stroke-dasharray:none;stroke-opacity:1"
       d="m 136.47775,214.96355 c -2.68703,-5.3e-4 -4.86537,6.3141 -4.86534,14.10353 7e-5,7.78922 2.17838,14.10342 4.86534,14.10302 l 2.95692,0.0357 c -2.68676,-4.3e-4 -4.86475,-6.31437 -4.86482,-14.10301 -2e-5,-7.78884 2.17799,-14.1031 4.86482,-14.10353 z m 3.82663,0 c -2.32888,4.6e-4 -4.27331,4.7473 -4.75061,11.08356 0.46573,-0.44975 1.02654,-0.76584 1.71152,-0.76584 0.6167,0 1.13598,0.25038 1.57303,0.62838 0.43772,-0.37821 0.95864,-0.62838 1.57562,-0.62838 0.81643,0 1.46288,0.4374 1.97249,1.03094 0.50961,0.59354 0.91322,1.35019 1.31258,2.09186 0.38232,0.71002 0.76187,1.40071 1.18442,1.9141 0.42248,-0.5134 0.8005,-1.20397 1.18288,-1.9141 0.39936,-0.74167 0.80297,-1.49832 1.31258,-2.09186 0.50961,-0.59354 1.15812,-1.03094 1.97455,-1.03094 0.61696,0 1.13638,0.25063 1.57355,0.6289 0.43725,-0.37848 0.95734,-0.6289 1.57458,-0.6289 0.81643,0 1.4634,0.4374 1.97301,1.03094 0.50961,0.59354 0.91322,1.35019 1.31258,2.09186 0.38224,0.70987 0.76197,1.40022 1.18442,1.91358 0.42232,-0.51335 0.80011,-1.20368 1.18236,-1.91358 0.39936,-0.74167 0.80504,-1.49832 1.31465,-2.09186 0.50961,-0.59354 1.15606,-1.03094 1.97249,-1.03094 0.61721,0 1.13678,0.25089 1.57406,0.62942 0.43731,-0.37861 0.95722,-0.62942 1.57458,-0.62942 0.81643,0 1.46288,0.4374 1.97249,1.03094 0.50962,0.59354 0.91529,1.35019 1.31465,2.09186 0.38237,0.71011 0.76042,1.40069 1.18288,1.9141 0.42256,-0.51339 0.80209,-1.20406 1.18442,-1.9141 0.39936,-0.74167 0.80245,-1.49832 1.31206,-2.09186 0.50961,-0.59354 1.15658,-1.03094 1.97301,-1.03094 0.61669,0 1.13698,0.25038 1.57458,0.62838 0.43708,-0.37807 0.9567,-0.62838 1.57355,-0.62838 0.81643,0 1.46494,0.4374 1.97455,1.03094 0.50961,0.59354 0.91322,1.35019 1.31258,2.09186 0.38198,0.70937 0.76131,1.3993 1.1834,1.91255 0.42218,-0.51328 0.80186,-1.20304 1.1839,-1.91255 0.39937,-0.74167 0.80297,-1.49832 1.31258,-2.09186 0.17135,-0.19956 0.36436,-0.37038 0.56793,-0.524 0.1346,-1.44454 0.36192,-2.88376 0.69505,-4.31033 0.45032,-1.46846 0.72126,-3.16209 1.90324,-4.24935 0.73089,0.61212 1.08214,1.58458 1.40456,2.4691 1.36137,4.34234 1.59727,8.91003 1.11312,13.37076 -0.41179,2.7197 -0.69682,5.70539 -2.51768,7.90236 -1.03165,-1.2019 -1.59846,-2.87183 -1.9141,-4.29276 -0.37835,-1.77706 -0.63172,-3.5727 -0.7524,-5.37332 -0.40464,0.3092 -0.87418,0.50953 -1.42162,0.50953 -0.61737,0 -1.13728,-0.25179 -1.57458,-0.63097 -0.43729,0.37907 -0.95686,0.63097 -1.57407,0.63097 -0.81643,0 -1.46494,-0.43947 -1.97455,-1.03301 -0.50962,-0.59354 -0.91322,-1.35019 -1.31259,-2.09186 -0.38199,-0.70943 -0.76127,-1.3993 -1.18339,-1.91255 -0.42209,0.51325 -0.80142,1.20317 -1.18339,1.91255 -0.39936,0.74167 -0.80297,1.49832 -1.31258,2.09186 -0.50961,0.59354 -1.15606,1.03301 -1.97249,1.03301 -0.61685,0 -1.13781,-0.25129 -1.57561,-0.62993 -0.43706,0.37854 -0.95634,0.62993 -1.57303,0.62993 -0.81643,0 -1.46495,-0.43947 -1.97456,-1.03301 -0.50961,-0.59354 -0.91322,-1.35019 -1.31258,-2.09186 -0.38204,-0.70952 -0.76172,-1.39928 -1.18391,-1.91255 -0.42209,0.51325 -0.80142,1.20317 -1.18339,1.91255 -0.39936,0.74167 -0.80297,1.49832 -1.31258,2.09186 -0.50961,0.59354 -1.15606,1.03301 -1.97249,1.03301 -0.61698,0 -1.1379,-0.25115 -1.57561,-0.62993 -0.4376,0.37854 -0.95789,0.62993 -1.57458,0.62993 -0.81643,0 -1.4634,-0.43947 -1.97301,-1.03301 -0.50961,-0.59354 -0.91322,-1.35019 -1.31258,-2.09186 -0.38199,-0.70943 -0.76127,-1.3993 -1.18339,-1.91255 -0.42209,0.51325 -0.80142,1.20317 -1.18339,1.91255 -0.39936,0.74167 -0.80297,1.49832 -1.31258,2.09186 -0.50961,0.59354 -1.15813,1.03301 -1.97456,1.03301 -0.61685,0 -1.13684,-0.25129 -1.57407,-0.62993 -0.43759,0.37854 -0.95788,0.62993 -1.57458,0.62993 -0.81642,0 -1.46287,-0.43947 -1.97249,-1.03301 -0.5096,-0.59354 -0.91321,-1.35019 -1.31257,-2.09186 -0.38234,-0.71005 -0.76186,-1.40071 -1.18443,-1.9141 -0.42245,0.51341 -0.80051,1.20398 -1.18287,1.9141 -0.39937,0.74167 -0.80297,1.49832 -1.31259,2.09186 -0.24273,0.28272 -0.5179,0.52854 -0.82682,0.71055 0.39723,6.63087 2.38684,11.67797 4.78782,11.67836 1.20846,-0.002 2.37342,-1.30767 3.26802,-3.66283 h 36.14405 c 0.89448,2.35482 2.05922,3.66049 3.2675,3.66283 h 3.82715 c 2.68684,-5.3e-4 4.86486,-6.31469 4.86483,-14.10354 -7e-5,-7.78864 -2.17807,-14.10258 -4.86483,-14.10301 h -3.82715 c -1.20828,0.002 -2.37302,1.30801 -3.2675,3.66283 h -36.14146 c -0.89527,-2.3569 -2.06126,-3.66272 -3.27061,-3.66283 z m -3.03909,10.91716 c -0.60818,0 -1.0737,0.30321 -1.51928,0.82218 -0.0856,0.0996 -0.168,0.21305 -0.25012,0.32659 -0.0334,0.6669 -0.0563,1.34337 -0.0563,2.03708 0,0.58543 0.0164,1.15877 0.0403,1.72548 0.13918,-0.11418 0.27407,-0.24706 0.4067,-0.40152 0.44558,-0.51897 0.84087,-1.24478 1.24023,-1.98645 0.39388,-0.73148 0.79267,-1.47625 1.29243,-2.06602 -0.34035,-0.29143 -0.70812,-0.45734 -1.15394,-0.45734 z m 3.14865,0 c -0.44611,0 -0.81534,0.16455 -1.15652,0.45631 0.50019,0.58994 0.89882,1.33512 1.29294,2.06705 0.39936,0.74167 0.79465,1.46748 1.24024,1.98645 0.44558,0.51897 0.90955,0.82423 1.51773,0.82423 0.44609,0 0.81492,-0.16707 1.15601,-0.4594 -0.49984,-0.58981 -0.8985,-1.33444 -1.29243,-2.06602 -0.39936,-0.74168 -0.79465,-1.46747 -1.24023,-1.98644 -0.44559,-0.51897 -0.90956,-0.82218 -1.51774,-0.82218 z m 8.9395,0 c -0.60818,0 -1.07215,0.30321 -1.51773,0.82218 -0.44559,0.51897 -0.84088,1.24476 -1.24024,1.98644 -0.39424,0.73216 -0.79357,1.47754 -1.29397,2.06757 0.34067,0.29252 0.70924,0.45785 1.15548,0.45785 0.60818,0 1.0737,-0.30526 1.51929,-0.82423 0.44558,-0.51897 0.8388,-1.24478 1.23816,-1.98645 0.39369,-0.73114 0.7945,-1.47534 1.29398,-2.06499 -0.34076,-0.29222 -0.70851,-0.45837 -1.15497,-0.45837 z m 3.14813,0 c -0.44673,0 -0.81517,0.16481 -1.156,0.45734 0.49985,0.58981 0.89901,1.33444 1.29294,2.06602 0.39937,0.74167 0.79465,1.46748 1.24024,1.98645 0.44559,0.51897 0.90955,0.82423 1.51774,0.82423 0.44608,0 0.8144,-0.16708 1.15548,-0.4594 -0.49976,-0.58978 -0.89855,-1.33454 -1.29243,-2.06602 -0.39936,-0.74168 -0.79464,-1.46747 -1.24023,-1.98644 -0.44559,-0.51897 -0.90955,-0.82218 -1.51774,-0.82218 z m 8.93951,0 c -0.60819,0 -1.07164,0.30321 -1.51722,0.82218 -0.44559,0.51897 -0.84088,1.24476 -1.24024,1.98644 -0.39412,0.73193 -0.79327,1.47711 -1.29346,2.06705 0.34119,0.29266 0.71017,0.45837 1.15652,0.45837 0.60819,0 1.07215,-0.30526 1.51774,-0.82423 0.44558,-0.51897 0.84087,-1.24478 1.24023,-1.98645 0.39369,-0.73113 0.79249,-1.47535 1.29191,-2.06499 -0.34076,-0.29222 -0.70903,-0.45837 -1.15548,-0.45837 z m 3.14864,0 c -0.44659,0 -0.8151,0.16498 -1.156,0.45734 0.49991,0.58981 0.90056,1.33444 1.29449,2.06602 0.39937,0.74167 0.79259,1.46748 1.23817,1.98645 0.44559,0.51897 0.91163,0.82423 1.51981,0.82423 0.44583,0 0.81357,-0.16687 1.15393,-0.45888 -0.49996,-0.58986 -0.89842,-1.33483 -1.29243,-2.06654 -0.39936,-0.74168 -0.79464,-1.46747 -1.24023,-1.98644 -0.44559,-0.51897 -0.90955,-0.82218 -1.51774,-0.82218 z m 8.93951,0 c -0.60818,0 -1.07215,0.30321 -1.51774,0.82218 -0.44558,0.51897 -0.84087,1.24476 -1.24023,1.98644 -0.39412,0.73193 -0.79327,1.47711 -1.29346,2.06705 0.34133,0.29266 0.71068,0.45837 1.15703,0.45837 0.60818,0 1.07164,-0.30526 1.51722,-0.82423 0.44558,-0.51897 0.84088,-1.24478 1.24024,-1.98645 0.39368,-0.73113 0.79249,-1.47535 1.29191,-2.06499 -0.34076,-0.29222 -0.70851,-0.45837 -1.15497,-0.45837 z m 3.14813,0 c -0.44611,0 -0.81402,0.16455 -1.15445,0.45631 0.50019,0.58994 0.89934,1.33512 1.29346,2.06705 0.39936,0.74167 0.79258,1.46748 1.23816,1.98645 0.44559,0.51897 0.91111,0.82423 1.51929,0.82423 0.44646,0 0.81472,-0.16713 1.15549,-0.45992 -0.49961,-0.58969 -0.90022,-1.33424 -1.29398,-2.0655 -0.39936,-0.74168 -0.79259,-1.46747 -1.23817,-1.98644 -0.44558,-0.51897 -0.91162,-0.82218 -1.5198,-0.82218 z m 7.46724,0.77618 c -0.0148,0.0167 -0.0302,0.0288 -0.045,0.046 -0.44558,0.51897 -0.84087,1.24476 -1.24023,1.98644 -0.394,0.73171 -0.79297,1.47668 -1.29295,2.06654 0.3409,0.29295 0.70941,0.45888 1.156,0.45888 0.54574,0 0.97486,-0.24738 1.37925,-0.67282 -0.0591,-1.29509 -0.0435,-2.59161 0.0429,-3.88504 z" />
    <rect
       style="fill:#4d4d4d;fill-opacity:1;stroke:none;stroke-width:0.600001;stroke-linejoin:round;stroke-miterlimit:4;stroke-dasharray:none;stroke-opacity:1"
       id="rect12155"
       width="74.273994"
       height="74.273994"
       x="214.01822"
       y="191.94768" />
    <path
       id="path12157"
       style="fill:#f2f2f2;fill-opacity:1;stroke:none;stroke-width:0.600001;stroke-linejoin:round;stroke-miterlimit:4;stroke-dasharray:none;stroke-opacity:1"
       d="m 225.9888,214.96355 c -2.68703,-5.3e-4 -4.86537,6.3141 -4.86534,14.10353 7e-5,7.78922 2.17838,14.10342 4.86534,14.10302 l 2.95692,0.0357 c -2.68676,-4.3e-4 -4.86475,-6.31437 -4.86482,-14.10301 -2e-5,-7.78884 2.17799,-14.1031 4.86482,-14.10353 z m 3.82663,0 c -2.32888,4.6e-4 -4.27331,4.7473 -4.75061,11.08356 0.46573,-0.44975 1.02654,-0.76584 1.71152,-0.76584 0.6167,0 1.13598,0.25038 1.57303,0.62838 0.43772,-0.37821 0.95864,-0.62838 1.57562,-0.62838 0.81643,0 1.46288,0.4374 1.97249,1.03094 0.50961,0.59354 0.91322,1.35019 1.31258,2.09186 0.38232,0.71002 0.76187,1.40071 1.18442,1.9141 0.42248,-0.5134 0.8005,-1.20397 1.18288,-1.9141 0.39936,-0.74167 0.80297,-1.49832 1.31258,-2.09186 0.50961,-0.59354 1.15812,-1.03094 1.97455,-1.03094 0.61696,0 1.13638,0.25063 1.57355,0.6289 0.43725,-0.37848 0.95734,-0.6289 1.57458,-0.6289 0.81643,0 1.4634,0.4374 1.97301,1.03094 0.50961,0.59354 0.91322,1.35019 1.31258,2.09186 0.38224,0.70987 0.76197,1.40022 1.18442,1.91358 0.42232,-0.51335 0.80011,-1.20368 1.18236,-1.91358 0.39936,-0.74167 0.80504,-1.49832 1.31465,-2.09186 0.50961,-0.59354 1.15606,-1.03094 1.97249,-1.03094 0.61721,0 1.13678,0.25089 1.57406,0.62942 0.43731,-0.37861 0.95722,-0.62942 1.57458,-0.62942 0.81643,0 1.46288,0.4374 1.97249,1.03094 0.50962,0.59354 0.91529,1.35019 1.31465,2.09186 0.38237,0.71011 0.76042,1.40069 1.18288,1.9141 0.42256,-0.51339 0.80209,-1.20406 1.18442,-1.9141 0.39936,-0.74167 0.80245,-1.49832 1.31206,-2.09186 0.50961,-0.59354 1.15658,-1.03094 1.97301,-1.03094 0.61669,0 1.13698,0.25038 1.57458,0.62838 0.43708,-0.37807 0.9567,-0.62838 1.57355,-0.62838 0.81643,0 1.46494,0.4374 1.97455,1.03094 0.50961,0.59354 0.91322,1.35019 1.31258,2.09186 0.38198,0.70937 0.76131,1.3993 1.1834,1.91255 0.42218,-0.51328 0.80186,-1.20304 1.1839,-1.91255 0.39937,-0.74167 0.80297,-1.49832 1.31258,-2.09186 0.17135,-0.19956 0.36436,-0.37038 0.56793,-0.524 0.1346,-1.44454 0.36192,-2.88376 0.69505,-4.31033 0.45032,-1.46846 0.72126,-3.16209 1.90324,-4.24935 0.73089,0.61212 1.08214,1.58458 1.40456,2.4691 1.36137,4.34234 1.59727,8.91003 1.11312,13.37076 -0.41179,2.7197 -0.69682,5.70539 -2.51768,7.90236 -1.03165,-1.2019 -1.59846,-2.87183 -1.9141,-4.29276 -0.37835,-1.77706 -0.63172,-3.5727 -0.7524,-5.37332 -0.40464,0.3092 -0.87418,0.50953 -1.42162,0.50953 -0.61737,0 -1.13728,-0.25179 -1.57458,-0.63097 -0.43729,0.37907 -0.95686,0.63097 -1.57407,0.63097 -0.81643,0 -1.46494,-0.43947 -1.97455,-1.03301 -0.50962,-0.59354 -0.91322,-1.35019 -1.31259,-2.09186 -0.38199,-0.70943 -0.76127,-1.3993 -1.18339,-1.91255 -0.42209,0.51325 -0.80142,1.20317 -1.18339,1.91255 -0.39936,0.74167 -0.80297,1.49832 -1.31258,2.09186 -0.50961,0.59354 -1.15606,1.03301 -1.97249,1.03301 -0.61685,0 -1.13781,-0.25129 -1.57561,-0.62993 -0.43706,0.37854 -0.95634,0.62993 -1.57303,0.62993 -0.81643,0 -1.46495,-0.43947 -1.97456,-1.03301 -0.50961,-0.59354 -0.91322,-1.35019 -1.31258,-2.09186 -0.38204,-0.70952 -0.76172,-1.39928 -1.18391,-1.91255 -0.42209,0.51325 -0.80142,1.20317 -1.18339,1.91255 -0.39936,0.74167 -0.80297,1.49832 -1.31258,2.09186 -0.50961,0.59354 -1.15606,1.03301 -1.97249,1.03301 -0.61698,0 -1.1379,-0.25115 -1.57561,-0.62993 -0.4376,0.37854 -0.95789,0.62993 -1.57458,0.62993 -0.81643,0 -1.4634,-0.43947 -1.97301,-1.03301 -0.50961,-0.59354 -0.91322,-1.35019 -1.31258,-2.09186 -0.38199,-0.70943 -0.76127,-1.3993 -1.18339,-1.91255 -0.42209,0.51325 -0.80142,1.20317 -1.18339,1.91255 -0.39936,0.74167 -0.80297,1.49832 -1.31258,2.09186 -0.50961,0.59354 -1.15813,1.03301 -1.97456,1.03301 -0.61685,0 -1.13684,-0.25129 -1.57407,-0.62993 -0.43759,0.37854 -0.95788,0.62993 -1.57458,0.62993 -0.81642,0 -1.46287,-0.43947 -1.97249,-1.03301 -0.5096,-0.59354 -0.91321,-1.35019 -1.31257,-2.09186 -0.38234,-0.71005 -0.76186,-1.40071 -1.18443,-1.9141 -0.42245,0.51341 -0.80051,1.20398 -1.18287,1.9141 -0.39937,0.74167 -0.80297,1.49832 -1.31259,2.09186 -0.24273,0.28272 -0.5179,0.52854 -0.82682,0.71055 0.39723,6.63087 2.38684,11.67797 4.78782,11.67836 1.20846,-0.002 2.37342,-1.30767 3.26802,-3.66283 h 36.14405 c 0.89448,2.35482 2.05922,3.66049 3.2675,3.66283 h 3.82715 c 2.68684,-5.3e-4 4.86486,-6.31469 4.86483,-14.10354 -7e-5,-7.78864 -2.17807,-14.10258 -4.86483,-14.10301 H 272.495 c -1.20828,0.002 -2.37302,1.30801 -3.2675,3.66283 h -36.14146 c -0.89527,-2.3569 -2.06126,-3.66272 -3.27061,-3.66283 z m -3.03909,10.91716 c -0.60818,0 -1.0737,0.30321 -1.51928,0.82218 -0.0856,0.0996 -0.168,0.21305 -0.25012,0.32659 -0.0334,0.6669 -0.0563,1.34337 -0.0563,2.03708 0,0.58543 0.0164,1.15877 0.0403,1.72548 0.13918,-0.11418 0.27407,-0.24706 0.4067,-0.40152 0.44558,-0.51897 0.84087,-1.24478 1.24023,-1.98645 0.39388,-0.73148 0.79267,-1.47625 1.29243,-2.06602 -0.34035,-0.29143 -0.70812,-0.45734 -1.15394,-0.45734 z m 3.14865,0 c -0.44611,0 -0.81534,0.16455 -1.15652,0.45631 0.50019,0.58994 0.89882,1.33512 1.29294,2.06705 0.39936,0.74167 0.79465,1.46748 1.24024,1.98645 0.44558,0.51897 0.90955,0.82423 1.51773,0.82423 0.44609,0 0.81492,-0.16707 1.15601,-0.4594 -0.49984,-0.58981 -0.8985,-1.33444 -1.29243,-2.06602 -0.39936,-0.74168 -0.79465,-1.46747 -1.24023,-1.98644 -0.44559,-0.51897 -0.90956,-0.82218 -1.51774,-0.82218 z m 8.9395,0 c -0.60818,0 -1.07215,0.30321 -1.51773,0.82218 -0.44559,0.51897 -0.84088,1.24476 -1.24024,1.98644 -0.39424,0.73216 -0.79357,1.47754 -1.29397,2.06757 0.34067,0.29252 0.70924,0.45785 1.15548,0.45785 0.60818,0 1.0737,-0.30526 1.51929,-0.82423 0.44558,-0.51897 0.8388,-1.24478 1.23816,-1.98645 0.39369,-0.73114 0.7945,-1.47534 1.29398,-2.06499 -0.34076,-0.29222 -0.70851,-0.45837 -1.15497,-0.45837 z m 3.14813,0 c -0.44673,0 -0.81517,0.16481 -1.156,0.45734 0.49985,0.58981 0.89901,1.33444 1.29294,2.06602 0.39937,0.74167 0.79465,1.46748 1.24024,1.98645 0.44559,0.51897 0.90955,0.82423 1.51774,0.82423 0.44608,0 0.8144,-0.16708 1.15548,-0.4594 -0.49976,-0.58978 -0.89855,-1.33454 -1.29243,-2.06602 -0.39936,-0.74168 -0.79464,-1.46747 -1.24023,-1.98644 -0.44559,-0.51897 -0.90955,-0.82218 -1.51774,-0.82218 z m 8.93951,0 c -0.60819,0 -1.07164,0.30321 -1.51722,0.82218 -0.44559,0.51897 -0.84088,1.24476 -1.24024,1.98644 -0.39412,0.73193 -0.79327,1.47711 -1.29346,2.06705 0.34119,0.29266 0.71017,0.45837 1.15652,0.45837 0.60819,0 1.07215,-0.30526 1.51774,-0.82423 0.44558,-0.51897 0.84087,-1.24478 1.24023,-1.98645 0.39369,-0.73113 0.79249,-1.47535 1.29191,-2.06499 -0.34076,-0.29222 -0.70903,-0.45837 -1.15548,-0.45837 z m 3.14864,0 c -0.44659,0 -0.8151,0.16498 -1.156,0.45734 0.49991,0.58981 0.90056,1.33444 1.29449,2.06602 0.39937,0.74167 0.79259,1.46748 1.23817,1.98645 0.44559,0.51897 0.91163,0.82423 1.51981,0.82423 0.44583,0 0.81357,-0.16687 1.15393,-0.45888 -0.49996,-0.58986 -0.89842,-1.33483 -1.29243,-2.06654 -0.39936,-0.74168 -0.79464,-1.46747 -1.24023,-1.98644 -0.44559,-0.51897 -0.90955,-0.82218 -1.51774,-0.82218 z m 8.93951,0 c -0.60818,0 -1.07215,0.30321 -1.51774,0.82218 -0.44558,0.51897 -0.84087,1.24476 -1.24023,1.98644 -0.39412,0.73193 -0.79327,1.47711 -1.29346,2.06705 0.34133,0.29266 0.71068,0.45837 1.15703,0.45837 0.60818,0 1.07164,-0.30526 1.51722,-0.82423 0.44558,-0.51897 0.84088,-1.24478 1.24024,-1.98645 0.39368,-0.73113 0.79249,-1.47535 1.29191,-2.06499 -0.34076,-0.29222 -0.70851,-0.45837 -1.15497,-0.45837 z m 3.14813,0 c -0.44611,0 -0.81402,0.16455 -1.15445,0.45631 0.50019,0.58994 0.89934,1.33512 1.29346,2.06705 0.39936,0.74167 0.79258,1.46748 1.23816,1.98645 0.44559,0.51897 0.91111,0.82423 1.51929,0.82423 0.44646,0 0.81472,-0.16713 1.15549,-0.45992 -0.49961,-0.58969 -0.90022,-1.33424 -1.29398,-2.0655 -0.39936,-0.74168 -0.79259,-1.46747 -1.23817,-1.98644 -0.44558,-0.51897 -0.91162,-0.82218 -1.5198,-0.82218 z m 7.46724,0.77618 c -0.0148,0.0167 -0.0302,0.0288 -0.045,0.046 -0.44558,0.51897 -0.84087,1.24476 -1.24023,1.98644 -0.394,0.73171 -0.79297,1.47668 -1.29295,2.06654 0.3409,0.29295 0.70941,0.45888 1.156,0.45888 0.54574,0 0.97486,-0.24738 1.37925,-0.67282 -0.0591,-1.29509 -0.0435,-2.59161 0.0429,-3.88504 z" />
    <rect
       style="fill:#ffc107;fill-opacity:1;stroke:none;stroke-width:0.600001;stroke-linejoin:round;stroke-miterlimit:4;stroke-dasharray:none;stroke-opacity:1"
       id="rect12357"
       width="74.273994"
       height="74.273994"
       x="36.450844"
       y="279.6955" />
    <path
       id="path12359"
       style="fill:#666666;fill-opacity:1;stroke:none;stroke-width:0.600001;stroke-linejoin:round;stroke-miterlimit:4;stroke-dasharray:none;stroke-opacity:1"
       d="m 48.421423,302.71138 c -2.68703,-5.3e-4 -4.86537,6.3141 -4.86534,14.10353 7e-5,7.78922 2.17838,14.10342 4.86534,14.10302 l 2.95692,0.0357 c -2.68676,-4.3e-4 -4.86475,-6.31437 -4.86482,-14.10301 -2e-5,-7.78884 2.17799,-14.1031 4.86482,-14.10353 z m 3.82663,0 c -2.32888,4.6e-4 -4.27331,4.7473 -4.75061,11.08356 0.46573,-0.44975 1.02654,-0.76584 1.71152,-0.76584 0.6167,0 1.13598,0.25038 1.57303,0.62838 0.43772,-0.37821 0.95864,-0.62838 1.57562,-0.62838 0.81643,0 1.46288,0.4374 1.97249,1.03094 0.50961,0.59354 0.91322,1.35019 1.31258,2.09186 0.38232,0.71002 0.76187,1.40071 1.18442,1.9141 0.42248,-0.5134 0.8005,-1.20397 1.18288,-1.9141 0.39936,-0.74167 0.80297,-1.49832 1.31258,-2.09186 0.50961,-0.59354 1.15812,-1.03094 1.97455,-1.03094 0.61696,0 1.13638,0.25063 1.57355,0.6289 0.43725,-0.37848 0.95734,-0.6289 1.57458,-0.6289 0.81643,0 1.4634,0.4374 1.97301,1.03094 0.50961,0.59354 0.91322,1.35019 1.31258,2.09186 0.38224,0.70987 0.76197,1.40022 1.18442,1.91358 0.42232,-0.51335 0.80011,-1.20368 1.18236,-1.91358 0.39936,-0.74167 0.80504,-1.49832 1.31465,-2.09186 0.50961,-0.59354 1.15606,-1.03094 1.97249,-1.03094 0.61721,0 1.13678,0.25089 1.57406,0.62942 0.43731,-0.37861 0.95722,-0.62942 1.57458,-0.62942 0.81643,0 1.46288,0.4374 1.97249,1.03094 0.50962,0.59354 0.91529,1.35019 1.31465,2.09186 0.38237,0.71011 0.76042,1.40069 1.18288,1.9141 0.42256,-0.51339 0.80209,-1.20406 1.18442,-1.9141 0.39936,-0.74167 0.80245,-1.49832 1.31206,-2.09186 0.50961,-0.59354 1.15658,-1.03094 1.97301,-1.03094 0.61669,0 1.13698,0.25038 1.57458,0.62838 0.43708,-0.37807 0.9567,-0.62838 1.57355,-0.62838 0.81643,0 1.46494,0.4374 1.97455,1.03094 0.50961,0.59354 0.91322,1.35019 1.31258,2.09186 0.38198,0.70937 0.76131,1.3993 1.1834,1.91255 0.42218,-0.51328 0.80186,-1.20304 1.1839,-1.91255 0.39937,-0.74167 0.80297,-1.49832 1.31258,-2.09186 0.17135,-0.19956 0.36436,-0.37038 0.56793,-0.524 0.1346,-1.44454 0.36192,-2.88376 0.69505,-4.31033 0.45032,-1.46846 0.72126,-3.16209 1.90324,-4.24935 0.73089,0.61212 1.08214,1.58458 1.404557,2.4691 1.36137,4.34234 1.59727,8.91003 1.11312,13.37076 -0.41179,2.7197 -0.69682,5.70539 -2.517677,7.90236 -1.03165,-1.2019 -1.59846,-2.87183 -1.9141,-4.29276 -0.37835,-1.77706 -0.63172,-3.5727 -0.7524,-5.37332 -0.40464,0.3092 -0.87418,0.50953 -1.42162,0.50953 -0.61737,0 -1.13728,-0.25179 -1.57458,-0.63097 -0.43729,0.37907 -0.95686,0.63097 -1.57407,0.63097 -0.81643,0 -1.46494,-0.43947 -1.97455,-1.03301 -0.50962,-0.59354 -0.91322,-1.35019 -1.31259,-2.09186 -0.38199,-0.70943 -0.76127,-1.3993 -1.18339,-1.91255 -0.42209,0.51325 -0.80142,1.20317 -1.18339,1.91255 -0.39936,0.74167 -0.80297,1.49832 -1.31258,2.09186 -0.50961,0.59354 -1.15606,1.03301 -1.97249,1.03301 -0.61685,0 -1.13781,-0.25129 -1.57561,-0.62993 -0.43706,0.37854 -0.95634,0.62993 -1.57303,0.62993 -0.81643,0 -1.46495,-0.43947 -1.97456,-1.03301 -0.50961,-0.59354 -0.91322,-1.35019 -1.31258,-2.09186 -0.38204,-0.70952 -0.76172,-1.39928 -1.18391,-1.91255 -0.42209,0.51325 -0.80142,1.20317 -1.18339,1.91255 -0.39936,0.74167 -0.80297,1.49832 -1.31258,2.09186 -0.50961,0.59354 -1.15606,1.03301 -1.97249,1.03301 -0.61698,0 -1.1379,-0.25115 -1.57561,-0.62993 -0.4376,0.37854 -0.95789,0.62993 -1.57458,0.62993 -0.81643,0 -1.4634,-0.43947 -1.97301,-1.03301 -0.50961,-0.59354 -0.91322,-1.35019 -1.31258,-2.09186 -0.38199,-0.70943 -0.76127,-1.3993 -1.18339,-1.91255 -0.42209,0.51325 -0.80142,1.20317 -1.18339,1.91255 -0.39936,0.74167 -0.80297,1.49832 -1.31258,2.09186 -0.50961,0.59354 -1.15813,1.03301 -1.97456,1.03301 -0.61685,0 -1.13684,-0.25129 -1.57407,-0.62993 -0.43759,0.37854 -0.95788,0.62993 -1.57458,0.62993 -0.81642,0 -1.46287,-0.43947 -1.97249,-1.03301 -0.5096,-0.59354 -0.91321,-1.35019 -1.31257,-2.09186 -0.38234,-0.71005 -0.76186,-1.40071 -1.18443,-1.9141 -0.42245,0.51341 -0.80051,1.20398 -1.18287,1.9141 -0.39937,0.74167 -0.80297,1.49832 -1.31259,2.09186 -0.24273,0.28272 -0.5179,0.52854 -0.82682,0.71055 0.39723,6.63087 2.38684,11.67797 4.78782,11.67836 1.20846,-0.002 2.37342,-1.30767 3.26802,-3.66283 h 36.14405 c 0.89448,2.35482 2.05922,3.66049 3.2675,3.66283 h 3.82715 c 2.686837,-5.3e-4 4.864857,-6.31469 4.864827,-14.10354 -7e-5,-7.78864 -2.17807,-14.10258 -4.864827,-14.10301 h -3.82715 c -1.20828,0.002 -2.37302,1.30801 -3.2675,3.66283 h -36.14146 c -0.89527,-2.3569 -2.06126,-3.66272 -3.27061,-3.66283 z m -3.03909,10.91716 c -0.60818,0 -1.0737,0.30321 -1.51928,0.82218 -0.0856,0.0996 -0.168,0.21305 -0.25012,0.32659 -0.0334,0.6669 -0.0563,1.34337 -0.0563,2.03708 0,0.58543 0.0164,1.15877 0.0403,1.72548 0.13918,-0.11418 0.27407,-0.24706 0.4067,-0.40152 0.44558,-0.51897 0.84087,-1.24478 1.24023,-1.98645 0.39388,-0.73148 0.79267,-1.47625 1.29243,-2.06602 -0.34035,-0.29143 -0.70812,-0.45734 -1.15394,-0.45734 z m 3.14865,0 c -0.44611,0 -0.81534,0.16455 -1.15652,0.45631 0.50019,0.58994 0.89882,1.33512 1.29294,2.06705 0.39936,0.74167 0.79465,1.46748 1.24024,1.98645 0.44558,0.51897 0.90955,0.82423 1.51773,0.82423 0.44609,0 0.81492,-0.16707 1.15601,-0.4594 -0.49984,-0.58981 -0.8985,-1.33444 -1.29243,-2.06602 -0.39936,-0.74168 -0.79465,-1.46747 -1.24023,-1.98644 -0.44559,-0.51897 -0.90956,-0.82218 -1.51774,-0.82218 z m 8.9395,0 c -0.60818,0 -1.07215,0.30321 -1.51773,0.82218 -0.44559,0.51897 -0.84088,1.24476 -1.24024,1.98644 -0.39424,0.73216 -0.79357,1.47754 -1.29397,2.06757 0.34067,0.29252 0.70924,0.45785 1.15548,0.45785 0.60818,0 1.0737,-0.30526 1.51929,-0.82423 0.44558,-0.51897 0.8388,-1.24478 1.23816,-1.98645 0.39369,-0.73114 0.7945,-1.47534 1.29398,-2.06499 -0.34076,-0.29222 -0.70851,-0.45837 -1.15497,-0.45837 z m 3.14813,0 c -0.44673,0 -0.81517,0.16481 -1.156,0.45734 0.49985,0.58981 0.89901,1.33444 1.29294,2.06602 0.39937,0.74167 0.79465,1.46748 1.24024,1.98645 0.44559,0.51897 0.90955,0.82423 1.51774,0.82423 0.44608,0 0.8144,-0.16708 1.15548,-0.4594 -0.49976,-0.58978 -0.89855,-1.33454 -1.29243,-2.06602 -0.39936,-0.74168 -0.79464,-1.46747 -1.24023,-1.98644 -0.44559,-0.51897 -0.90955,-0.82218 -1.51774,-0.82218 z m 8.93951,0 c -0.60819,0 -1.07164,0.30321 -1.51722,0.82218 -0.44559,0.51897 -0.84088,1.24476 -1.24024,1.98644 -0.39412,0.73193 -0.79327,1.47711 -1.29346,2.06705 0.34119,0.29266 0.71017,0.45837 1.15652,0.45837 0.60819,0 1.07215,-0.30526 1.51774,-0.82423 0.44558,-0.51897 0.84087,-1.24478 1.24023,-1.98645 0.39369,-0.73113 0.79249,-1.47535 1.29191,-2.06499 -0.34076,-0.29222 -0.70903,-0.45837 -1.15548,-0.45837 z m 3.14864,0 c -0.44659,0 -0.8151,0.16498 -1.156,0.45734 0.49991,0.58981 0.90056,1.33444 1.29449,2.06602 0.39937,0.74167 0.79259,1.46748 1.23817,1.98645 0.44559,0.51897 0.91163,0.82423 1.51981,0.82423 0.44583,0 0.81357,-0.16687 1.15393,-0.45888 -0.49996,-0.58986 -0.89842,-1.33483 -1.29243,-2.06654 -0.39936,-0.74168 -0.79464,-1.46747 -1.24023,-1.98644 -0.44559,-0.51897 -0.90955,-0.82218 -1.51774,-0.82218 z m 8.93951,0 c -0.60818,0 -1.07215,0.30321 -1.51774,0.82218 -0.44558,0.51897 -0.84087,1.24476 -1.24023,1.98644 -0.39412,0.73193 -0.79327,1.47711 -1.29346,2.06705 0.34133,0.29266 0.71068,0.45837 1.15703,0.45837 0.60818,0 1.07164,-0.30526 1.51722,-0.82423 0.44558,-0.51897 0.84088,-1.24478 1.24024,-1.98645 0.39368,-0.73113 0.79249,-1.47535 1.29191,-2.06499 -0.34076,-0.29222 -0.70851,-0.45837 -1.15497,-0.45837 z m 3.14813,0 c -0.44611,0 -0.81402,0.16455 -1.15445,0.45631 0.50019,0.58994 0.89934,1.33512 1.29346,2.06705 0.39936,0.74167 0.79258,1.46748 1.23816,1.98645 0.44559,0.51897 0.91111,0.82423 1.51929,0.82423 0.44646,0 0.81472,-0.16713 1.15549,-0.45992 -0.49961,-0.58969 -0.90022,-1.33424 -1.29398,-2.0655 -0.39936,-0.74168 -0.79259,-1.46747 -1.23817,-1.98644 -0.44558,-0.51897 -0.91162,-0.82218 -1.5198,-0.82218 z m 7.46724,0.77618 c -0.0148,0.0167 -0.0302,0.0288 -0.045,0.046 -0.44558,0.51897 -0.84087,1.24476 -1.24023,1.98644 -0.394,0.73171 -0.79297,1.47668 -1.29295,2.06654 0.3409,0.29295 0.70941,0.45888 1.156,0.45888 0.54574,0 0.97486,-0.24738 1.37925,-0.67282 -0.0591,-1.29509 -0.0435,-2.59161 0.0429,-3.88504 z" />
    <rect
       style="fill:#f2f2f2;fill-opacity:1;stroke:none;stroke-width:0.600001;stroke-linejoin:round;stroke-miterlimit:4;stroke-dasharray:none;stroke-opacity:1"
       id="rect14448"
       width="74.273994"
       height="74.273994"
       x="124.50717"
       y="279.6955" />
    <path
       id="path14450"
       style="fill:#2196f3;fill-opacity:1;stroke:none;stroke-width:0.600001;stroke-linejoin:round;stroke-miterlimit:4;stroke-dasharray:none;stroke-opacity:1"
       d="m 136.47775,302.71138 c -2.68703,-5.3e-4 -4.86537,6.3141 -4.86534,14.10353 7e-5,7.78922 2.17838,14.10342 4.86534,14.10302 l 2.95692,0.0357 c -2.68676,-4.3e-4 -4.86475,-6.31437 -4.86482,-14.10301 -2e-5,-7.78884 2.17799,-14.1031 4.86482,-14.10353 z m 3.82663,0 c -2.32888,4.6e-4 -4.27331,4.7473 -4.75061,11.08356 0.46573,-0.44975 1.02654,-0.76584 1.71152,-0.76584 0.6167,0 1.13598,0.25038 1.57303,0.62838 0.43772,-0.37821 0.95864,-0.62838 1.57562,-0.62838 0.81643,0 1.46288,0.4374 1.97249,1.03094 0.50961,0.59354 0.91322,1.35019 1.31258,2.09186 0.38232,0.71002 0.76187,1.40071 1.18442,1.9141 0.42248,-0.5134 0.8005,-1.20397 1.18288,-1.9141 0.39936,-0.74167 0.80297,-1.49832 1.31258,-2.09186 0.50961,-0.59354 1.15812,-1.03094 1.97455,-1.03094 0.61696,0 1.13638,0.25063 1.57355,0.6289 0.43725,-0.37848 0.95734,-0.6289 1.57458,-0.6289 0.81643,0 1.4634,0.4374 1.97301,1.03094 0.50961,0.59354 0.91322,1.35019 1.31258,2.09186 0.38224,0.70987 0.76197,1.40022 1.18442,1.91358 0.42232,-0.51335 0.80011,-1.20368 1.18236,-1.91358 0.39936,-0.74167 0.80504,-1.49832 1.31465,-2.09186 0.50961,-0.59354 1.15606,-1.03094 1.97249,-1.03094 0.61721,0 1.13678,0.25089 1.57406,0.62942 0.43731,-0.37861 0.95722,-0.62942 1.57458,-0.62942 0.81643,0 1.46288,0.4374 1.97249,1.03094 0.50962,0.59354 0.91529,1.35019 1.31465,2.09186 0.38237,0.71011 0.76042,1.40069 1.18288,1.9141 0.42256,-0.51339 0.80209,-1.20406 1.18442,-1.9141 0.39936,-0.74167 0.80245,-1.49832 1.31206,-2.09186 0.50961,-0.59354 1.15658,-1.03094 1.97301,-1.03094 0.61669,0 1.13698,0.25038 1.57458,0.62838 0.43708,-0.37807 0.9567,-0.62838 1.57355,-0.62838 0.81643,0 1.46494,0.4374 1.97455,1.03094 0.50961,0.59354 0.91322,1.35019 1.31258,2.09186 0.38198,0.70937 0.76131,1.3993 1.1834,1.91255 0.42218,-0.51328 0.80186,-1.20304 1.1839,-1.91255 0.39937,-0.74167 0.80297,-1.49832 1.31258,-2.09186 0.17135,-0.19956 0.36436,-0.37038 0.56793,-0.524 0.1346,-1.44454 0.36192,-2.88376 0.69505,-4.31033 0.45032,-1.46846 0.72126,-3.16209 1.90324,-4.24935 0.73089,0.61212 1.08214,1.58458 1.40456,2.4691 1.36137,4.34234 1.59727,8.91003 1.11312,13.37076 -0.41179,2.7197 -0.69682,5.70539 -2.51768,7.90236 -1.03165,-1.2019 -1.59846,-2.87183 -1.9141,-4.29276 -0.37835,-1.77706 -0.63172,-3.5727 -0.7524,-5.37332 -0.40464,0.3092 -0.87418,0.50953 -1.42162,0.50953 -0.61737,0 -1.13728,-0.25179 -1.57458,-0.63097 -0.43729,0.37907 -0.95686,0.63097 -1.57407,0.63097 -0.81643,0 -1.46494,-0.43947 -1.97455,-1.03301 -0.50962,-0.59354 -0.91322,-1.35019 -1.31259,-2.09186 -0.38199,-0.70943 -0.76127,-1.3993 -1.18339,-1.91255 -0.42209,0.51325 -0.80142,1.20317 -1.18339,1.91255 -0.39936,0.74167 -0.80297,1.49832 -1.31258,2.09186 -0.50961,0.59354 -1.15606,1.03301 -1.97249,1.03301 -0.61685,0 -1.13781,-0.25129 -1.57561,-0.62993 -0.43706,0.37854 -0.95634,0.62993 -1.57303,0.62993 -0.81643,0 -1.46495,-0.43947 -1.97456,-1.03301 -0.50961,-0.59354 -0.91322,-1.35019 -1.31258,-2.09186 -0.38204,-0.70952 -0.76172,-1.39928 -1.18391,-1.91255 -0.42209,0.51325 -0.80142,1.20317 -1.18339,1.91255 -0.39936,0.74167 -0.80297,1.49832 -1.31258,2.09186 -0.50961,0.59354 -1.15606,1.03301 -1.97249,1.03301 -0.61698,0 -1.1379,-0.25115 -1.57561,-0.62993 -0.4376,0.37854 -0.95789,0.62993 -1.57458,0.62993 -0.81643,0 -1.4634,-0.43947 -1.97301,-1.03301 -0.50961,-0.59354 -0.91322,-1.35019 -1.31258,-2.09186 -0.38199,-0.70943 -0.76127,-1.3993 -1.18339,-1.91255 -0.42209,0.51325 -0.80142,1.20317 -1.18339,1.91255 -0.39936,0.74167 -0.80297,1.49832 -1.31258,2.09186 -0.50961,0.59354 -1.15813,1.03301 -1.97456,1.03301 -0.61685,0 -1.13684,-0.25129 -1.57407,-0.62993 -0.43759,0.37854 -0.95788,0.62993 -1.57458,0.62993 -0.81642,0 -1.46287,-0.43947 -1.97249,-1.03301 -0.5096,-0.59354 -0.91321,-1.35019 -1.31257,-2.09186 -0.38234,-0.71005 -0.76186,-1.40071 -1.18443,-1.9141 -0.42245,0.51341 -0.80051,1.20398 -1.18287,1.9141 -0.39937,0.74167 -0.80297,1.49832 -1.31259,2.09186 -0.24273,0.28272 -0.5179,0.52854 -0.82682,0.71055 0.39723,6.63087 2.38684,11.67797 4.78782,11.67836 1.20846,-0.002 2.37342,-1.30767 3.26802,-3.66283 h 36.14405 c 0.89448,2.35482 2.05922,3.66049 3.2675,3.66283 h 3.82715 c 2.68684,-5.3e-4 4.86486,-6.31469 4.86483,-14.10354 -7e-5,-7.78864 -2.17807,-14.10258 -4.86483,-14.10301 h -3.82715 c -1.20828,0.002 -2.37302,1.30801 -3.2675,3.66283 h -36.14146 c -0.89527,-2.3569 -2.06126,-3.66272 -3.27061,-3.66283 z m -3.03909,10.91716 c -0.60818,0 -1.0737,0.30321 -1.51928,0.82218 -0.0856,0.0996 -0.168,0.21305 -0.25012,0.32659 -0.0334,0.6669 -0.0563,1.34337 -0.0563,2.03708 0,0.58543 0.0164,1.15877 0.0403,1.72548 0.13918,-0.11418 0.27407,-0.24706 0.4067,-0.40152 0.44558,-0.51897 0.84087,-1.24478 1.24023,-1.98645 0.39388,-0.73148 0.79267,-1.47625 1.29243,-2.06602 -0.34035,-0.29143 -0.70812,-0.45734 -1.15394,-0.45734 z m 3.14865,0 c -0.44611,0 -0.81534,0.16455 -1.15652,0.45631 0.50019,0.58994 0.89882,1.33512 1.29294,2.06705 0.39936,0.74167 0.79465,1.46748 1.24024,1.98645 0.44558,0.51897 0.90955,0.82423 1.51773,0.82423 0.44609,0 0.81492,-0.16707 1.15601,-0.4594 -0.49984,-0.58981 -0.8985,-1.33444 -1.29243,-2.06602 -0.39936,-0.74168 -0.79465,-1.46747 -1.24023,-1.98644 -0.44559,-0.51897 -0.90956,-0.82218 -1.51774,-0.82218 z m 8.9395,0 c -0.60818,0 -1.07215,0.30321 -1.51773,0.82218 -0.44559,0.51897 -0.84088,1.24476 -1.24024,1.98644 -0.39424,0.73216 -0.79357,1.47754 -1.29397,2.06757 0.34067,0.29252 0.70924,0.45785 1.15548,0.45785 0.60818,0 1.0737,-0.30526 1.51929,-0.82423 0.44558,-0.51897 0.8388,-1.24478 1.23816,-1.98645 0.39369,-0.73114 0.7945,-1.47534 1.29398,-2.06499 -0.34076,-0.29222 -0.70851,-0.45837 -1.15497,-0.45837 z m 3.14813,0 c -0.44673,0 -0.81517,0.16481 -1.156,0.45734 0.49985,0.58981 0.89901,1.33444 1.29294,2.06602 0.39937,0.74167 0.79465,1.46748 1.24024,1.98645 0.44559,0.51897 0.90955,0.82423 1.51774,0.82423 0.44608,0 0.8144,-0.16708 1.15548,-0.4594 -0.49976,-0.58978 -0.89855,-1.33454 -1.29243,-2.06602 -0.39936,-0.74168 -0.79464,-1.46747 -1.24023,-1.98644 -0.44559,-0.51897 -0.90955,-0.82218 -1.51774,-0.82218 z m 8.93951,0 c -0.60819,0 -1.07164,0.30321 -1.51722,0.82218 -0.44559,0.51897 -0.84088,1.24476 -1.24024,1.98644 -0.39412,0.73193 -0.79327,1.47711 -1.29346,2.06705 0.34119,0.29266 0.71017,0.45837 1.15652,0.45837 0.60819,0 1.07215,-0.30526 1.51774,-0.82423 0.44558,-0.51897 0.84087,-1.24478 1.24023,-1.98645 0.39369,-0.73113 0.79249,-1.47535 1.29191,-2.06499 -0.34076,-0.29222 -0.70903,-0.45837 -1.15548,-0.45837 z m 3.14864,0 c -0.44659,0 -0.8151,0.16498 -1.156,0.45734 0.49991,0.58981 0.90056,1.33444 1.29449,2.06602 0.39937,0.74167 0.79259,1.46748 1.23817,1.98645 0.44559,0.51897 0.91163,0.82423 1.51981,0.82423 0.44583,0 0.81357,-0.16687 1.15393,-0.45888 -0.49996,-0.58986 -0.89842,-1.33483 -1.29243,-2.06654 -0.39936,-0.74168 -0.79464,-1.46747 -1.24023,-1.98644 -0.44559,-0.51897 -0.90955,-0.82218 -1.51774,-0.82218 z m 8.93951,0 c -0.60818,0 -1.07215,0.30321 -1.51774,0.82218 -0.44558,0.51897 -0.84087,1.24476 -1.24023,1.98644 -0.39412,0.73193 -0.79327,1.47711 -1.29346,2.06705 0.34133,0.29266 0.71068,0.45837 1.15703,0.45837 0.60818,0 1.07164,-0.30526 1.51722,-0.82423 0.44558,-0.51897 0.84088,-1.24478 1.24024,-1.98645 0.39368,-0.73113 0.79249,-1.47535 1.29191,-2.06499 -0.34076,-0.29222 -0.70851,-0.45837 -1.15497,-0.45837 z m 3.14813,0 c -0.44611,0 -0.81402,0.16455 -1.15445,0.45631 0.50019,0.58994 0.89934,1.33512 1.29346,2.06705 0.39936,0.74167 0.79258,1.46748 1.23816,1.98645 0.44559,0.51897 0.91111,0.82423 1.51929,0.82423 0.44646,0 0.81472,-0.16713 1.15549,-0.45992 -0.49961,-0.58969 -0.90022,-1.33424 -1.29398,-2.0655 -0.39936,-0.74168 -0.79259,-1.46747 -1.23817,-1.98644 -0.44558,-0.51897 -0.91162,-0.82218 -1.5198,-0.82218 z m 7.46724,0.77618 c -0.0148,0.0167 -0.0302,0.0288 -0.045,0.046 -0.44558,0.51897 -0.84087,1.24476 -1.24023,1.98644 -0.394,0.73171 -0.79297,1.47668 -1.29295,2.06654 0.3409,0.29295 0.70941,0.45888 1.156,0.45888 0.54574,0 0.97486,-0.24738 1.37925,-0.67282 -0.0591,-1.29509 -0.0435,-2.59161 0.0429,-3.88504 z" />
    <rect
       style="fill:#f2f2f2;fill-opacity:1;stroke:none;stroke-width:0.600001;stroke-linejoin:round;stroke-miterlimit:4;stroke-dasharray:none;stroke-opacity:1"
       id="rect22488"
       width="74.273994"
       height="74.273994"
       x="214.0182"
       y="279.6955" />
    <path
       id="path22490"
       style="fill:#ffc107;fill-opacity:1;stroke:none;stroke-width:0.600001;stroke-linejoin:round;stroke-miterlimit:4;stroke-dasharray:none;stroke-opacity:1"
       d="m 225.98879,302.71138 c -2.68703,-5.3e-4 -4.86537,6.3141 -4.86534,14.10353 7e-5,7.78922 2.17838,14.10342 4.86534,14.10302 l 2.95692,0.0357 c -2.68676,-4.3e-4 -4.86475,-6.31437 -4.86482,-14.10301 -2e-5,-7.78884 2.17799,-14.1031 4.86482,-14.10353 z m 3.82663,0 c -2.32888,4.6e-4 -4.27331,4.7473 -4.75061,11.08356 0.46573,-0.44975 1.02654,-0.76584 1.71152,-0.76584 0.6167,0 1.13598,0.25038 1.57303,0.62838 0.43772,-0.37821 0.95864,-0.62838 1.57562,-0.62838 0.81643,0 1.46288,0.4374 1.97249,1.03094 0.50961,0.59354 0.91322,1.35019 1.31258,2.09186 0.38232,0.71002 0.76187,1.40071 1.18442,1.9141 0.42248,-0.5134 0.8005,-1.20397 1.18288,-1.9141 0.39936,-0.74167 0.80297,-1.49832 1.31258,-2.09186 0.50961,-0.59354 1.15812,-1.03094 1.97455,-1.03094 0.61696,0 1.13638,0.25063 1.57355,0.6289 0.43725,-0.37848 0.95734,-0.6289 1.57458,-0.6289 0.81643,0 1.4634,0.4374 1.97301,1.03094 0.50961,0.59354 0.91322,1.35019 1.31258,2.09186 0.38224,0.70987 0.76197,1.40022 1.18442,1.91358 0.42232,-0.51335 0.80011,-1.20368 1.18236,-1.91358 0.39936,-0.74167 0.80504,-1.49832 1.31465,-2.09186 0.50961,-0.59354 1.15606,-1.03094 1.97249,-1.03094 0.61721,0 1.13678,0.25089 1.57406,0.62942 0.43731,-0.37861 0.95722,-0.62942 1.57458,-0.62942 0.81643,0 1.46288,0.4374 1.97249,1.03094 0.50962,0.59354 0.91529,1.35019 1.31465,2.09186 0.38237,0.71011 0.76042,1.40069 1.18288,1.9141 0.42256,-0.51339 0.80209,-1.20406 1.18442,-1.9141 0.39936,-0.74167 0.80245,-1.49832 1.31206,-2.09186 0.50961,-0.59354 1.15658,-1.03094 1.97301,-1.03094 0.61669,0 1.13698,0.25038 1.57458,0.62838 0.43708,-0.37807 0.9567,-0.62838 1.57355,-0.62838 0.81643,0 1.46494,0.4374 1.97455,1.03094 0.50961,0.59354 0.91322,1.35019 1.31258,2.09186 0.38198,0.70937 0.76131,1.3993 1.1834,1.91255 0.42218,-0.51328 0.80186,-1.20304 1.1839,-1.91255 0.39937,-0.74167 0.80297,-1.49832 1.31258,-2.09186 0.17135,-0.19956 0.36436,-0.37038 0.56793,-0.524 0.1346,-1.44454 0.36192,-2.88376 0.69505,-4.31033 0.45032,-1.46846 0.72126,-3.16209 1.90324,-4.24935 0.73089,0.61212 1.08214,1.58458 1.40456,2.4691 1.36137,4.34234 1.59727,8.91003 1.11312,13.37076 -0.41179,2.7197 -0.69682,5.70539 -2.51768,7.90236 -1.03165,-1.2019 -1.59846,-2.87183 -1.9141,-4.29276 -0.37835,-1.77706 -0.63172,-3.5727 -0.7524,-5.37332 -0.40464,0.3092 -0.87418,0.50953 -1.42162,0.50953 -0.61737,0 -1.13728,-0.25179 -1.57458,-0.63097 -0.43729,0.37907 -0.95686,0.63097 -1.57407,0.63097 -0.81643,0 -1.46494,-0.43947 -1.97455,-1.03301 -0.50962,-0.59354 -0.91322,-1.35019 -1.31259,-2.09186 -0.38199,-0.70943 -0.76127,-1.3993 -1.18339,-1.91255 -0.42209,0.51325 -0.80142,1.20317 -1.18339,1.91255 -0.39936,0.74167 -0.80297,1.49832 -1.31258,2.09186 -0.50961,0.59354 -1.15606,1.03301 -1.97249,1.03301 -0.61685,0 -1.13781,-0.25129 -1.57561,-0.62993 -0.43706,0.37854 -0.95634,0.62993 -1.57303,0.62993 -0.81643,0 -1.46495,-0.43947 -1.97456,-1.03301 -0.50961,-0.59354 -0.91322,-1.35019 -1.31258,-2.09186 -0.38204,-0.70952 -0.76172,-1.39928 -1.18391,-1.91255 -0.42209,0.51325 -0.80142,1.20317 -1.18339,1.91255 -0.39936,0.74167 -0.80297,1.49832 -1.31258,2.09186 -0.50961,0.59354 -1.15606,1.03301 -1.97249,1.03301 -0.61698,0 -1.1379,-0.25115 -1.57561,-0.62993 -0.4376,0.37854 -0.95789,0.62993 -1.57458,0.62993 -0.81643,0 -1.4634,-0.43947 -1.97301,-1.03301 -0.50961,-0.59354 -0.91322,-1.35019 -1.31258,-2.09186 -0.38199,-0.70943 -0.76127,-1.3993 -1.18339,-1.91255 -0.42209,0.51325 -0.80142,1.20317 -1.18339,1.91255 -0.39936,0.74167 -0.80297,1.49832 -1.31258,2.09186 -0.50961,0.59354 -1.15813,1.03301 -1.97456,1.03301 -0.61685,0 -1.13684,-0.25129 -1.57407,-0.62993 -0.43759,0.37854 -0.95788,0.62993 -1.57458,0.62993 -0.81642,0 -1.46287,-0.43947 -1.97249,-1.03301 -0.5096,-0.59354 -0.91321,-1.35019 -1.31257,-2.09186 -0.38234,-0.71005 -0.76186,-1.40071 -1.18443,-1.9141 -0.42245,0.51341 -0.80051,1.20398 -1.18287,1.9141 -0.39937,0.74167 -0.80297,1.49832 -1.31259,2.09186 -0.24273,0.28272 -0.5179,0.52854 -0.82682,0.71055 0.39723,6.63087 2.38684,11.67797 4.78782,11.67836 1.20846,-0.002 2.37342,-1.30767 3.26802,-3.66283 h 36.14405 c 0.89448,2.35482 2.05922,3.66049 3.2675,3.66283 h 3.82715 c 2.68684,-5.3e-4 4.86486,-6.31469 4.86483,-14.10354 -7e-5,-7.78864 -2.17807,-14.10258 -4.86483,-14.10301 h -3.82715 c -1.20828,0.002 -2.37302,1.30801 -3.2675,3.66283 h -36.14146 c -0.89527,-2.3569 -2.06126,-3.66272 -3.27061,-3.66283 z m -3.03909,10.91716 c -0.60818,0 -1.0737,0.30321 -1.51928,0.82218 -0.0856,0.0996 -0.168,0.21305 -0.25012,0.32659 -0.0334,0.6669 -0.0563,1.34337 -0.0563,2.03708 0,0.58543 0.0164,1.15877 0.0403,1.72548 0.13918,-0.11418 0.27407,-0.24706 0.4067,-0.40152 0.44558,-0.51897 0.84087,-1.24478 1.24023,-1.98645 0.39388,-0.73148 0.79267,-1.47625 1.29243,-2.06602 -0.34035,-0.29143 -0.70812,-0.45734 -1.15394,-0.45734 z m 3.14865,0 c -0.44611,0 -0.81534,0.16455 -1.15652,0.45631 0.50019,0.58994 0.89882,1.33512 1.29294,2.06705 0.39936,0.74167 0.79465,1.46748 1.24024,1.98645 0.44558,0.51897 0.90955,0.82423 1.51773,0.82423 0.44609,0 0.81492,-0.16707 1.15601,-0.4594 -0.49984,-0.58981 -0.8985,-1.33444 -1.29243,-2.06602 -0.39936,-0.74168 -0.79465,-1.46747 -1.24023,-1.98644 -0.44559,-0.51897 -0.90956,-0.82218 -1.51774,-0.82218 z m 8.9395,0 c -0.60818,0 -1.07215,0.30321 -1.51773,0.82218 -0.44559,0.51897 -0.84088,1.24476 -1.24024,1.98644 -0.39424,0.73216 -0.79357,1.47754 -1.29397,2.06757 0.34067,0.29252 0.70924,0.45785 1.15548,0.45785 0.60818,0 1.0737,-0.30526 1.51929,-0.82423 0.44558,-0.51897 0.8388,-1.24478 1.23816,-1.98645 0.39369,-0.73114 0.7945,-1.47534 1.29398,-2.06499 -0.34076,-0.29222 -0.70851,-0.45837 -1.15497,-0.45837 z m 3.14813,0 c -0.44673,0 -0.81517,0.16481 -1.156,0.45734 0.49985,0.58981 0.89901,1.33444 1.29294,2.06602 0.39937,0.74167 0.79465,1.46748 1.24024,1.98645 0.44559,0.51897 0.90955,0.82423 1.51774,0.82423 0.44608,0 0.8144,-0.16708 1.15548,-0.4594 -0.49976,-0.58978 -0.89855,-1.33454 -1.29243,-2.06602 -0.39936,-0.74168 -0.79464,-1.46747 -1.24023,-1.98644 -0.44559,-0.51897 -0.90955,-0.82218 -1.51774,-0.82218 z m 8.93951,0 c -0.60819,0 -1.07164,0.30321 -1.51722,0.82218 -0.44559,0.51897 -0.84088,1.24476 -1.24024,1.98644 -0.39412,0.73193 -0.79327,1.47711 -1.29346,2.06705 0.34119,0.29266 0.71017,0.45837 1.15652,0.45837 0.60819,0 1.07215,-0.30526 1.51774,-0.82423 0.44558,-0.51897 0.84087,-1.24478 1.24023,-1.98645 0.39369,-0.73113 0.79249,-1.47535 1.29191,-2.06499 -0.34076,-0.29222 -0.70903,-0.45837 -1.15548,-0.45837 z m 3.14864,0 c -0.44659,0 -0.8151,0.16498 -1.156,0.45734 0.49991,0.58981 0.90056,1.33444 1.29449,2.06602 0.39937,0.74167 0.79259,1.46748 1.23817,1.98645 0.44559,0.51897 0.91163,0.82423 1.51981,0.82423 0.44583,0 0.81357,-0.16687 1.15393,-0.45888 -0.49996,-0.58986 -0.89842,-1.33483 -1.29243,-2.06654 -0.39936,-0.74168 -0.79464,-1.46747 -1.24023,-1.98644 -0.44559,-0.51897 -0.90955,-0.82218 -1.51774,-0.82218 z m 8.93951,0 c -0.60818,0 -1.07215,0.30321 -1.51774,0.82218 -0.44558,0.51897 -0.84087,1.24476 -1.24023,1.98644 -0.39412,0.73193 -0.79327,1.47711 -1.29346,2.06705 0.34133,0.29266 0.71068,0.45837 1.15703,0.45837 0.60818,0 1.07164,-0.30526 1.51722,-0.82423 0.44558,-0.51897 0.84088,-1.24478 1.24024,-1.98645 0.39368,-0.73113 0.79249,-1.47535 1.29191,-2.06499 -0.34076,-0.29222 -0.70851,-0.45837 -1.15497,-0.45837 z m 3.14813,0 c -0.44611,0 -0.81402,0.16455 -1.15445,0.45631 0.50019,0.58994 0.89934,1.33512 1.29346,2.06705 0.39936,0.74167 0.79258,1.46748 1.23816,1.98645 0.44559,0.51897 0.91111,0.82423 1.51929,0.82423 0.44646,0 0.81472,-0.16713 1.15549,-0.45992 -0.49961,-0.58969 -0.90022,-1.33424 -1.29398,-2.0655 -0.39936,-0.74168 -0.79259,-1.46747 -1.23817,-1.98644 -0.44558,-0.51897 -0.91162,-0.82218 -1.5198,-0.82218 z m 7.46724,0.77618 c -0.0148,0.0167 -0.0302,0.0288 -0.045,0.046 -0.44558,0.51897 -0.84087,1.24476 -1.24023,1.98644 -0.394,0.73171 -0.79297,1.47668 -1.29295,2.06654 0.3409,0.29295 0.70941,0.45888 1.156,0.45888 0.54574,0 0.97486,-0.24738 1.37925,-0.67282 -0.0591,-1.29509 -0.0435,-2.59161 0.0429,-3.88504 z" />
  </g>
</svg>
