<svg version="1.1" xmlns="http://www.w3.org/2000/svg" viewBox="0 0 740 740" width="100%" height="100%" overflow="hidden" style="font-family: &quot;Helvetica Neue&quot;, Helvetica, Arial, sans-serif;"><style type="text/css">.hidden{ visibility: hidden;}</style><g transform="translate(370,370)"><path class="arc" id="path-0" d="M5.725223786013876e-15,-93.5A93.5,93.5,0,1,1,-5.725223786013876e-15,93.5A93.5,93.5,0,1,1,5.725223786013876e-15,-93.5Z" fill-rule="evenodd" fill-opacity="1" style="fill: rgb(232, 230, 146);"/><path class="arc" id="path-1" d="M1.1389215232070385e-14,-186A186,186,0,0,1,31.484716749273613,-183.31588204849575L15.657722039289297,-91.16515639508526A92.5,92.5,0,0,0,5.6639914460565085e-15,-92.5Z" fill-rule="evenodd" fill-opacity="1" style="fill: rgb(241, 234, 152);"/><path class="arc" id="path-2" d="M31.484716749273613,-183.31588204849575A186,186,0,1,1,-185.9176065033212,-5.535665459204105L-92.45902473955489,-2.75295190847516A92.5,92.5,0,1,0,15.657722039289297,-91.16515639508526Z" fill-rule="evenodd" fill-opacity="1" style="fill: rgb(220, 222, 140);"/><path class="arc" id="path-3" d="M-185.9176065033212,-5.535665459204105A186,186,0,0,1,-181.08182220429092,-42.489688951245206L-90.05413201019844,-21.130624881667643A92.5,92.5,0,0,0,-92.45902473955489,-2.75295190847516Z" fill-rule="evenodd" fill-opacity="1" style="fill: rgb(187, 124, 82);"/><path class="arc" id="path-4" d="M-181.08182220429092,-42.489688951245206A186,186,0,0,1,-167.07694799748916,-81.73917939301998L-83.08934241810617,-40.64986071964703A92.5,92.5,0,0,0,-90.05413201019844,-21.130624881667643Z" fill-rule="evenodd" fill-opacity="1" style="fill: rgb(64, 65, 130);"/><path class="arc" id="path-5" d="M-167.07694799748916,-81.73917939301998A186,186,0,0,1,-3.416764569621115e-14,-186L-1.6991974338169524e-14,-92.5A92.5,92.5,0,0,0,-83.08934241810617,-40.64986071964703Z" fill-rule="evenodd" fill-opacity="1" style="fill: white;"/><path class="arc" id="path-6" d="M1.705320667812689e-14,-278.49999999999994A278.49999999999994,278.49999999999994,0,0,1,3.7895248680132942,-278.4742169416671L2.517278637638993,-184.98287301331573A185,185,0,0,0,1.1327982892113017e-14,-185Z" fill-rule="evenodd" fill-opacity="1" style="fill: rgb(248, 239, 163);"/><path class="arc" id="path-7" d="M3.7895248680132942,-278.4742169416671A278.49999999999994,278.49999999999994,0,0,1,15.151083695639157,-278.0875665376784L10.064454160478437,-184.72603163185104A185,185,0,0,0,2.517278637638993,-184.98287301331573Z" fill-rule="evenodd" fill-opacity="1" style="fill: rgb(231, 227, 144);"/><path class="arc" id="path-8" d="M15.151083695639157,-278.0875665376784A278.49999999999994,278.49999999999994,0,0,1,36.840708691218445,-276.05255329941934L24.47228404982195,-183.37422750589798A185,185,0,0,0,10.064454160478437,-184.72603163185104Z" fill-rule="evenodd" fill-opacity="1" style="fill: rgb(237, 224, 139);"/><path class="arc" id="path-9" d="M36.840708691218445,-276.05255329941934A278.49999999999994,278.49999999999994,0,0,1,47.1424387885629,-274.4810384435809L31.315444078578594,-182.33031279017052A185,185,0,0,0,24.47228404982195,-183.37422750589798Z" fill-rule="evenodd" fill-opacity="1" style="fill: white;"/><path class="arc" id="path-10" d="M47.1424387885629,-274.4810384435809A278.49999999999994,278.49999999999994,0,0,1,141.7721116459424,-239.7142431301286L94.1753703931754,-159.23567317441223A185,185,0,0,0,31.315444078578594,-182.33031279017052Z" fill-rule="evenodd" fill-opacity="1" style="fill: rgb(238, 198, 118);"/><path class="arc" id="path-11" d="M141.7721116459424,-239.7142431301286A278.49999999999994,278.49999999999994,0,0,1,237.39219446508483,-145.62690687867854L157.69319919583734,-96.73600636465184A185,185,0,0,0,94.1753703931754,-159.23567317441223Z" fill-rule="evenodd" fill-opacity="1" style="fill: rgb(190, 208, 161);"/><path class="arc" id="path-12" d="M237.39219446508483,-145.62690687867854A278.49999999999994,278.49999999999994,0,0,1,238.37748921228194,-144.00841168781903L158.34770378553742,-95.66088388598394A185,185,0,0,0,157.69319919583734,-96.73600636465184Z" fill-rule="evenodd" fill-opacity="1" style="fill: rgb(149, 109, 86);"/><path class="arc" id="path-13" d="M238.37748921228194,-144.00841168781903A278.49999999999994,278.49999999999994,0,0,1,238.86600150908467,-143.19665960860235L158.6722092609719,-95.12165898596567A185,185,0,0,0,158.34770378553742,-95.66088388598394Z" fill-rule="evenodd" fill-opacity="1" style="fill: rgb(159, 102, 82);"/><path class="arc" id="path-14" d="M238.86600150908467,-143.19665960860235A278.49999999999994,278.49999999999994,0,0,1,242.20787558726974,-137.4685236827021L160.89212561452393,-91.31661357737843A185,185,0,0,0,158.6722092609719,-95.12165898596567Z" fill-rule="evenodd" fill-opacity="1" style="fill: rgb(185, 118, 63);"/><path class="arc" id="path-15" d="M242.20787558726974,-137.4685236827021A278.49999999999994,278.49999999999994,0,0,1,245.41241196734683,-131.6624397934704L163.02081225838123,-87.45978944988161A185,185,0,0,0,160.89212561452393,-91.31661357737843Z" fill-rule="evenodd" fill-opacity="1" style="fill: rgb(189, 106, 89);"/><path class="arc" id="path-16" d="M245.41241196734683,-131.6624397934704A278.49999999999994,278.49999999999994,0,0,1,278.1494789785985,-13.96844099870047L184.767158387938,-9.278856677772305A185,185,0,0,0,163.02081225838123,-87.45978944988161Z" fill-rule="evenodd" fill-opacity="1" style="fill: rgb(133, 157, 67);"/><path class="arc" id="path-17" d="M278.1494789785985,-13.96844099870047A278.49999999999994,278.49999999999994,0,0,1,278.1953877523899,-13.022143959325923L184.79765434180302,-8.650257208169824A185,185,0,0,0,184.767158387938,-9.278856677772305Z" fill-rule="evenodd" fill-opacity="1" style="fill: rgb(128, 99, 148);"/><path class="arc" id="path-18" d="M278.1953877523899,-13.022143959325923A278.49999999999994,278.49999999999994,0,0,1,278.2775465945484,-11.129108738748958L184.85223023336255,-7.392765230407747A185,185,0,0,0,184.79765434180302,-8.650257208169824Z" fill-rule="evenodd" fill-opacity="1" style="fill: rgb(129, 83, 120);"/><path class="arc" id="path-19" d="M278.2775465945484,-11.129108738748958A278.49999999999994,278.49999999999994,0,0,1,278.4878133771738,-2.6053407455455875L184.99190475683,-1.7306572277412344A185,185,0,0,0,184.85223023336255,-7.392765230407747Z" fill-rule="evenodd" fill-opacity="1" style="fill: rgb(152, 77, 137);"/><path class="arc" id="path-20" d="M278.4878133771738,-2.6053407455455875A278.49999999999994,278.49999999999994,0,0,1,-133.1210890836172,244.62425399210036L-88.42873063005094,162.49726028200567A185,185,0,0,0,184.99190475683,-1.7306572277412344Z" fill-rule="evenodd" fill-opacity="1" style="fill: rgb(90, 206, 155);"/><path class="arc" id="path-21" d="M-133.1210890836172,244.62425399210036A278.49999999999994,278.49999999999994,0,0,1,-133.9524880371581,244.16998371760394L-88.98100641606554,162.19550085370463A185,185,0,0,0,-88.42873063005094,162.49726028200567Z" fill-rule="evenodd" fill-opacity="1" style="fill: rgb(169, 145, 57);"/><path class="arc" id="path-22" d="M-133.9524880371581,244.16998371760394A278.49999999999994,278.49999999999994,0,0,1,-142.17964026335818,239.47275397126504L-94.44608060582144,159.07525847283318A185,185,0,0,0,-88.98100641606554,162.19550085370463Z" fill-rule="evenodd" fill-opacity="1" style="fill: rgb(169, 126, 58);"/><path class="arc" id="path-23" d="M-142.17964026335818,239.47275397126504A278.49999999999994,278.49999999999994,0,0,1,-147.84131569996023,236.01948091652235L-98.20697811307953,156.7813427991262A185,185,0,0,0,-94.44608060582144,159.07525847283318Z" fill-rule="evenodd" fill-opacity="1" style="fill: rgb(182, 131, 52);"/><path class="arc" id="path-24" d="M-147.84131569996023,236.01948091652235A278.49999999999994,278.49999999999994,0,0,1,-278.37663124287604,-8.288617367679263L-184.91804947910978,-5.50590381695032A185,185,0,0,0,-98.20697811307953,156.7813427991262Z" fill-rule="evenodd" fill-opacity="1" style="fill: white;"/><path class="arc" id="path-25" d="M-278.37663124287604,-8.288617367679263A278.49999999999994,278.49999999999994,0,0,1,-278.31379571213597,-10.182392464613047L-184.87630953947996,-6.7638872745185425A185,185,0,0,0,-184.91804947910978,-5.50590381695032Z" fill-rule="evenodd" fill-opacity="1" style="fill: rgb(211, 151, 92);"/><path class="arc" id="path-26" d="M-278.31379571213597,-10.182392464613047A278.49999999999994,278.49999999999994,0,0,1,-278.04800538197145,-15.860539180846159L-184.69975222859867,-10.535726206307146A185,185,0,0,0,-184.87630953947996,-6.7638872745185425Z" fill-rule="evenodd" fill-opacity="1" style="fill: rgb(151, 104, 82);"/><path class="arc" id="path-27" d="M-278.04800538197145,-15.860539180846159A278.49999999999994,278.49999999999994,0,0,1,-277.99244173343453,-16.806318427394324L-184.66284280317916,-11.163981720172174A185,185,0,0,0,-184.69975222859867,-10.535726206307146Z" fill-rule="evenodd" fill-opacity="1" style="fill: rgb(185, 118, 63);"/><path class="arc" id="path-28" d="M-277.99244173343453,-16.806318427394324A278.49999999999994,278.49999999999994,0,0,1,-277.9336610296803,-17.75190318356698L-184.62379637519163,-11.792108039353291A185,185,0,0,0,-184.66284280317916,-11.163981720172174Z" fill-rule="evenodd" fill-opacity="1" style="fill: rgb(188, 103, 85);"/><path class="arc" id="path-29" d="M-277.9336610296803,-17.75190318356698A278.49999999999994,278.49999999999994,0,0,1,-277.80645121468956,-19.64244545621257L-184.53929434368968,-13.047944019387169A185,185,0,0,0,-184.62379637519163,-11.792108039353291Z" fill-rule="evenodd" fill-opacity="1" style="fill: rgb(154, 81, 57);"/><path class="arc" id="path-30" d="M-277.80645121468956,-19.64244545621257A278.49999999999994,278.49999999999994,0,0,1,-276.87712014403826,-30.02183106913665L-183.92196490717086,-19.94268850193997A185,185,0,0,0,-184.53929434368968,-13.047944019387169Z" fill-rule="evenodd" fill-opacity="1" style="fill: rgb(117, 96, 147);"/><path class="arc" id="path-31" d="M-276.87712014403826,-30.02183106913665A278.49999999999994,278.49999999999994,0,0,1,-276.0837849475428,-36.60592423418502L-183.39497384307157,-24.31632309990747A185,185,0,0,0,-183.92196490717086,-19.94268850193997Z" fill-rule="evenodd" fill-opacity="1" style="fill: rgb(138, 83, 140);"/><path class="arc" id="path-32" d="M-276.0837849475428,-36.60592423418502A278.49999999999994,278.49999999999994,0,0,1,-271.13595421448923,-63.620313832913084L-180.10826402039686,-42.26124976333545A185,185,0,0,0,-183.39497384307157,-24.31632309990747Z" fill-rule="evenodd" fill-opacity="1" style="fill: white;"/><path class="arc" id="path-33" d="M-271.13595421448935,-63.620313832912835A278.49999999999994,278.49999999999994,0,0,1,-261.65936103274214,-95.37624853147186L-173.8132200756097,-63.355856295591735A185,185,0,0,0,-180.1082640203969,-42.261249763335286Z" fill-rule="evenodd" fill-opacity="1" style="fill: rgb(65, 66, 133);"/><path class="arc" id="path-34" d="M-261.65936103274214,-95.37624853147186A278.49999999999994,278.49999999999994,0,0,1,-250.16629041559528,-122.38904011266698L-166.17868483621234,-81.29972143929406A185,185,0,0,0,-173.8132200756097,-63.355856295591735Z" fill-rule="evenodd" fill-opacity="1" style="fill: white;"/><path class="arc" id="path-35" d="M2.27171981241834e-14,-371A371,371,0,0,1,5.048164186832792,-370.96565344832504L3.7759179564584886,-277.47430951997353A277.49999999999994,277.49999999999994,0,0,0,1.699197433816952e-14,-277.49999999999994Z" fill-rule="evenodd" fill-opacity="1" style="fill: rgb(249, 240, 171);"/><path class="arc" id="path-36" d="M5.048164186832792,-370.96565344832504L3.7759179564584886,-277.47430951997353Z" fill-rule="evenodd" fill-opacity="1" style="fill: white;"/><path class="arc" id="path-37" d="M5.048164186832792,-370.96565344832504A371,371,0,0,1,15.140753929637564,-370.69091919069473L11.324957454108958,-277.2688142194549A277.49999999999994,277.49999999999994,0,0,0,3.7759179564584886,-277.47430951997353Z" fill-rule="evenodd" fill-opacity="1" style="fill: rgb(232, 229, 150);"/><path class="arc" id="path-38" d="M15.140753929637564,-370.69091919069473A371,371,0,0,1,20.18331077587838,-370.450582353604L15.096681240717652,-277.0890474477765A277.49999999999994,277.49999999999994,0,0,0,11.324957454108958,-277.2688142194549Z" fill-rule="evenodd" fill-opacity="1" style="fill: white;"/><path class="arc" id="path-39" d="M20.18331077587838,-370.450582353604A371,371,0,0,1,23.962826991392017,-370.2253137247379L17.9236778709199,-276.9205513709292A277.49999999999994,277.49999999999994,0,0,0,15.096681240717652,-277.0890474477765Z" fill-rule="evenodd" fill-opacity="1" style="fill: rgb(239, 224, 156);"/><path class="arc" id="path-40" d="M23.962826991392017,-370.2253137247379A371,371,0,0,1,36.54098027899111,-369.1960952667977L27.331865303018947,-276.1507181577799A277.49999999999994,277.49999999999994,0,0,0,17.9236778709199,-276.9205513709292Z" fill-rule="evenodd" fill-opacity="1" style="fill: rgb(235, 225, 122);"/><path class="arc" id="path-41" d="M36.54098027899111,-369.1960952667977A371,371,0,0,1,49.07685071612943,-367.73966705236836L36.70842607473292,-275.06134125884694A277.49999999999994,277.49999999999994,0,0,0,27.331865303018947,-276.1507181577799Z" fill-rule="evenodd" fill-opacity="1" style="fill: white;"/><path class="arc" id="path-42" d="M62.8001608278522,-365.64619483866625A371,371,0,0,1,64.04366229637,-365.4304438872992L47.903278402271354,-273.3340921259447A277.49999999999994,277.49999999999994,0,0,0,46.973166117867876,-273.49546918525573Z" fill-rule="evenodd" fill-opacity="1" style="fill: rgb(237, 209, 115);"/><path class="arc" id="path-43" d="M64.04366229637,-365.4304438872992A371,371,0,0,1,140.29772333569844,-343.4494851165449L104.93967176726768,-256.892808948359A277.49999999999994,277.49999999999994,0,0,0,47.903278402271354,-273.3340921259447Z" fill-rule="evenodd" fill-opacity="1" style="fill: rgb(238, 188, 122);"/><path class="arc" id="path-44" d="M140.29772333569844,-343.4494851165449A371,371,0,0,1,188.85979684253005,-319.3320797173348L141.263055589763,-238.8535097616183A277.49999999999994,277.49999999999994,0,0,0,104.93967176726768,-256.892808948359Z" fill-rule="evenodd" fill-opacity="1" style="fill: white;"/><path class="arc" id="path-45" d="M188.85979684253013,-319.33207971733475A371,371,0,0,1,195.33789150979044,-315.41101461507225L146.1085307115009,-235.92063761639497A277.49999999999994,277.49999999999994,0,0,0,141.26305558976307,-238.85350976161828Z" fill-rule="evenodd" fill-opacity="1" style="fill: rgb(208, 217, 150);"/><path class="arc" id="path-46" d="M195.33789150979044,-315.41101461507225A371,371,0,0,1,284.5852115138161,-238.01734682084947L212.86360160399988,-178.0318429724682A277.49999999999994,277.49999999999994,0,0,0,146.1085307115009,-235.92063761639497Z" fill-rule="evenodd" fill-opacity="1" style="fill: rgb(182, 199, 172);"/><path class="arc" id="path-47" d="M284.5852115138161,-238.01734682084947A371,371,0,0,1,286.9994350894118,-235.10066834945087L214.66938877981607,-175.85023036919839A277.49999999999994,277.49999999999994,0,0,0,212.86360160399988,-178.0318429724682Z" fill-rule="evenodd" fill-opacity="1" style="fill: rgb(222, 170, 107);"/><path class="arc" id="path-48" d="M286.9994350894118,-235.10066834945087A371,371,0,0,1,316.2387940630035,-193.9949100610045L236.53979879375598,-145.10400954697772A277.49999999999994,277.49999999999994,0,0,0,214.66938877981607,-175.85023036919839Z" fill-rule="evenodd" fill-opacity="1" style="fill: white;"/><path class="arc" id="path-49" d="M316.2387940630035,-193.9949100610045A371,371,0,0,1,317.5513411050507,-191.83885363081103L237.52155567830607,-143.49132582897587A277.49999999999994,277.49999999999994,0,0,0,236.53979879375598,-145.10400954697772Z" fill-rule="evenodd" fill-opacity="1" style="fill: rgb(152, 111, 88);"/><path class="arc" id="path-50" d="M317.5513411050507,-191.83885363081103L237.52155567830607,-143.49132582897587Z" fill-rule="evenodd" fill-opacity="1" style="fill: white;"/><path class="arc" id="path-51" d="M322.6539383945318,-183.12683047139134A371,371,0,0,1,323.89239474880713,-180.92737942026054L242.26452706952549,-135.3297784073377A277.49999999999994,277.49999999999994,0,0,0,241.33818842178584,-136.97492036606764Z" fill-rule="evenodd" fill-opacity="1" style="fill: rgb(191, 110, 93);"/><path class="arc" id="path-52" d="M323.89239474880713,-180.92737942026054A371,371,0,0,1,326.92281809653747,-175.39233451841125L244.53121838757178,-131.1896841748224A277.49999999999994,277.49999999999994,0,0,0,242.26452706952549,-135.3297784073377Z" fill-rule="evenodd" fill-opacity="1" style="fill: white;"/><path class="arc" id="path-53" d="M326.92281809653747,-175.39233451841125A371,371,0,0,1,370.3978814962708,-21.128402283999122L277.04962834289796,-15.803589309460257A277.49999999999994,277.49999999999994,0,0,0,244.53121838757178,-131.1896841748224Z" fill-rule="evenodd" fill-opacity="1" style="fill: rgb(136, 161, 68);"/><path class="arc" id="path-54" d="M370.3978814962708,-21.128402283999122A371,371,0,0,1,370.53305817256756,-18.607869337586624L277.1507375819069,-13.918285016658457A277.49999999999994,277.49999999999994,0,0,0,277.04962834289796,-15.803589309460257Z" fill-rule="evenodd" fill-opacity="1" style="fill: white;"/><path class="arc" id="path-55" d="M370.53305817256756,-18.607869337586624A371,371,0,0,1,370.5942149232915,-17.347272563410836L277.19648151270445,-12.975385812254734A277.49999999999994,277.49999999999994,0,0,0,277.1507375819069,-13.918285016658457Z" fill-rule="evenodd" fill-opacity="1" style="fill: rgb(130, 101, 151);"/><path class="arc" id="path-56" d="M370.5942149232915,-17.347272563410836L277.19648151270445,-12.975385812254734Z" fill-rule="evenodd" fill-opacity="1" style="fill: white;"/><path class="arc" id="path-57" d="M370.5942149232915,-17.347272563410836A371,371,0,0,1,370.70366171122976,-14.825491353952833L277.27834535004376,-11.089147845611619A277.49999999999994,277.49999999999994,0,0,0,277.19648151270445,-12.975385812254734Z" fill-rule="evenodd" fill-opacity="1" style="fill: rgb(132, 85, 123);"/><path class="arc" id="path-58" d="M370.70366171122976,-14.825491353952833L277.27834535004376,-11.089147845611619Z" fill-rule="evenodd" fill-opacity="1" style="fill: white;"/><path class="arc" id="path-59" d="M370.70366171122976,-14.825491353952833A371,371,0,0,1,370.751950481876,-13.564336101871955L277.3144643092199,-10.145830911777539A277.49999999999994,277.49999999999994,0,0,0,277.27834535004376,-11.089147845611619Z" fill-rule="evenodd" fill-opacity="1" style="fill: rgb(147, 75, 139);"/><path class="arc" id="path-60" d="M370.751950481876,-13.564336101871955A371,371,0,0,1,370.9515663020137,-5.994619094049394L277.46377263829856,-4.483845818325355A277.49999999999994,277.49999999999994,0,0,0,277.3144643092199,-10.145830911777539Z" fill-rule="evenodd" fill-opacity="1" style="fill: rgb(157, 78, 135);"/><path class="arc" id="path-61" d="M370.9515663020137,-5.994619094049394A371,371,0,0,1,370.9837657555888,-3.4706693594162052L277.48785713524495,-2.595985841611851A277.49999999999994,277.49999999999994,0,0,0,277.46377263829856,-4.483845818325355Z" fill-rule="evenodd" fill-opacity="1" style="fill: rgb(140, 80, 134);"/><path class="arc" id="path-62" d="M370.9837657555888,-3.4706693594162052L277.48785713524495,-2.595985841611851Z" fill-rule="evenodd" fill-opacity="1" style="fill: white;"/><path class="arc" id="path-63" d="M370.9837657555888,-3.4706693594162052A371,371,0,0,1,257.49624395921336,267.08928160242084L192.60163800183747,199.77702330100206A277.49999999999994,277.49999999999994,0,0,0,277.48785713524495,-2.595985841611851Z" fill-rule="evenodd" fill-opacity="1" style="fill: rgb(107, 84, 147);"/><path class="arc" id="path-64" d="M257.49624395921336,267.08928160242084A371,371,0,0,1,249.19950838286124,274.8465117510867L186.3958586960754,205.57926418039503A277.49999999999994,277.49999999999994,0,0,0,192.60163800183747,199.77702330100206Z" fill-rule="evenodd" fill-opacity="1" style="fill: rgb(240, 210, 120);"/><path class="arc" id="path-65" d="M249.19950838286124,274.8465117510867A371,371,0,0,1,-171.76724423206272,328.8419283013085L-128.47819480969648,245.96667143831021A277.49999999999994,277.49999999999994,0,0,0,186.3958586960754,205.57926418039503Z" fill-rule="evenodd" fill-opacity="1" style="fill: rgb(243, 232, 129);"/><path class="arc" id="path-66" d="M-171.76724423206272,328.8419283013085A371,371,0,0,1,-174.00058200513692,327.6656794079502L-130.1486833057291,245.08686262993575A277.49999999999994,277.49999999999994,0,0,0,-128.47819480969648,245.96667143831021Z" fill-rule="evenodd" fill-opacity="1" style="fill: rgb(163, 181, 164);"/><path class="arc" id="path-67" d="M-174.00058200513692,327.6656794079502A371,371,0,0,1,-177.33545439864284,325.8728841331032L-132.64309594507648,243.74589042300838A277.49999999999994,277.49999999999994,0,0,0,-130.1486833057291,245.08686262993575Z" fill-rule="evenodd" fill-opacity="1" style="fill: white;"/><path class="arc" id="path-68" d="M-177.3354543986427,325.87288413310324A371,371,0,0,1,-178.4429912451909,325.2677341444563L-133.4715096240983,243.2932512805569A277.49999999999994,277.49999999999994,0,0,0,-132.64309594507637,243.74589042300843Z" fill-rule="evenodd" fill-opacity="1" style="fill: rgb(173, 148, 59);"/><path class="arc" id="path-69" d="M-178.4429912451909,325.2677341444563L-133.4715096240983,243.2932512805569Z" fill-rule="evenodd" fill-opacity="1" style="fill: white;"/><path class="arc" id="path-70" d="M-178.4429912451909,325.2677341444563A371,371,0,0,1,-182.85236058540772,322.80956340905396L-136.76962280983997,241.454592576853A277.49999999999994,277.49999999999994,0,0,0,-133.4715096240983,243.2932512805569Z" fill-rule="evenodd" fill-opacity="1" style="fill: rgb(171, 129, 68);"/><path class="arc" id="path-71" d="M-182.85236058540772,322.80956340905396A371,371,0,0,1,-187.2278736018955,320.29162234831034L-140.04241219548786,239.57122695864177A277.49999999999994,277.49999999999994,0,0,0,-136.76962280983997,241.454592576853Z" fill-rule="evenodd" fill-opacity="1" style="fill: rgb(166, 122, 49);"/><path class="arc" id="path-72" d="M-187.2278736018955,320.29162234831034A371,371,0,0,1,-189.4026805662689,319.0103832076817L-141.6691209087321,238.61288770924972A277.49999999999994,277.49999999999994,0,0,0,-140.04241219548786,239.57122695864177Z" fill-rule="evenodd" fill-opacity="1" style="fill: white;"/><path class="arc" id="path-73" d="M-370.835655982431,-11.041569276154425A371,371,0,0,1,-370.751950481876,-13.56433610187232L-277.3144643092199,-10.14583091177781A277.49999999999994,277.49999999999994,0,0,0,-277.37707421866463,-8.258855725425478Z" fill-rule="evenodd" fill-opacity="1" style="fill: rgb(212, 154, 97);"/><path class="arc" id="path-74" d="M-370.751950481876,-13.56433610187232L-277.3144643092199,-10.14583091177781Z" fill-rule="evenodd" fill-opacity="1" style="fill: white;"/><path class="arc" id="path-75" d="M-370.751950481876,-13.56433610187232A371,371,0,0,1,-370.70366171122976,-14.825491353953037L-277.27834535004376,-11.08914784561177A277.49999999999994,277.49999999999994,0,0,0,-277.3144643092199,-10.14583091177781Z" fill-rule="evenodd" fill-opacity="1" style="fill: rgb(152, 111, 88);"/><path class="arc" id="path-76" d="M-370.70366171122976,-14.825491353953037A371,371,0,0,1,-370.3978814962708,-21.128402283999733L-277.04962834289796,-15.803589309460715A277.49999999999994,277.49999999999994,0,0,0,-277.27834535004376,-11.08914784561177Z" fill-rule="evenodd" fill-opacity="1" style="fill: rgb(150, 96, 77);"/><path class="arc" id="path-77" d="M-370.3978814962708,-21.128402283999733L-277.04962834289796,-15.803589309460715Z" fill-rule="evenodd" fill-opacity="1" style="fill: white;"/><path class="arc" id="path-78" d="M-370.32386313502417,-22.388309287480414A371,371,0,0,1,-370.24555921727614,-23.647957203243628L-276.9356945627874,-17.688162059029935A277.49999999999994,277.49999999999994,0,0,0,-276.9942642047687,-16.745972580258258Z" fill-rule="evenodd" fill-opacity="1" style="fill: rgb(189, 106, 89);"/><path class="arc" id="path-79" d="M-370.24555921727614,-23.647957203243628L-276.9356945627874,-17.688162059029935Z" fill-rule="evenodd" fill-opacity="1" style="fill: white;"/><path class="arc" id="path-80" d="M-370.24555921727614,-23.647957203243628A371,371,0,0,1,-370.1629706491954,-24.90733145406968L-276.87392009474854,-18.630146842329744A277.49999999999994,277.49999999999994,0,0,0,-276.9356945627874,-17.688162059029935Z" fill-rule="evenodd" fill-opacity="1" style="fill: rgb(152, 87, 52);"/><path class="arc" id="path-81" d="M-370.1629706491954,-24.90733145406968A371,371,0,0,1,-370.07609838653445,-26.166417465906157L-276.80894151553446,-19.571916029080747A277.49999999999994,277.49999999999994,0,0,0,-276.87392009474854,-18.630146842329744Z" fill-rule="evenodd" fill-opacity="1" style="fill: rgb(155, 76, 63);"/><path class="arc" id="path-82" d="M-370.07609838653445,-26.166417465906157L-276.80894151553446,-19.571916029080747Z" fill-rule="evenodd" fill-opacity="1" style="fill: white;"/><path class="arc" id="path-83" d="M-370.07609838653445,-26.166417465906157A371,371,0,0,1,-368.83810259762373,-39.993175320106644L-275.88294736075625,-29.914032752909947A277.49999999999994,277.49999999999994,0,0,0,-276.80894151553446,-19.571916029080747Z" fill-rule="evenodd" fill-opacity="1" style="fill: rgb(119, 98, 150);"/><path class="arc" id="path-84" d="M-368.83810259762373,-39.993175320106644L-275.88294736075625,-29.914032752909947Z" fill-rule="evenodd" fill-opacity="1" style="fill: white;"/><path class="arc" id="path-85" d="M-368.83810259762373,-39.993175320106644A371,371,0,0,1,-367.9450307526844,-47.51267561826129L-275.21494887835553,-35.538456830370635A277.49999999999994,277.49999999999994,0,0,0,-275.88294736075625,-29.914032752909947Z" fill-rule="evenodd" fill-opacity="1" style="fill: rgb(141, 84, 143);"/><path class="arc" id="path-86" d="M-367.9450307526844,-47.51267561826129A371,371,0,0,1,-367.7812718690787,-48.764085784138764L-275.0924607646073,-36.474484649861196A277.49999999999994,277.49999999999994,0,0,0,-275.21494887835553,-35.538456830370635Z" fill-rule="evenodd" fill-opacity="1" style="fill: white;"/><path class="arc" id="path-87" d="M-361.19008622468783,-84.75093871458049A371,371,0,0,1,-348.56597107054705,-127.05417667926774L-260.7198301134145,-95.03378444338757A277.49999999999994,277.49999999999994,0,0,0,-270.1623960305953,-63.391874645002915Z" fill-rule="evenodd" fill-opacity="1" style="fill: rgb(67, 67, 136);"/><path class="arc" id="path-88" d="M-348.56597107054705,-127.05417667926774L-260.7198301134145,-95.03378444338757Z" fill-rule="evenodd" fill-opacity="1" style="fill: white;"/><path class="arc hidden" id="path-89" d="M25.215537856117596,-462.8135981695295A463.5,463.5,0,0,1,28.363758973338967,-462.63132965343186L22.642051391877924,-369.3065630458895A370,370,0,0,0,20.128908320956874,-369.4520632637021Z" fill-rule="evenodd" fill-opacity="0.2" style="fill: rgb(240, 226, 163);"/><path class="arc hidden" id="path-90" d="M28.363758973338967,-462.63132965343186A463.5,463.5,0,0,1,29.93738628169865,-462.53216418171434L23.89823716122654,-369.22740182790574A370,370,0,0,0,22.642051391877924,-369.3065630458895Z" fill-rule="evenodd" fill-opacity="0.2" style="fill: white;"/><path class="arc hidden" id="path-91" d="M29.93738628169865,-462.53216418171434A463.5,463.5,0,0,1,45.65160204666409,-461.2463346527244L36.44248707069194,-368.20095754370664A370,370,0,0,0,23.89823716122654,-369.22740182790574Z" fill-rule="evenodd" fill-opacity="0.2" style="fill: rgb(236, 227, 129);"/><path class="arc hidden" id="path-92" d="M45.65160204666409,-461.2463346527244L36.44248707069194,-368.20095754370664Z" fill-rule="evenodd" fill-opacity="0.2" style="fill: white;"/><path class="arc hidden" id="path-93" d="M78.4578828671415,-456.8113512337515A463.5,463.5,0,0,1,80.01142176379379,-456.54180792928076L63.87103786969515,-364.4454561679264A370,370,0,0,0,62.63088815715719,-364.66062558034105Z" fill-rule="evenodd" fill-opacity="0.2" style="fill: rgb(238, 211, 121);"/><path class="arc hidden" id="path-94" d="M80.01142176379379,-456.54180792928076L63.87103786969515,-364.4454561679264Z" fill-rule="evenodd" fill-opacity="0.2" style="fill: white;"/><path class="arc hidden" id="path-95" d="M80.01142176379379,-456.54180792928076A463.5,463.5,0,0,1,103.19335273925377,-451.86655325486527L82.37657068721444,-360.7133219078752A370,370,0,0,0,63.87103786969515,-364.4454561679264Z" fill-rule="evenodd" fill-opacity="0.2" style="fill: rgb(237, 190, 98);"/><path class="arc hidden" id="path-96" d="M103.19335273925377,-451.86655325486527A463.5,463.5,0,0,1,104.72992716699524,-451.512892790002L83.6031781052605,-360.4310039531839A370,370,0,0,0,82.37657068721444,-360.7133219078752Z" fill-rule="evenodd" fill-opacity="0.2" style="fill: rgb(240, 190, 145);"/><path class="arc hidden" id="path-97" d="M104.72992716699524,-451.512892790002A463.5,463.5,0,0,1,106.26528961229404,-451.1540072121883L84.82881802923148,-360.144514926666A370,370,0,0,0,83.6031781052605,-360.4310039531839Z" fill-rule="evenodd" fill-opacity="0.2" style="fill: rgb(228, 168, 134);"/><path class="arc hidden" id="path-98" d="M106.26528961229404,-451.1540072121883A463.5,463.5,0,0,1,175.27761392478766,-429.0804214326646L139.91956235635692,-342.52374526447875A370,370,0,0,0,84.82881802923148,-360.144514926666Z" fill-rule="evenodd" fill-opacity="0.2" style="fill: white;"/><path class="arc hidden" id="path-99" d="M235.94748203911783,-398.94991630454086A463.5,463.5,0,0,1,244.04073508029074,-394.0512271538706L194.81137428200122,-314.56085015519335A370,370,0,0,0,188.3507407863508,-318.47134634882445Z" fill-rule="evenodd" fill-opacity="0.2" style="fill: rgb(210, 219, 155);"/><path class="arc hidden" id="path-100" d="M244.04073508029074,-394.0512271538706L194.81137428200122,-314.56085015519335Z" fill-rule="evenodd" fill-opacity="0.2" style="fill: white;"/><path class="arc hidden" id="path-101" d="M244.04073508029074,-394.0512271538706A463.5,463.5,0,0,1,342.0459607104821,-312.78876380337465L273.04639797816264,-249.691138311216A370,370,0,0,0,194.81137428200122,-314.56085015519335Z" fill-rule="evenodd" fill-opacity="0.2" style="fill: rgb(186, 202, 177);"/><path class="arc hidden" id="path-102" d="M342.0459607104821,-312.78876380337465A463.5,463.5,0,0,1,355.5397453818161,-297.3612944783389L283.8181354719999,-237.3757906299577A370,370,0,0,0,273.04639797816264,-249.691138311216Z" fill-rule="evenodd" fill-opacity="0.2" style="fill: white;"/><path class="arc hidden" id="path-103" d="M355.5397453818161,-297.3612944783389A463.5,463.5,0,0,1,358.5558980160172,-293.71741180585036L286.2258517064215,-234.4669738255979A370,370,0,0,0,283.8181354719999,-237.3757906299577Z" fill-rule="evenodd" fill-opacity="0.2" style="fill: rgb(223, 173, 112);"/><path class="arc hidden" id="path-104" d="M358.5558980160172,-293.71741180585036L286.2258517064215,-234.4669738255979Z" fill-rule="evenodd" fill-opacity="0.2" style="fill: white;"/><path class="arc hidden" id="path-105" d="M395.0853936609222,-242.3629132433304A463.5,463.5,0,0,1,396.7251929978194,-239.669295573803L316.69540757107484,-191.32176777196787A370,370,0,0,0,315.3863983916747,-193.47201272930369Z" fill-rule="evenodd" fill-opacity="0.2" style="fill: rgb(156, 113, 89);"/><path class="arc hidden" id="path-106" d="M396.7251929978194,-239.669295573803L316.69540757107484,-191.32176777196787Z" fill-rule="evenodd" fill-opacity="0.2" style="fill: white;"/><path class="arc hidden" id="path-107" d="M408.4332242257281,-219.12222924335205A463.5,463.5,0,0,1,459.8826156351545,-57.79472152860322L367.1123361057328,-46.13602365821616A370,370,0,0,0,326.04162451676245,-174.91957889976322Z" fill-rule="evenodd" fill-opacity="0.2" style="fill: rgb(165, 94, 56);"/><path class="arc hidden" id="path-108" d="M459.8826156351545,-57.79472152860322A463.5,463.5,0,0,1,460.4484806608841,-53.098461908829556L367.564051444503,-42.387121696368794A370,370,0,0,0,367.1123361057328,-46.13602365821616Z" fill-rule="evenodd" fill-opacity="0.2" style="fill: rgb(80, 156, 94);"/><path class="arc hidden" id="path-109" d="M460.4484806608841,-53.098461908829556A463.5,463.5,0,0,1,462.74775761057015,-26.396265387152543L369.39950445719734,-21.07145241261368A370,370,0,0,0,367.564051444503,-42.387121696368794Z" fill-rule="evenodd" fill-opacity="0.2" style="fill: white;"/><path class="arc hidden" id="path-110" d="M462.9166373665365,-23.247297676472776A463.5,463.5,0,0,1,462.99304209419296,-21.67240116749575L369.59530868360605,-17.30051441633965A370,370,0,0,0,369.534316775876,-18.55771335554461Z" fill-rule="evenodd" fill-opacity="0.2" style="fill: rgb(133, 104, 154);"/><path class="arc hidden" id="path-111" d="M462.99304209419296,-21.67240116749575L369.59530868360605,-17.30051441633965Z" fill-rule="evenodd" fill-opacity="0.2" style="fill: white;"/><path class="arc hidden" id="path-112" d="M462.99304209419296,-21.67240116749575A463.5,463.5,0,0,1,463.12977682791103,-18.521873969156708L369.7044604667251,-14.785530460815494A370,370,0,0,0,369.59530868360605,-17.30051441633965Z" fill-rule="evenodd" fill-opacity="0.2" style="fill: rgb(135, 87, 125);"/><path class="arc hidden" id="path-113" d="M463.12977682791103,-18.521873969156708L369.7044604667251,-14.785530460815494Z" fill-rule="evenodd" fill-opacity="0.2" style="fill: white;"/><path class="arc hidden" id="path-114" d="M463.4394905147799,-7.489234366824513A463.5,463.5,0,0,1,463.46228602277904,-5.912650381998031L369.96989391246655,-4.719915083795623A370,370,0,0,0,369.95169685106487,-5.978461091100474Z" fill-rule="evenodd" fill-opacity="0.2" style="fill: rgb(143, 81, 137);"/><path class="arc hidden" id="path-115" d="M463.46228602277904,-5.912650381998031A463.5,463.5,0,0,1,463.4797181340038,-4.335997973286823L369.98380951366,-3.461314455482469A370,370,0,0,0,369.96989391246655,-4.719915083795623Z" fill-rule="evenodd" fill-opacity="0.2" style="fill: white;"/><path class="arc hidden" id="path-116" d="M463.4797181340038,-4.335997973286823A463.5,463.5,0,0,1,463.49580950757183,1.9709309781575883L369.99665483883837,1.573342959910049A370,370,0,0,0,369.98380951366,-3.461314455482469Z" fill-rule="evenodd" fill-opacity="0.2" style="fill: rgb(139, 99, 151);"/><path class="arc hidden" id="path-117" d="M463.49580950757183,1.9709309781575883A463.5,463.5,0,0,1,462.506536418693,30.330739687390558L369.2069438509523,24.2122409586505A370,370,0,0,0,369.99665483883837,1.573342959910049Z" fill-rule="evenodd" fill-opacity="0.2" style="fill: rgb(69, 70, 141);"/><path class="arc hidden" id="path-118" d="M462.506536418693,30.330739687390558A463.5,463.5,0,0,1,461.92375810186996,38.192822637834844L368.7417270716114,30.488337380795883A370,370,0,0,0,369.2069438509523,24.2122409586505Z" fill-rule="evenodd" fill-opacity="0.2" style="fill: rgb(56, 85, 131);"/><path class="arc hidden" id="path-119" d="M461.92375810186996,38.192822637834844A463.5,463.5,0,0,1,461.7911599569783,39.76398603747481L368.6358774198101,31.74255627586986A370,370,0,0,0,368.7417270716114,30.488337380795883Z" fill-rule="evenodd" fill-opacity="0.2" style="fill: rgb(71, 77, 109);"/><path class="arc hidden" id="path-120" d="M461.7911599569783,39.76398603747481A463.5,463.5,0,0,1,412.4612922015795,211.4425038524734L329.2571264608078,168.78905377651597A370,370,0,0,0,368.6358774198101,31.74255627586986Z" fill-rule="evenodd" fill-opacity="0.2" style="fill: rgb(54, 58, 94);"/><path class="arc hidden" id="path-121" d="M412.4612922015795,211.4425038524734A463.5,463.5,0,0,1,379.9656494934063,265.4399276767794L303.3166997034743,211.89379339893932A370,370,0,0,0,329.2571264608078,168.78905377651597Z" fill-rule="evenodd" fill-opacity="0.2" style="fill: rgb(206, 165, 212);"/><path class="arc hidden" id="path-122" d="M379.9656494934063,265.4399276767794A463.5,463.5,0,0,1,377.2369627478587,269.3037763136096L301.1384600144719,214.9782033139926A370,370,0,0,0,303.3166997034743,211.89379339893932Z" fill-rule="evenodd" fill-opacity="0.2" style="fill: rgb(235, 159, 135);"/><path class="arc hidden" id="path-123" d="M377.2369627478587,269.3037763136096A463.5,463.5,0,0,1,375.39599291732014,271.8641177162211L299.66886165999665,217.02205729234478A370,370,0,0,0,301.1384600144719,214.9782033139926Z" fill-rule="evenodd" fill-opacity="0.2" style="fill: rgb(238, 183, 152);"/><path class="arc hidden" id="path-124" d="M375.39599291732014,271.8641177162211A463.5,463.5,0,0,1,374.46898628306826,273.1395766126382L298.9288563640459,218.04022297017508A370,370,0,0,0,299.66886165999665,217.02205729234478Z" fill-rule="evenodd" fill-opacity="0.2" style="fill: rgb(235, 188, 146);"/><path class="arc hidden" id="path-125" d="M374.46898628306826,273.1395766126382A463.5,463.5,0,0,1,321.69678995982565,333.6816227027552L256.8021840024498,266.3693644013364A370,370,0,0,0,298.9288563640459,218.04022297017508Z" fill-rule="evenodd" fill-opacity="0.2" style="fill: white;"/><path class="arc hidden" id="path-126" d="M321.6967899598259,333.68162270275485A463.5,463.5,0,0,1,319.4191036295064,335.8626002348619L254.98396621988647,268.1103820645068A370,370,0,0,0,256.80218400245,266.36936440133616Z" fill-rule="evenodd" fill-opacity="0.2" style="fill: rgb(243, 210, 150);"/><path class="arc hidden" id="path-127" d="M319.4191036295064,335.8626002348619A463.5,463.5,0,0,1,314.8194796538974,340.1778141361504L251.3122059804575,271.55510513565406A370,370,0,0,0,254.98396621988647,268.1103820645068Z" fill-rule="evenodd" fill-opacity="0.2" style="fill: rgb(238, 216, 89);"/><path class="arc hidden" id="path-128" d="M314.8194796538974,340.1778141361504A463.5,463.5,0,0,1,313.6604321995625,341.24680697756526L250.38696853039508,272.408454329448A370,370,0,0,0,251.3122059804575,271.55510513565406Z" fill-rule="evenodd" fill-opacity="0.2" style="fill: rgb(237, 226, 93);"/><path class="arc hidden" id="path-129" d="M313.6604321995625,341.24680697756526A463.5,463.5,0,0,1,311.33146128155306,343.3729331445518L248.5278115947673,274.1056855738601A370,370,0,0,0,250.38696853039508,272.408454329448Z" fill-rule="evenodd" fill-opacity="0.2" style="fill: white;"/><path class="arc hidden" id="path-130" d="M311.33146128155306,343.3729331445518A463.5,463.5,0,0,1,293.4123688130507,358.80556270425114L234.22346593490565,286.4251525362954A370,370,0,0,0,248.5278115947673,274.1056855738601Z" fill-rule="evenodd" fill-opacity="0.2" style="fill: rgb(236, 225, 96);"/><path class="arc hidden" id="path-131" d="M293.4123688130507,358.80556270425114A463.5,463.5,0,0,1,259.2657886610738,384.20502447254825L206.96513873699527,306.7008825347203A370,370,0,0,0,234.22346593490565,286.4251525362954Z" fill-rule="evenodd" fill-opacity="0.2" style="fill: rgb(248, 239, 163);"/><path class="arc hidden" id="path-132" d="M259.2657886610738,384.20502447254825A463.5,463.5,0,0,1,251.37032114565866,389.4165015085114L200.6623922845603,310.86106916537045A370,370,0,0,0,206.96513873699527,306.7008825347203Z" fill-rule="evenodd" fill-opacity="0.2" style="fill: rgb(232, 229, 150);"/><path class="arc hidden" id="path-133" d="M251.37032114565866,389.4165015085114A463.5,463.5,0,0,1,155.39432657275134,436.674768299018L124.04725098579934,348.58611493125494A370,370,0,0,0,200.6623922845603,310.86106916537045Z" fill-rule="evenodd" fill-opacity="0.2" style="fill: rgb(239, 220, 139);"/><path class="arc hidden" id="path-134" d="M155.39432657275134,436.674768299018A463.5,463.5,0,0,1,132.91931209641194,444.0323259311383L106.10603123122422,354.459461908352A370,370,0,0,0,124.04725098579934,348.58611493125494Z" fill-rule="evenodd" fill-opacity="0.2" style="fill: rgb(241, 197, 141);"/><path class="arc hidden" id="path-135" d="M132.91931209641194,444.0323259311383A463.5,463.5,0,0,1,129.89521148526475,444.92638046445205L103.69197033343681,355.17316239880745A370,370,0,0,0,106.10603123122422,354.459461908352Z" fill-rule="evenodd" fill-opacity="0.2" style="fill: rgb(225, 206, 151);"/><path class="arc hidden" id="path-136" d="M129.89521148526475,444.92638046445205A463.5,463.5,0,0,1,122.30896081817777,447.07132328475L97.63606365205129,356.8854144883657A370,370,0,0,0,103.69197033343681,355.17316239880745Z" fill-rule="evenodd" fill-opacity="0.2" style="fill: rgb(191, 201, 167);"/><path class="arc hidden" id="path-137" d="M122.30896081817777,447.07132328475A463.5,463.5,0,0,1,117.7400849341652,448.29624401693974L93.9888488147597,357.8632368635765A370,370,0,0,0,97.63606365205129,356.8854144883657Z" fill-rule="evenodd" fill-opacity="0.2" style="fill: rgb(166, 187, 165);"/><path class="arc hidden" id="path-138" d="M117.7400849341652,448.29624401693974A463.5,463.5,0,0,1,-214.59330916862856,410.83081878074506L-171.3042597462623,327.9555619177469A370,370,0,0,0,93.9888488147597,357.8632368635765Z" fill-rule="evenodd" fill-opacity="0.2" style="fill: white;"/><path class="arc hidden" id="path-139" d="M-214.59330916862822,410.8308187807453A463.5,463.5,0,0,1,-217.38347644037998,409.3613002845955L-173.53157774097215,326.78248350658106A370,370,0,0,0,-171.304259746262,327.95556191774705Z" fill-rule="evenodd" fill-opacity="0.2" style="fill: rgb(167, 184, 168);"/><path class="arc hidden" id="path-140" d="M-217.38347644037998,409.3613002845955L-173.53157774097215,326.78248350658106Z" fill-rule="evenodd" fill-opacity="0.2" style="fill: white;"/><path class="arc hidden" id="path-141" d="M-221.54981971366817,407.12151427410606A463.5,463.5,0,0,1,-222.9334944532237,406.3654845713086L-177.96201283213108,324.39100170740926A370,370,0,0,0,-176.85746126010187,324.99452056401134Z" fill-rule="evenodd" fill-opacity="0.2" style="fill: rgb(176, 151, 60);"/><path class="arc hidden" id="path-142" d="M-222.9334944532237,406.3654845713086L-177.96201283213108,324.39100170740926Z" fill-rule="evenodd" fill-opacity="0.2" style="fill: white;"/><path class="arc hidden" id="path-143" d="M-222.9334944532237,406.3654845713086A463.5,463.5,0,0,1,-227.06897544336167,404.06921485198797L-181.2632597929748,322.5579492885341A370,370,0,0,0,-177.96201283213108,324.39100170740926Z" fill-rule="evenodd" fill-opacity="0.2" style="fill: rgb(174, 131, 70);"/><path class="arc hidden" id="path-144" d="M-227.06897544336167,404.06921485198797A463.5,463.5,0,0,1,-228.4422348553544,403.2944276013383L-182.35949707978668,321.9394567691374A370,370,0,0,0,-181.2632597929748,322.5579492885341Z" fill-rule="evenodd" fill-opacity="0.2" style="fill: white;"/><path class="arc hidden" id="path-145" d="M-228.4422348553544,403.2944276013383A463.5,463.5,0,0,1,-233.90867766705816,400.1486980011909L-186.7232162606505,319.42830261152244A370,370,0,0,0,-182.35949707978668,321.9394567691374Z" fill-rule="evenodd" fill-opacity="0.2" style="fill: rgb(169, 125, 50);"/><path class="arc hidden" id="path-146" d="M-233.90867766705816,400.1486980011909L-186.7232162606505,319.42830261152244Z" fill-rule="evenodd" fill-opacity="0.2" style="fill: white;"/><path class="arc hidden" id="path-147" d="M-463.29468072198586,-13.794521184629584A463.5,463.5,0,0,1,-463.24507342834653,-15.370489399034636L-369.7964987453899,-12.269862087686764A370,370,0,0,0,-369.83609895821957,-11.01180763390064Z" fill-rule="evenodd" fill-opacity="0.2" style="fill: rgb(206, 149, 103);"/><path class="arc hidden" id="path-148" d="M-463.24507342834653,-15.370489399034636A463.5,463.5,0,0,1,-463.19010525161593,-16.946279739132002L-369.75261907895987,-13.527774549037414A370,370,0,0,0,-369.7964987453899,-12.269862087686764Z" fill-rule="evenodd" fill-opacity="0.2" style="fill: rgb(218, 161, 91);"/><path class="arc hidden" id="path-149" d="M-463.19010525161593,-16.946279739132002L-369.75261907895987,-13.527774549037414Z" fill-rule="evenodd" fill-opacity="0.2" style="fill: white;"/><path class="arc hidden" id="path-150" d="M-463.190105251616,-16.94627973913159A463.5,463.5,0,0,1,-463.12977682791103,-18.52187396915696L-369.7044604667251,-14.785530460815696A370,370,0,0,0,-369.7526190789599,-13.527774549037085Z" fill-rule="evenodd" fill-opacity="0.2" style="fill: rgb(156, 113, 89);"/><path class="arc hidden" id="path-151" d="M-463.12977682791103,-18.52187396915696L-369.7044604667251,-14.785530460815696Z" fill-rule="evenodd" fill-opacity="0.2" style="fill: white;"/><path class="arc hidden" id="path-152" d="M-463.12977682791103,-18.52187396915696A463.5,463.5,0,0,1,-462.8348755566006,-24.821925157127822L-369.4690484486348,-19.81469753643429A370,370,0,0,0,-369.7044604667251,-14.785530460815696Z" fill-rule="evenodd" fill-opacity="0.2" style="fill: rgb(153, 98, 79);"/><path class="arc hidden" id="path-153" d="M-462.8348755566006,-24.821925157127822A463.5,463.5,0,0,1,-462.74775761057015,-26.396265387153306L-369.39950445719734,-21.071452412614292A370,370,0,0,0,-369.4690484486348,-19.81469753643429Z" fill-rule="evenodd" fill-opacity="0.2" style="fill: white;"/><path class="arc hidden" id="path-154" d="M-462.65528453661375,-27.9703001475665A463.5,463.5,0,0,1,-462.55745740487197,-29.544011222920275L-369.24759275038326,-23.584216078706582A370,370,0,0,0,-369.3256856063583,-22.327963440344348Z" fill-rule="evenodd" fill-opacity="0.2" style="fill: rgb(191, 110, 93);"/><path class="arc hidden" id="path-155" d="M-462.55745740487197,-29.544011222920275L-369.24759275038326,-23.584216078706582Z" fill-rule="evenodd" fill-opacity="0.2" style="fill: white;"/><path class="arc hidden" id="path-156" d="M-462.55745740487197,-29.544011222920275A463.5,463.5,0,0,1,-462.45427734744493,-31.11738040151293L-369.1652267929981,-24.840195789772995A370,370,0,0,0,-369.24759275038326,-23.584216078706582Z" fill-rule="evenodd" fill-opacity="0.2" style="fill: rgb(155, 89, 53);"/><path class="arc hidden" id="path-157" d="M-462.45427734744493,-31.11738040151293L-369.1652267929981,-24.840195789772995Z" fill-rule="evenodd" fill-opacity="0.2" style="fill: white;"/><path class="arc hidden" id="path-158" d="M-462.3457455583793,-32.690389475599744A463.5,463.5,0,0,1,-462.2318632936543,-34.26302024160207L-368.9876794361426,-27.35127829426703A370,370,0,0,0,-369.07858868737935,-26.095888038774337Z" fill-rule="evenodd" fill-opacity="0.2" style="fill: rgb(107, 94, 148);"/><path class="arc hidden" id="path-159" d="M-462.2318632936543,-34.26302024160207A463.5,463.5,0,0,1,-462.1126318711676,-35.83525450032046L-368.8925000913312,-28.606352028303277A370,370,0,0,0,-368.9876794361426,-27.35127829426703Z" fill-rule="evenodd" fill-opacity="0.2" style="fill: rgb(130, 101, 151);"/><path class="arc hidden" id="path-160" d="M-462.1126318711676,-35.83525450032046A463.5,463.5,0,0,1,-461.85812713399685,-38.978460722260074L-368.6893355762219,-31.115491838697363A370,370,0,0,0,-368.8925000913312,-28.606352028303277Z" fill-rule="evenodd" fill-opacity="0.2" style="fill: rgb(135, 87, 125);"/><path class="arc hidden" id="path-161" d="M-461.85812713399685,-38.978460722260074A463.5,463.5,0,0,1,-461.7228567645578,-40.549396310865724L-368.5813527570364,-32.36952887814524A370,370,0,0,0,-368.6893355762219,-31.115491838697363Z" fill-rule="evenodd" fill-opacity="0.2" style="fill: rgb(138, 71, 131);"/><path class="arc hidden" id="path-162" d="M-461.7228567645578,-40.549396310865724A463.5,463.5,0,0,1,-460.79908505120915,-49.96451957107663L-367.8439298143417,-39.88537700387994A370,370,0,0,0,-368.5813527570364,-32.36952887814524Z" fill-rule="evenodd" fill-opacity="0.2" style="fill: white;"/><path class="arc hidden" id="path-163" d="M-460.79908505120915,-49.96451957107663A463.5,463.5,0,0,1,-459.8826156351543,-57.79472152860418L-367.1123361057327,-46.13602365821693A370,370,0,0,0,-367.8439298143417,-39.88537700387994Z" fill-rule="evenodd" fill-opacity="0.2" style="fill: rgb(144, 86, 145);"/><path class="arc hidden" id="path-164" d="M-459.8826156351543,-57.79472152860418A463.5,463.5,0,0,1,-459.6833470454696,-59.3588278950515L-366.9532651711408,-47.384609107160856A370,370,0,0,0,-367.1123361057327,-46.13602365821693Z" fill-rule="evenodd" fill-opacity="0.2" style="fill: white;"/><path class="arc hidden" id="path-165" d="M-451.24421823488626,-105.88156359624813A463.5,463.5,0,0,1,-435.47258110835185,-158.7321048270636L-347.6264401512194,-126.71171259118347A370,370,0,0,0,-360.2165280407938,-84.52249952667057Z" fill-rule="evenodd" fill-opacity="0.2" style="fill: rgb(68, 69, 138);"/><path class="arc hidden" id="path-166" d="M-435.47258110835185,-158.7321048270636L-347.6264401512194,-126.71171259118347Z" fill-rule="evenodd" fill-opacity="0.2" style="fill: white;"/><path class="arc hidden" id="path-167" d="M35.91194557200528,-554.8390146386906A555.9999999999999,555.9999999999999,0,0,1,37.79920373330294,-554.7136380125588L31.442682961605417,-461.4299596777131A462.5,462.5,0,0,0,29.872796451533173,-461.53425228488214Z" fill-rule="evenodd" fill-opacity="0.2" style="fill: rgb(237, 228, 135);"/><path class="arc hidden" id="path-168" d="M37.79920373330294,-554.7136380125588A555.9999999999999,555.9999999999999,0,0,1,54.76222381433706,-553.296574038651L45.55310883836492,-460.2511969296333A462.5,462.5,0,0,0,31.442682961605417,-461.4299596777131Z" fill-rule="evenodd" fill-opacity="0.2" style="fill: white;"/><path class="arc hidden" id="path-169" d="M94.11560490643078,-547.9765076288367A555.9999999999999,555.9999999999999,0,0,1,95.97918123121755,-547.6531719712623L79.83879733711893,-455.556820209908A462.5,462.5,0,0,0,78.28861019644648,-455.82578197542625Z" fill-rule="evenodd" fill-opacity="0.2" style="fill: rgb(239, 213, 128);"/><path class="arc hidden" id="path-170" d="M95.97918123121755,-547.6531719712623L79.83879733711893,-455.556820209908Z" fill-rule="evenodd" fill-opacity="0.2" style="fill: white;"/><path class="arc hidden" id="path-171" d="M95.97918123121755,-547.6531719712623A555.9999999999999,555.9999999999999,0,0,1,123.78749541105735,-542.0448837318339L102.97071335901805,-450.89165238484395A462.5,462.5,0,0,0,79.83879733711893,-455.556820209908Z" fill-rule="evenodd" fill-opacity="0.2" style="fill: rgb(238, 192, 104);"/><path class="arc hidden" id="path-172" d="M123.78749541105735,-542.0448837318339L102.97071335901805,-450.89165238484395Z" fill-rule="evenodd" fill-opacity="0.2" style="fill: white;"/><path class="arc hidden" id="path-173" d="M123.78749541105735,-542.0448837318339A555.9999999999999,555.9999999999999,0,0,1,125.63072169331033,-541.6206437782979L104.50397263157562,-450.5387549414799A462.5,462.5,0,0,0,102.97071335901805,-450.89165238484395Z" fill-rule="evenodd" fill-opacity="0.2" style="fill: rgb(241, 194, 152);"/><path class="arc hidden" id="path-174" d="M125.63072169331033,-541.6206437782979L104.50397263157562,-450.5387549414799Z" fill-rule="evenodd" fill-opacity="0.2" style="fill: white;"/><path class="arc hidden" id="path-175" d="M125.63072169331033,-541.6206437782979A555.9999999999999,555.9999999999999,0,0,1,127.47249411960189,-541.1901359438547L106.03602253653936,-450.18064365833243A462.5,462.5,0,0,0,104.50397263157562,-450.5387549414799Z" fill-rule="evenodd" fill-opacity="0.2" style="fill: rgb(229, 172, 140);"/><path class="arc hidden" id="path-176" d="M127.47249411960189,-541.1901359438547L106.03602253653936,-450.18064365833243Z" fill-rule="evenodd" fill-opacity="0.2" style="fill: white;"/><path class="arc hidden" id="path-177" d="M283.03516723570544,-478.5677528917469A555.9999999999999,555.9999999999999,0,0,1,291.1338705952311,-473.68456739927586L242.17520710484607,-394.0271806154049A462.5,462.5,0,0,0,235.4384259829385,-398.08918293603057Z" fill-rule="evenodd" fill-opacity="0.2" style="fill: rgb(213, 221, 161);"/><path class="arc hidden" id="path-178" d="M291.1338705952311,-473.68456739927586A555.9999999999999,555.9999999999999,0,0,1,292.743578650791,-472.69143969266884L243.51421785250153,-393.20106269399173A462.5,462.5,0,0,0,242.17520710484607,-394.0271806154049Z" fill-rule="evenodd" fill-opacity="0.2" style="fill: white;"/><path class="arc hidden" id="path-179" d="M292.743578650791,-472.69143969266884A555.9999999999999,555.9999999999999,0,0,1,300.74093130832875,-467.64398021978104L250.16669196061522,-389.00241160368483A462.5,462.5,0,0,0,243.51421785250153,-393.20106269399173Z" fill-rule="evenodd" fill-opacity="0.2" style="fill: rgb(201, 210, 181);"/><path class="arc hidden" id="path-180" d="M300.74093130832875,-467.64398021978104A555.9999999999999,555.9999999999999,0,0,1,302.33003474687104,-466.6182059135237L251.48856307630916,-388.1491371133179A462.5,462.5,0,0,0,250.16669196061522,-389.00241160368483Z" fill-rule="evenodd" fill-opacity="0.2" style="fill: rgb(174, 193, 173);"/><path class="arc hidden" id="path-181" d="M302.33003474687104,-466.6182059135237A555.9999999999999,555.9999999999999,0,0,1,358.5155895281998,-424.9736133752862L298.2256477640152,-353.50772695336315A462.5,462.5,0,0,0,251.48856307630916,-388.1491371133179Z" fill-rule="evenodd" fill-opacity="0.2" style="fill: rgb(153, 180, 116);"/><path class="arc hidden" id="path-182" d="M358.5155895281998,-424.9736133752862A555.9999999999999,555.9999999999999,0,0,1,410.30756020502275,-375.2115483811786L341.30799747270333,-312.11392288902005A462.5,462.5,0,0,0,298.2256477640152,-353.50772695336315Z" fill-rule="evenodd" fill-opacity="0.2" style="fill: white;"/><path class="arc hidden" id="path-183" d="M473.9319932588408,-290.7309164256563A555.9999999999999,555.9999999999999,0,0,1,475.899044890588,-287.4997375167949L395.86925946384355,-239.15220971495984A462.5,462.5,0,0,0,394.23299798959334,-241.8400159116296Z" fill-rule="evenodd" fill-opacity="0.2" style="fill: rgb(159, 116, 91);"/><path class="arc hidden" id="path-184" d="M475.899044890588,-287.4997375167949L395.86925946384355,-239.15220971495984Z" fill-rule="evenodd" fill-opacity="0.2" style="fill: white;"/><path class="arc hidden" id="path-185" d="M489.94363035491864,-262.8521239682928A555.9999999999999,555.9999999999999,0,0,1,551.6606996615876,-69.32872744315725L458.890420132166,-57.6700295727702A462.5,462.5,0,0,0,407.55203064595304,-218.64947362470406Z" fill-rule="evenodd" fill-opacity="0.2" style="fill: rgb(168, 96, 58);"/><path class="arc hidden" id="path-186" d="M551.6606996615876,-69.32872744315725L458.890420132166,-57.6700295727702Z" fill-rule="evenodd" fill-opacity="0.2" style="fill: white;"/><path class="arc hidden" id="path-187" d="M551.6606996615876,-69.32872744315725A555.9999999999999,555.9999999999999,0,0,1,551.8933519159111,-67.45167241084653L459.083948311347,-56.108630377727565A462.5,462.5,0,0,0,458.890420132166,-57.6700295727702Z" fill-rule="evenodd" fill-opacity="0.2" style="fill: rgb(152, 74, 62);"/><path class="arc hidden" id="path-188" d="M551.8933519159111,-67.45167241084653A555.9999999999999,555.9999999999999,0,0,1,552.3394935220098,-63.69524233292174L459.4550643056287,-52.98390212046099A462.5,462.5,0,0,0,459.083948311347,-56.108630377727565Z" fill-rule="evenodd" fill-opacity="0.2" style="fill: rgb(114, 101, 157);"/><path class="arc hidden" id="path-189" d="M552.3394935220098,-63.69524233292174L459.4550643056287,-52.98390212046099Z" fill-rule="evenodd" fill-opacity="0.2" style="fill: white;"/><path class="arc hidden" id="path-190" d="M555.3002165605054,-27.886726015358924A555.9999999999999,555.9999999999999,0,0,1,555.3918692650943,-25.99752977158066L461.99413585450753,-21.62564302042456A462.5,462.5,0,0,0,461.91789596984495,-23.197141694430766Z" fill-rule="evenodd" fill-opacity="0.2" style="fill: rgb(135, 107, 156);"/><path class="arc hidden" id="path-191" d="M555.3918692650943,-25.99752977158066L461.99413585450753,-21.62564302042456Z" fill-rule="evenodd" fill-opacity="0.2" style="fill: white;"/><path class="arc hidden" id="path-192" d="M555.3918692650943,-25.99752977158066A555.9999999999999,555.9999999999999,0,0,1,555.5558919445922,-22.218256584360574L462.13057558340637,-18.481913076019367A462.5,462.5,0,0,0,461.99413585450753,-21.62564302042456Z" fill-rule="evenodd" fill-opacity="0.2" style="fill: rgb(137, 88, 128);"/><path class="arc hidden" id="path-193" d="M555.5558919445922,-22.218256584360574L462.13057558340637,-18.481913076019367Z" fill-rule="evenodd" fill-opacity="0.2" style="fill: white;"/><path class="arc hidden" id="path-194" d="M555.927414727546,-8.98384963959963A555.9999999999999,555.9999999999999,0,0,1,555.9547595008955,-7.092629152946936L462.46236739058315,-5.899893854744529A462.5,462.5,0,0,0,462.43962106383105,-7.473076363875593Z" fill-rule="evenodd" fill-opacity="0.2" style="fill: rgb(146, 83, 140);"/><path class="arc hidden" id="path-195" d="M555.9547595008955,-7.092629152946936L462.46236739058315,-5.899893854744529Z" fill-rule="evenodd" fill-opacity="0.2" style="fill: white;"/><path class="arc hidden" id="path-196" d="M555.9949732172813,2.3642667181351A555.9999999999999,555.9999999999999,0,0,1,555.9837132789645,4.255651364248618L462.48645214302366,3.5399977625269536A462.5,462.5,0,0,0,462.49581854854796,1.9666786998875612Z" fill-rule="evenodd" fill-opacity="0.2" style="fill: rgb(113, 96, 132);"/><path class="arc hidden" id="path-197" d="M555.9837132789645,4.255651364248618A555.9999999999999,555.9999999999999,0,0,1,554.8082723814309,36.383799927053175L461.5086798136904,30.265301198313125A462.5,462.5,0,0,0,462.48645214302366,3.5399977625269536Z" fill-rule="evenodd" fill-opacity="0.2" style="fill: rgb(46, 96, 147);"/><path class="arc hidden" id="path-198" d="M554.8082723814309,36.383799927053175L461.5086798136904,30.265301198313125Z" fill-rule="evenodd" fill-opacity="0.2" style="fill: white;"/><path class="arc hidden" id="path-199" d="M554.8082723814309,36.383799927053175A555.9999999999999,555.9999999999999,0,0,1,554.1091898697726,45.81490698303381L460.9271588395143,38.110421725994854A462.5,462.5,0,0,0,461.5086798136904,30.265301198313125Z" fill-rule="evenodd" fill-opacity="0.2" style="fill: rgb(57, 87, 133);"/><path class="arc hidden" id="path-200" d="M554.1091898697726,45.81490698303381L460.9271588395143,38.110421725994854Z" fill-rule="evenodd" fill-opacity="0.2" style="fill: white;"/><path class="arc hidden" id="path-201" d="M554.1091898697726,45.81490698303381A555.9999999999999,555.9999999999999,0,0,1,553.9501293119307,47.69962510644227L460.79484677476256,39.67819534483733A462.5,462.5,0,0,0,460.9271588395143,38.110421725994854Z" fill-rule="evenodd" fill-opacity="0.2" style="fill: rgb(73, 78, 112);"/><path class="arc hidden" id="path-202" d="M553.9501293119307,47.69962510644227L460.79484677476256,39.67819534483733Z" fill-rule="evenodd" fill-opacity="0.2" style="fill: white;"/><path class="arc hidden" id="path-203" d="M553.9501293119307,47.69962510644227A555.9999999999999,555.9999999999999,0,0,1,508.60853686142315,224.6182455449294L423.0781444215976,186.84521324555732A462.5,462.5,0,0,0,460.79484677476256,39.67819534483733Z" fill-rule="evenodd" fill-opacity="0.2" style="fill: rgb(55, 60, 96);"/><path class="arc hidden" id="path-204" d="M508.60853686142315,224.6182455449294A555.9999999999999,555.9999999999999,0,0,1,494.77557381678133,253.63976729660234L411.57140807600973,210.98631722064496A462.5,462.5,0,0,0,423.0781444215976,186.84521324555732Z" fill-rule="evenodd" fill-opacity="0.2" style="fill: white;"/><path class="arc hidden" id="path-205" d="M494.77557381678133,253.63976729660234A555.9999999999999,555.9999999999999,0,0,1,468.4097601096087,299.5468187680495L389.63941376024115,249.17338791407A462.5,462.5,0,0,0,411.57140807600973,210.98631722064496Z" fill-rule="evenodd" fill-opacity="0.2" style="fill: rgb(209, 170, 215);"/><path class="arc hidden" id="path-206" d="M468.4097601096087,299.5468187680495A555.9999999999999,555.9999999999999,0,0,1,455.7948244192748,318.4133760265142L379.14587462934287,264.8672417486742A462.5,462.5,0,0,0,389.63941376024115,249.17338791407Z" fill-rule="evenodd" fill-opacity="0.2" style="fill: white;"/><path class="arc hidden" id="path-207" d="M455.7948244192748,318.4133760265142A555.9999999999999,555.9999999999999,0,0,1,452.52157775147657,323.0483271421077L376.42307501808983,268.7227541424907A462.5,462.5,0,0,0,379.14587462934287,264.8672417486742Z" fill-rule="evenodd" fill-opacity="0.2" style="fill: rgb(236, 164, 141);"/><path class="arc hidden" id="path-208" d="M452.52157775147657,323.0483271421077L376.42307501808983,268.7227541424907Z" fill-rule="evenodd" fill-opacity="0.2" style="fill: white;"/><path class="arc hidden" id="path-209" d="M450.3132083323192,326.11963203930725A555.9999999999999,555.9999999999999,0,0,1,449.20120037407963,327.64963235518195L373.6610704550573,272.5502787127188A462.5,462.5,0,0,0,374.58607707499584,271.277571615431Z" fill-rule="evenodd" fill-opacity="0.2" style="fill: rgb(236, 192, 153);"/><path class="arc hidden" id="path-210" d="M449.20120037407963,327.64963235518195L373.6610704550573,272.5502787127188Z" fill-rule="evenodd" fill-opacity="0.2" style="fill: white;"/><path class="arc hidden" id="path-211" d="M385.8973359604383,400.2739638030888A555.9999999999999,555.9999999999999,0,0,1,384.53344057056154,401.58440343589825L319.8681947192172,334.05177444083273A462.5,462.5,0,0,0,321.0027300030625,332.96170550167017Z" fill-rule="evenodd" fill-opacity="0.2" style="fill: rgb(246, 213, 170);"/><path class="arc hidden" id="path-212" d="M384.53344057056154,401.58440343589825A555.9999999999999,555.9999999999999,0,0,1,383.1650951844781,402.89019575098825L318.72995777485824,335.13797758063333A462.5,462.5,0,0,0,319.8681947192172,334.05177444083273Z" fill-rule="evenodd" fill-opacity="0.2" style="fill: rgb(239, 210, 131);"/><path class="arc hidden" id="path-213" d="M383.1650951844781,402.89019575098825L318.72995777485824,335.13797758063333Z" fill-rule="evenodd" fill-opacity="0.2" style="fill: white;"/><path class="arc hidden" id="path-214" d="M383.16509518447793,402.8901957509885A555.9999999999999,555.9999999999999,0,0,1,380.41511781547024,405.487778037072L316.4424316360702,337.29873622688103A462.5,462.5,0,0,0,318.72995777485806,335.13797758063345Z" fill-rule="evenodd" fill-opacity="0.2" style="fill: rgb(239, 217, 95);"/><path class="arc hidden" id="path-215" d="M380.41511781547024,405.487778037072A555.9999999999999,555.9999999999999,0,0,1,377.6475311490117,408.06659042006385L314.14025747557184,339.44388141956756A462.5,462.5,0,0,0,316.4424316360702,337.29873622688103Z" fill-rule="evenodd" fill-opacity="0.2" style="fill: white;"/><path class="arc hidden" id="path-216" d="M377.6475311490117,408.06659042006385A555.9999999999999,555.9999999999999,0,0,1,376.2571743321612,409.3489205599272L312.9837106629938,340.51056791181A462.5,462.5,0,0,0,314.14025747557184,339.44388141956756Z" fill-rule="evenodd" fill-opacity="0.2" style="fill: rgb(237, 227, 99);"/><path class="arc hidden" id="path-217" d="M376.2571743321612,409.3489205599272L312.9837106629938,340.51056791181Z" fill-rule="evenodd" fill-opacity="0.2" style="fill: white;"/><path class="arc hidden" id="path-218" d="M373.4634141802448,411.8993545380167A555.9999999999999,555.9999999999999,0,0,1,353.430385085281,429.21202557532087L293.9955991042131,357.03338458378767A462.5,462.5,0,0,0,310.6597644934591,342.6321069673251Z" fill-rule="evenodd" fill-opacity="0.2" style="fill: rgb(228, 223, 116);"/><path class="arc hidden" id="path-219" d="M353.430385085281,429.21202557532087A555.9999999999999,555.9999999999999,0,0,1,351.96823529677704,430.41185083832494L292.77933241863207,358.03144067036925A462.5,462.5,0,0,0,293.9955991042131,357.03338458378767Z" fill-rule="evenodd" fill-opacity="0.2" style="fill: rgb(245, 226, 75);"/><path class="arc hidden" id="path-220" d="M351.96823529677704,430.41185083832494L292.77933241863207,358.03144067036925Z" fill-rule="evenodd" fill-opacity="0.2" style="fill: white;"/><path class="arc hidden" id="path-221" d="M351.96823529677704,430.41185083832494A555.9999999999999,555.9999999999999,0,0,1,311.00707334532257,460.88024510622824L258.7064234212441,383.37610316840033A462.5,462.5,0,0,0,292.77933241863207,358.03144067036925Z" fill-rule="evenodd" fill-opacity="0.2" style="fill: rgb(249, 240, 171);"/><path class="arc hidden" id="path-222" d="M311.00707334532257,460.88024510622824L258.7064234212441,383.37610316840033Z" fill-rule="evenodd" fill-opacity="0.2" style="fill: white;"/><path class="arc hidden" id="path-223" d="M301.5359192167987,467.13176879985394A555.9999999999999,555.9999999999999,0,0,1,218.11189018968196,511.4325012725374L181.43300218116534,425.42721553695793A462.5,462.5,0,0,0,250.8279903557004,388.5763364567131Z" fill-rule="evenodd" fill-opacity="0.2" style="fill: rgb(238, 226, 149);"/><path class="arc hidden" id="path-224" d="M218.11189018968196,511.4325012725374A555.9999999999999,555.9999999999999,0,0,1,191.74219681747337,521.8916841257476L159.4977806260458,434.12752501467327A462.5,462.5,0,0,0,181.43300218116534,425.42721553695793Z" fill-rule="evenodd" fill-opacity="0.2" style="fill: rgb(239, 213, 128);"/><path class="arc hidden" id="path-225" d="M191.74219681747337,521.8916841257476A555.9999999999999,555.9999999999999,0,0,1,186.40613931920112,523.8212970318317L155.05906373224917,435.7326436640687A462.5,462.5,0,0,0,159.4977806260458,434.12752501467327Z" fill-rule="evenodd" fill-opacity="0.2" style="fill: white;"/><path class="arc hidden" id="path-226" d="M186.40613931920112,523.8212970318317A555.9999999999999,555.9999999999999,0,0,1,184.6231116625386,524.4523873909258L153.57587975525922,436.2576064178116A462.5,462.5,0,0,0,155.05906373224917,435.7326436640687Z" fill-rule="evenodd" fill-opacity="0.2" style="fill: rgb(241, 203, 130);"/><path class="arc hidden" id="path-227" d="M184.6231116625386,524.4523873909258A555.9999999999999,555.9999999999999,0,0,1,159.44581990421798,532.6471914082261L132.63253903903026,443.07432738544003A462.5,462.5,0,0,0,153.57587975525922,436.2576064178116Z" fill-rule="evenodd" fill-opacity="0.2" style="fill: rgb(241, 194, 152);"/><path class="arc hidden" id="path-228" d="M159.44581990421798,532.6471914082261L132.63253903903026,443.07432738544003Z" fill-rule="evenodd" fill-opacity="0.2" style="fill: white;"/><path class="arc hidden" id="path-229" d="M159.44581990421798,532.6471914082261A555.9999999999999,555.9999999999999,0,0,1,157.6329240864365,533.1865163748607L131.12450969420306,443.5229565168582A462.5,462.5,0,0,0,132.63253903903026,443.07432738544003Z" fill-rule="evenodd" fill-opacity="0.2" style="fill: rgb(232, 181, 152);"/><path class="arc hidden" id="path-230" d="M157.6329240864365,533.1865163748607A555.9999999999999,555.9999999999999,0,0,1,155.81820406862417,533.7196710641538L129.6149629167962,443.9664529985093A462.5,462.5,0,0,0,131.12450969420306,443.5229565168582Z" fill-rule="evenodd" fill-opacity="0.2" style="fill: rgb(208, 217, 150);"/><path class="arc hidden" id="path-231" d="M155.81820406862417,533.7196710641538L129.6149629167962,443.9664529985093Z" fill-rule="evenodd" fill-opacity="0.2" style="fill: white;"/><path class="arc hidden" id="path-232" d="M155.8182040686239,533.7196710641538A555.9999999999999,555.9999999999999,0,0,1,154.0016808515473,534.2466493061964L128.10391617597236,444.4048116980502A462.5,462.5,0,0,0,129.614962916796,443.9664529985093Z" fill-rule="evenodd" fill-opacity="0.2" style="fill: rgb(194, 204, 171);"/><path class="arc hidden" id="path-233" d="M154.0016808515473,534.2466493061964A555.9999999999999,555.9999999999999,0,0,1,146.71797673119056,536.2926769068413L122.04507956506411,446.10676811045715A462.5,462.5,0,0,0,128.10391617597236,444.4048116980502Z" fill-rule="evenodd" fill-opacity="0.2" style="fill: white;"/><path class="arc hidden" id="path-234" d="M146.71797673119056,536.2926769068413A555.9999999999999,555.9999999999999,0,0,1,141.23729713785508,537.7620532328338L117.48606101844963,447.32904607947063A462.5,462.5,0,0,0,122.04507956506411,446.10676811045715Z" fill-rule="evenodd" fill-opacity="0.2" style="fill: rgb(170, 190, 169);"/><path class="arc hidden" id="path-235" d="M141.23729713785508,537.7620532328338L117.48606101844963,447.32904607947063Z" fill-rule="evenodd" fill-opacity="0.2" style="fill: white;"/><path class="arc hidden" id="path-236" d="M-265.7641850286936,488.3701444151088A555.9999999999999,555.9999999999999,0,0,1,-267.4239976612564,487.46323499816083L-222.45251604016386,405.4887521342616A462.5,462.5,0,0,0,-221.07182657512735,406.24315070501416Z" fill-rule="evenodd" fill-opacity="0.2" style="fill: rgb(180, 154, 61);"/><path class="arc hidden" id="path-237" d="M-267.4239976612564,487.46323499816083L-222.45251604016386,405.4887521342616Z" fill-rule="evenodd" fill-opacity="0.2" style="fill: white;"/><path class="arc hidden" id="path-238" d="M-267.4239976612564,487.46323499816083A555.9999999999999,555.9999999999999,0,0,1,-272.3847903916053,484.7087021741214L-226.57907474121848,403.19743661066764A462.5,462.5,0,0,0,-222.45251604016386,405.4887521342616Z" fill-rule="evenodd" fill-opacity="0.2" style="fill: rgb(178, 134, 71);"/><path class="arc hidden" id="path-239" d="M-272.3847903916053,484.7087021741214L-226.57907474121848,403.19743661066764Z" fill-rule="evenodd" fill-opacity="0.2" style="fill: white;"/><path class="arc hidden" id="path-240" d="M-555.7537054615407,-16.547473093104742A555.9999999999999,555.9999999999999,0,0,1,-555.6941981146939,-18.437954920956322L-462.2456234317374,-15.337327609608455A462.5,462.5,0,0,0,-462.29512369777444,-13.7647595423758Z" fill-rule="evenodd" fill-opacity="0.2" style="fill: rgb(208, 152, 108);"/><path class="arc hidden" id="path-241" d="M-555.6941981146939,-18.437954920956322L-462.2456234317374,-15.337327609608455Z" fill-rule="evenodd" fill-opacity="0.2" style="fill: white;"/><path class="arc hidden" id="path-242" d="M-555.6941981146939,-18.437954920956322A555.9999999999999,555.9999999999999,0,0,1,-555.6282600213558,-20.328223376391353L-462.19077384869985,-16.909718186296768A462.5,462.5,0,0,0,-462.2456234317374,-15.337327609608455Z" fill-rule="evenodd" fill-opacity="0.2" style="fill: rgb(219, 164, 96);"/><path class="arc hidden" id="path-243" d="M-555.6282600213558,-20.328223376391353L-462.19077384869985,-16.909718186296768Z" fill-rule="evenodd" fill-opacity="0.2" style="fill: white;"/><path class="arc hidden" id="path-244" d="M-555.6282600213559,-20.32822337639086A555.9999999999999,555.9999999999999,0,0,1,-555.5558919445922,-22.21825658436088L-462.13057558340637,-18.48191307601962A462.5,462.5,0,0,0,-462.1907738486999,-16.909718186296356Z" fill-rule="evenodd" fill-opacity="0.2" style="fill: rgb(159, 116, 91);"/><path class="arc hidden" id="path-245" d="M-555.5558919445922,-22.21825658436088L-462.13057558340637,-18.48191307601962Z" fill-rule="evenodd" fill-opacity="0.2" style="fill: white;"/><path class="arc hidden" id="path-246" d="M-555.5558919445922,-22.21825658436088A555.9999999999999,555.9999999999999,0,0,1,-555.2021376687592,-29.77559954123639L-461.83631056079344,-24.768371920542865A462.5,462.5,0,0,0,-462.13057558340637,-18.48191307601962Z" fill-rule="evenodd" fill-opacity="0.2" style="fill: rgb(156, 100, 80);"/><path class="arc hidden" id="path-247" d="M-555.2021376687592,-29.77559954123639L-461.83631056079344,-24.768371920542865Z" fill-rule="evenodd" fill-opacity="0.2" style="fill: white;"/><path class="arc hidden" id="path-248" d="M-554.8693555924676,-35.440065242596916A555.9999999999999,555.9999999999999,0,0,1,-554.7455840456944,-37.32742934895617L-461.4565334912476,-31.050244737216246A462.5,462.5,0,0,0,-461.55949093797904,-29.48027009838323Z" fill-rule="evenodd" fill-opacity="0.2" style="fill: rgb(158, 90, 54);"/><path class="arc hidden" id="path-249" d="M-554.7455840456944,-37.32742934895617L-461.4565334912476,-31.050244737216246Z" fill-rule="evenodd" fill-opacity="0.2" style="fill: white;"/><path class="arc hidden" id="path-250" d="M-554.615392730224,-39.21436148529332A555.9999999999999,555.9999999999999,0,0,1,-554.4787831526899,-41.100839815168825L-461.23459929517827,-34.18909786783379A462.5,462.5,0,0,0,-461.3482358592242,-32.61986004846792Z" fill-rule="evenodd" fill-opacity="0.2" style="fill: rgb(109, 96, 151);"/><path class="arc hidden" id="path-251" d="M-554.4787831526899,-41.100839815168825L-461.23459929517827,-34.18909786783379Z" fill-rule="evenodd" fill-opacity="0.2" style="fill: white;"/><path class="arc hidden" id="path-252" d="M-554.4787831526899,-41.100839815168825A555.9999999999999,555.9999999999999,0,0,1,-554.3357568940003,-42.98684250739627L-461.115625114164,-35.7579400353791A462.5,462.5,0,0,0,-461.23459929517827,-34.18909786783379Z" fill-rule="evenodd" fill-opacity="0.2" style="fill: rgb(133, 104, 154);"/><path class="arc hidden" id="path-253" d="M-554.3357568940003,-42.98684250739627L-461.115625114164,-35.7579400353791Z" fill-rule="evenodd" fill-opacity="0.2" style="fill: white;"/><path class="arc hidden" id="path-254" d="M-554.3357568940003,-42.98684250739627A555.9999999999999,555.9999999999999,0,0,1,-554.0304610280523,-46.757333681934405L-460.8616694702774,-38.894364798371704A462.5,462.5,0,0,0,-461.115625114164,-35.7579400353791Z" fill-rule="evenodd" fill-opacity="0.2" style="fill: rgb(137, 88, 128);"/><path class="arc hidden" id="path-255" d="M-554.0304610280523,-46.757333681934405L-460.8616694702774,-38.894364798371704Z" fill-rule="evenodd" fill-opacity="0.2" style="fill: white;"/><path class="arc hidden" id="path-256" d="M-554.0304610280523,-46.757333681934405A555.9999999999999,555.9999999999999,0,0,1,-553.8681949538168,-48.64177853040202L-460.7266909462955,-40.46191109768155A462.5,462.5,0,0,0,-460.8616694702774,-38.894364798371704Z" fill-rule="evenodd" fill-opacity="0.2" style="fill: rgb(141, 72, 133);"/><path class="arc hidden" id="path-257" d="M-553.8681949538168,-48.64177853040202L-460.7266909462955,-40.46191109768155Z" fill-rule="evenodd" fill-opacity="0.2" style="fill: white;"/><path class="arc hidden" id="path-258" d="M-552.7600675047945,-59.9358638220466A555.9999999999999,555.9999999999999,0,0,1,-551.6606996615874,-69.3287274431584L-458.89042013216584,-57.67002957277116A462.5,462.5,0,0,0,-459.80491226792714,-49.85672125484992Z" fill-rule="evenodd" fill-opacity="0.2" style="fill: rgb(147, 88, 148);"/><path class="arc hidden" id="path-259" d="M-551.6606996615874,-69.3287274431584L-458.89042013216584,-57.67002957277116Z" fill-rule="evenodd" fill-opacity="0.2" style="fill: white;"/><path class="arc hidden" id="path-260" d="M-541.2983502450846,-127.01218847791576A555.9999999999999,555.9999999999999,0,0,1,-522.3791911461566,-190.41003297485943L-434.53305018902427,-158.38964073897932A462.5,462.5,0,0,0,-450.2706600509922,-105.65312440833821Z" fill-rule="evenodd" fill-opacity="0.2" style="fill: rgb(69, 70, 141);"/><path class="arc hidden" id="path-261" d="M-522.3791911461566,-190.41003297485943L-434.53305018902427,-158.38964073897932Z" fill-rule="evenodd" fill-opacity="0.2" style="fill: white;"/><text dy=".2em" text-anchor="start" dx="4px" transform="rotate(90)translate(0)rotate(0)" style="fill: rgb(0, 0, 0); fill-opacity: 1; pointer-events: none; font-size: 12px; visibility: visible;">Organism</text><text dy=".2em" text-anchor="start" dx="4px" transform="rotate(-85.12723335138061)translate(92.5)rotate(0)" style="fill: rgb(0, 0, 0); fill-opacity: 1; pointer-events: none; font-size: 12px; visibility: visible;">Archaea</text><text dy=".2em" text-anchor="start" dx="4px" transform="rotate(50.72550081212779)translate(92.5)rotate(0)" style="fill: rgb(0, 0, 0); fill-opacity: 1; pointer-events: none; font-size: 12px; visibility: visible;">Bacteria</text><text dy=".2em" text-anchor="end" dx="-4px" transform="rotate(187.45533297238768)translate(92.5)rotate(-180)" style="fill: rgb(0, 0, 0); fill-opacity: 1; pointer-events: none; font-size: 12px; visibility: visible;">Eukaryota</text><text dy=".2em" text-anchor="end" dx="-4px" transform="rotate(199.63724959393625)translate(92.5)rotate(-180)" style="fill: rgb(238, 238, 238); fill-opacity: 1; pointer-events: none; font-size: 12px; visibility: visible;">Viruses</text><text dy=".2em" text-anchor="end" dx="-4px" transform="rotate(238.0346507850569)translate(92.5)rotate(-180)" style="fill: rgb(0, 0, 0); fill-opacity: 1; pointer-events: none; font-size: 12px; visibility: visible;"/><text dy=".2em" text-anchor="start" dx="4px" transform="rotate(-89.61017866811045)translate(185)rotate(0)" style="fill: rgb(0, 0, 0); fill-opacity: 0; pointer-events: none; font-size: 5px; visibility: hidden;">Candidatus Woesearchaeota</text><text dy=".2em" text-anchor="start" dx="4px" transform="rotate(-88.05089334055225)translate(185)rotate(0)" style="fill: rgb(0, 0, 0); fill-opacity: 1; pointer-events: none; font-size: 8px; visibility: visible;">Euryarchaeota</text><text dy=".2em" text-anchor="start" dx="4px" transform="rotate(-84.63995668651867)translate(185)rotate(0)" style="fill: rgb(0, 0, 0); fill-opacity: 1; pointer-events: none; font-size: 7px; visibility: visible;">Thaumarchaeota</text><text dy=".2em" text-anchor="start" dx="4px" transform="rotate(-81.3264753654575)translate(185)rotate(0)" style="fill: rgb(0, 0, 0); fill-opacity: 0; pointer-events: none; font-size: 12px; visibility: hidden;"/><text dy=".2em" text-anchor="start" dx="4px" transform="rotate(-69.82674607471576)translate(185)rotate(0)" style="fill: rgb(0, 0, 0); fill-opacity: 1; pointer-events: none; font-size: 8px; visibility: visible;">Actinobacteria</text><text dy=".2em" text-anchor="start" dx="4px" transform="rotate(-45.46291283161884)translate(185)rotate(0)" style="fill: rgb(0, 0, 0); fill-opacity: 1; pointer-events: none; font-size: 9px; visibility: visible;">Bacteroidetes</text><text dy=".2em" text-anchor="start" dx="4px" transform="rotate(-31.331889550622634)translate(185)rotate(0)" style="fill: rgb(238, 238, 238); fill-opacity: 0; pointer-events: none; font-size: 9px; visibility: hidden;">Balneolaeota</text><text dy=".2em" text-anchor="start" dx="4px" transform="rotate(-31.03952355170548)translate(185)rotate(0)" style="fill: rgb(238, 238, 238); fill-opacity: 0; pointer-events: none; font-size: 5px; visibility: hidden;">Candidatus Colwellbacteria</text><text dy=".2em" text-anchor="start" dx="4px" transform="rotate(-30.25988088792638)translate(185)rotate(0)" style="fill: rgb(0, 0, 0); fill-opacity: 1; pointer-events: none; font-size: 5px; visibility: visible;">Candidatus Marinimicrobia</text><text dy=".2em" text-anchor="start" dx="4px" transform="rotate(-28.89550622631294)translate(185)rotate(0)" style="fill: rgb(0, 0, 0); fill-opacity: 0; pointer-events: none; font-size: 11px; visibility: hidden;">Chloroflexi</text><text dy=".2em" text-anchor="start" dx="4px" transform="rotate(-15.544125609095843)translate(185)rotate(0)" style="fill: rgb(0, 0, 0); fill-opacity: 1; pointer-events: none; font-size: 8px; visibility: visible;">Cyanobacteria</text><text dy=".2em" text-anchor="start" dx="4px" transform="rotate(-2.777476989713051)translate(185)rotate(0)" style="fill: rgb(238, 238, 238); fill-opacity: 0; pointer-events: none; font-size: 12px; visibility: hidden;">Firmicutes</text><text dy=".2em" text-anchor="start" dx="4px" transform="rotate(-2.4851109907958886)translate(185)rotate(0)" style="fill: rgb(238, 238, 238); fill-opacity: 0; pointer-events: none; font-size: 11px; visibility: hidden;">Nitrospinae</text><text dy=".2em" text-anchor="start" dx="4px" transform="rotate(-1.4131023280996118)translate(185)rotate(0)" style="fill: rgb(238, 238, 238); fill-opacity: 1; pointer-events: none; font-size: 8px; visibility: visible;">Planctomycetes</text><text dy=".2em" text-anchor="start" dx="4px" transform="rotate(59.009204114780715)translate(185)rotate(0)" style="fill: rgb(0, 0, 0); fill-opacity: 1; pointer-events: none; font-size: 8px; visibility: visible;">Proteobacteria</text><text dy=".2em" text-anchor="end" dx="-4px" transform="rotate(118.65186789388198)translate(185)rotate(-180)" style="fill: rgb(0, 0, 0); fill-opacity: 0; pointer-events: none; font-size: 11px; visibility: hidden;">Tenericutes</text><text dy=".2em" text-anchor="end" dx="-4px" transform="rotate(119.72387655657829)translate(185)rotate(-180)" style="fill: rgb(0, 0, 0); fill-opacity: 1; pointer-events: none; font-size: 8px; visibility: visible;">Verrucomicrobia</text><text dy=".2em" text-anchor="end" dx="-4px" transform="rotate(121.38061721710886)translate(185)rotate(-180)" style="fill: rgb(0, 0, 0); fill-opacity: 0; pointer-events: none; font-size: 12px; visibility: hidden;">bacterium</text><text dy=".2em" text-anchor="end" dx="-4px" transform="rotate(151.8841364374662)translate(185)rotate(-180)" style="fill: rgb(0, 0, 0); fill-opacity: 1; pointer-events: none; font-size: 12px; visibility: visible;"/><text dy=".2em" text-anchor="end" dx="-4px" transform="rotate(181.90037899296163)translate(185)rotate(-180)" style="fill: rgb(0, 0, 0); fill-opacity: 0; pointer-events: none; font-size: 12px; visibility: hidden;">Ciliophora</text><text dy=".2em" text-anchor="end" dx="-4px" transform="rotate(182.68002165674073)translate(185)rotate(-180)" style="fill: rgb(238, 238, 238); fill-opacity: 0; pointer-events: none; font-size: 8px; visibility: hidden;">Cryptophyceae</text><text dy=".2em" text-anchor="end" dx="-4px" transform="rotate(183.3622089875475)translate(185)rotate(-180)" style="fill: rgb(0, 0, 0); fill-opacity: 0; pointer-events: none; font-size: 7px; visibility: hidden;">Dictyochophyceae</text><text dy=".2em" text-anchor="end" dx="-4px" transform="rotate(183.55711965349224)translate(185)rotate(-180)" style="fill: rgb(0, 0, 0); fill-opacity: 0; pointer-events: none; font-size: 9px; visibility: hidden;">Dinophyceae</text><text dy=".2em" text-anchor="end" dx="-4px" transform="rotate(183.84948565240933)translate(185)rotate(-180)" style="fill: rgb(238, 238, 238); fill-opacity: 0; pointer-events: none; font-size: 12px; visibility: hidden;">Fungi</text><text dy=".2em" text-anchor="end" dx="-4px" transform="rotate(185.11640498105044)translate(185)rotate(-180)" style="fill: rgb(238, 238, 238); fill-opacity: 0; pointer-events: none; font-size: 12px; visibility: hidden;">Haptista</text><text dy=".2em" text-anchor="end" dx="-4px" transform="rotate(186.87060097455338)translate(185)rotate(-180)" style="fill: rgb(238, 238, 238); fill-opacity: 0; pointer-events: none; font-size: 10px; visibility: hidden;">Viridiplantae</text><text dy=".2em" text-anchor="end" dx="-4px" transform="rotate(190.3789929615594)translate(185)rotate(-180)" style="fill: rgb(0, 0, 0); fill-opacity: 1; pointer-events: none; font-size: 12px; visibility: visible;"/><text dy=".2em" text-anchor="end" dx="-4px" transform="rotate(196.6161342717922)translate(185)rotate(-180)" style="fill: rgb(238, 238, 238); fill-opacity: 1; pointer-events: none; font-size: 7px; visibility: visible;">Heunggongvirae</text><text dy=".2em" text-anchor="end" dx="-4px" transform="rotate(203.0481862479698)translate(185)rotate(-180)" style="fill: rgb(0, 0, 0); fill-opacity: 1; pointer-events: none; font-size: 12px; visibility: visible;"/><text dy=".2em" text-anchor="start" dx="4px" transform="rotate(-89.61017866811045)translate(277.49999999999994)rotate(0)" style="fill: rgb(0, 0, 0); fill-opacity: 1; pointer-events: none; font-size: 4px; visibility: visible;">Candidatus Woesearchaeota archaeon</text><text dy=".2em" text-anchor="start" dx="4px" transform="rotate(-89.2203573362209)translate(277.49999999999994)rotate(0)" style="fill: rgb(0, 0, 0); fill-opacity: 0; pointer-events: none; font-size: 12px; visibility: hidden;"/><text dy=".2em" text-anchor="start" dx="4px" transform="rotate(-88.4407146724418)translate(277.49999999999994)rotate(0)" style="fill: rgb(0, 0, 0); fill-opacity: 1; pointer-events: none; font-size: 5px; visibility: visible;">Euryarchaeota archaeon</text><text dy=".2em" text-anchor="start" dx="4px" transform="rotate(-87.27125067677315)translate(277.49999999999994)rotate(0)" style="fill: rgb(0, 0, 0); fill-opacity: 0; pointer-events: none; font-size: 12px; visibility: hidden;"/><text dy=".2em" text-anchor="start" dx="4px" transform="rotate(-86.58906334596644)translate(277.49999999999994)rotate(0)" style="fill: rgb(0, 0, 0); fill-opacity: 0; pointer-events: none; font-size: 5px; visibility: hidden;">Candidatus Nitrosopelagicus</text><text dy=".2em" text-anchor="start" dx="4px" transform="rotate(-85.3221440173254)translate(277.49999999999994)rotate(0)" style="fill: rgb(0, 0, 0); fill-opacity: 1; pointer-events: none; font-size: 7px; visibility: visible;">Nitrosopumilales</text><text dy=".2em" text-anchor="start" dx="4px" transform="rotate(-83.37303735787764)translate(277.49999999999994)rotate(0)" style="fill: rgb(0, 0, 0); fill-opacity: 1; pointer-events: none; font-size: 12px; visibility: visible;"/><text dy=".2em" text-anchor="start" dx="4px" transform="rotate(-80.15701136978885)translate(277.49999999999994)rotate(0)" style="fill: rgb(0, 0, 0); fill-opacity: 0; pointer-events: none; font-size: 9px; visibility: hidden;">Acidimicrobiia</text><text dy=".2em" text-anchor="start" dx="4px" transform="rotate(-73.91987005955605)translate(277.49999999999994)rotate(0)" style="fill: rgb(0, 0, 0); fill-opacity: 1; pointer-events: none; font-size: 9px; visibility: visible;">Actinomycetia</text><text dy=".2em" text-anchor="start" dx="4px" transform="rotate(-63.58960476448295)translate(277.49999999999994)rotate(0)" style="fill: rgb(0, 0, 0); fill-opacity: 1; pointer-events: none; font-size: 12px; visibility: visible;"/><text dy=".2em" text-anchor="start" dx="4px" transform="rotate(-58.81429344883595)translate(277.49999999999994)rotate(0)" style="fill: rgb(0, 0, 0); fill-opacity: 0; pointer-events: none; font-size: 11px; visibility: hidden;">Cytophagia</text><text dy=".2em" text-anchor="start" dx="4px" transform="rotate(-49.06876015159719)translate(277.49999999999994)rotate(0)" style="fill: rgb(0, 0, 0); fill-opacity: 1; pointer-events: none; font-size: 9px; visibility: visible;">Flavobacteriia</text><text dy=".2em" text-anchor="start" dx="4px" transform="rotate(-39.615592853275594)translate(277.49999999999994)rotate(0)" style="fill: rgb(0, 0, 0); fill-opacity: 0; pointer-events: none; font-size: 11px; visibility: hidden;">Saprospiria</text><text dy=".2em" text-anchor="start" dx="4px" transform="rotate(-35.42501353546292)translate(277.49999999999994)rotate(0)" style="fill: rgb(0, 0, 0); fill-opacity: 1; pointer-events: none; font-size: 12px; visibility: visible;"/><text dy=".2em" text-anchor="start" dx="4px" transform="rotate(-31.331889550622634)translate(277.49999999999994)rotate(0)" style="fill: rgb(238, 238, 238); fill-opacity: 0; pointer-events: none; font-size: 12px; visibility: hidden;">Balneolia</text><text dy=".2em" text-anchor="start" dx="4px" transform="rotate(-31.136978884677852)translate(277.49999999999994)rotate(0)" style="fill: rgb(0, 0, 0); fill-opacity: 0; pointer-events: none; font-size: 12px; visibility: hidden;"/><text dy=".2em" text-anchor="start" dx="4px" transform="rotate(-29.382782891174884)translate(277.49999999999994)rotate(0)" style="fill: rgb(0, 0, 0); fill-opacity: 0; pointer-events: none; font-size: 8px; visibility: hidden;">Dehalococcoidia</text><text dy=".2em" text-anchor="start" dx="4px" transform="rotate(-28.70059556036817)translate(277.49999999999994)rotate(0)" style="fill: rgb(0, 0, 0); fill-opacity: 0; pointer-events: none; font-size: 12px; visibility: hidden;"/><text dy=".2em" text-anchor="start" dx="4px" transform="rotate(-15.739036275040604)translate(277.49999999999994)rotate(0)" style="fill: rgb(0, 0, 0); fill-opacity: 1; pointer-events: none; font-size: 7px; visibility: visible;">Synechococcales</text><text dy=".2em" text-anchor="start" dx="4px" transform="rotate(-3.0698429886302137)translate(277.49999999999994)rotate(0)" style="fill: rgb(0, 0, 0); fill-opacity: 0; pointer-events: none; font-size: 12px; visibility: hidden;"/><text dy=".2em" text-anchor="start" dx="4px" transform="rotate(-2.777476989713051)translate(277.49999999999994)rotate(0)" style="fill: rgb(238, 238, 238); fill-opacity: 0; pointer-events: none; font-size: 12px; visibility: hidden;">Clostridia</text><text dy=".2em" text-anchor="start" dx="4px" transform="rotate(-2.6800216567406636)translate(277.49999999999994)rotate(0)" style="fill: rgb(0, 0, 0); fill-opacity: 0; pointer-events: none; font-size: 12px; visibility: hidden;"/><text dy=".2em" text-anchor="start" dx="4px" transform="rotate(-2.4851109907958886)translate(277.49999999999994)rotate(0)" style="fill: rgb(238, 238, 238); fill-opacity: 0; pointer-events: none; font-size: 11px; visibility: hidden;">Nitrospinia</text><text dy=".2em" text-anchor="start" dx="4px" transform="rotate(-2.2902003248511136)translate(277.49999999999994)rotate(0)" style="fill: rgb(0, 0, 0); fill-opacity: 0; pointer-events: none; font-size: 12px; visibility: hidden;"/><text dy=".2em" text-anchor="start" dx="4px" transform="rotate(-2.192744991878712)translate(277.49999999999994)rotate(0)" style="fill: rgb(238, 238, 238); fill-opacity: 0; pointer-events: none; font-size: 6px; visibility: hidden;">Candidatus Brocadiae</text><text dy=".2em" text-anchor="start" dx="4px" transform="rotate(-1.5105576610720135)translate(277.49999999999994)rotate(0)" style="fill: rgb(238, 238, 238); fill-opacity: 0; pointer-events: none; font-size: 8px; visibility: hidden;">Phycisphaerae</text><text dy=".2em" text-anchor="start" dx="4px" transform="rotate(-0.7309149972929134)translate(277.49999999999994)rotate(0)" style="fill: rgb(238, 238, 238); fill-opacity: 0; pointer-events: none; font-size: 8px; visibility: hidden;">Planctomycetia</text><text dy=".2em" text-anchor="start" dx="4px" transform="rotate(-0.5360043313481384)translate(277.49999999999994)rotate(0)" style="fill: rgb(0, 0, 0); fill-opacity: 0; pointer-events: none; font-size: 12px; visibility: hidden;"/><text dy=".2em" text-anchor="start" dx="4px" transform="rotate(22.75582024905252)translate(277.49999999999994)rotate(0)" style="fill: rgb(238, 238, 238); fill-opacity: 1; pointer-events: none; font-size: 6px; visibility: visible;">Alphaproteobacteria</text><text dy=".2em" text-anchor="start" dx="4px" transform="rotate(46.924742826204664)translate(277.49999999999994)rotate(0)" style="fill: rgb(0, 0, 0); fill-opacity: 1; pointer-events: none; font-size: 6px; visibility: visible;">Betaproteobacteria</text><text dy=".2em" text-anchor="start" dx="4px" transform="rotate(82.69085002707098)translate(277.49999999999994)rotate(0)" style="fill: rgb(0, 0, 0); fill-opacity: 1; pointer-events: none; font-size: 6px; visibility: visible;">Gammaproteobacteria</text><text dy=".2em" text-anchor="end" dx="-4px" transform="rotate(117.77476989713054)translate(277.49999999999994)rotate(-180)" style="fill: rgb(0, 0, 0); fill-opacity: 0; pointer-events: none; font-size: 5px; visibility: hidden;">delta/epsilon subdivisions</text><text dy=".2em" text-anchor="end" dx="-4px" transform="rotate(118.26204656199249)translate(277.49999999999994)rotate(-180)" style="fill: rgb(0, 0, 0); fill-opacity: 0; pointer-events: none; font-size: 12px; visibility: hidden;"/><text dy=".2em" text-anchor="end" dx="-4px" transform="rotate(118.65186789388198)translate(277.49999999999994)rotate(-180)" style="fill: rgb(0, 0, 0); fill-opacity: 0; pointer-events: none; font-size: 12px; visibility: hidden;">Mollicutes</text><text dy=".2em" text-anchor="end" dx="-4px" transform="rotate(118.74932322685436)translate(277.49999999999994)rotate(-180)" style="fill: rgb(0, 0, 0); fill-opacity: 0; pointer-events: none; font-size: 12px; visibility: hidden;"/><text dy=".2em" text-anchor="end" dx="-4px" transform="rotate(119.13914455874394)translate(277.49999999999994)rotate(-180)" style="fill: rgb(0, 0, 0); fill-opacity: 0; pointer-events: none; font-size: 12px; visibility: hidden;">Opitutae</text><text dy=".2em" text-anchor="end" dx="-4px" transform="rotate(119.91878722252304)translate(277.49999999999994)rotate(-180)" style="fill: rgb(0, 0, 0); fill-opacity: 0; pointer-events: none; font-size: 7px; visibility: hidden;">Verrucomicrobiae</text><text dy=".2em" text-anchor="end" dx="-4px" transform="rotate(120.50351922035733)translate(277.49999999999994)rotate(-180)" style="fill: rgb(0, 0, 0); fill-opacity: 0; pointer-events: none; font-size: 12px; visibility: hidden;"/><text dy=".2em" text-anchor="end" dx="-4px" transform="rotate(181.90037899296163)translate(277.49999999999994)rotate(-180)" style="fill: rgb(0, 0, 0); fill-opacity: 0; pointer-events: none; font-size: 6px; visibility: hidden;">Intramacronucleata</text><text dy=".2em" text-anchor="end" dx="-4px" transform="rotate(182.09528965890638)translate(277.49999999999994)rotate(-180)" style="fill: rgb(0, 0, 0); fill-opacity: 0; pointer-events: none; font-size: 12px; visibility: hidden;"/><text dy=".2em" text-anchor="end" dx="-4px" transform="rotate(182.19274499187878)translate(277.49999999999994)rotate(-180)" style="fill: rgb(238, 238, 238); fill-opacity: 0; pointer-events: none; font-size: 7px; visibility: hidden;">Cryptomonadales</text><text dy=".2em" text-anchor="end" dx="-4px" transform="rotate(182.77747698971314)translate(277.49999999999994)rotate(-180)" style="fill: rgb(238, 238, 238); fill-opacity: 0; pointer-events: none; font-size: 7px; visibility: hidden;">Pyrenomonadales</text><text dy=".2em" text-anchor="end" dx="-4px" transform="rotate(183.2647536545751)translate(277.49999999999994)rotate(-180)" style="fill: rgb(0, 0, 0); fill-opacity: 0; pointer-events: none; font-size: 12px; visibility: hidden;"/><text dy=".2em" text-anchor="end" dx="-4px" transform="rotate(183.55711965349224)translate(277.49999999999994)rotate(-180)" style="fill: rgb(0, 0, 0); fill-opacity: 0; pointer-events: none; font-size: 12px; visibility: hidden;">Suessiales</text><text dy=".2em" text-anchor="end" dx="-4px" transform="rotate(183.65457498646458)translate(277.49999999999994)rotate(-180)" style="fill: rgb(0, 0, 0); fill-opacity: 0; pointer-events: none; font-size: 12px; visibility: hidden;"/><text dy=".2em" text-anchor="end" dx="-4px" transform="rotate(183.75203031943698)translate(277.49999999999994)rotate(-180)" style="fill: rgb(238, 238, 238); fill-opacity: 0; pointer-events: none; font-size: 12px; visibility: hidden;">Dikarya</text><text dy=".2em" text-anchor="end" dx="-4px" transform="rotate(183.9469409853818)translate(277.49999999999994)rotate(-180)" style="fill: rgb(238, 238, 238); fill-opacity: 0; pointer-events: none; font-size: 8px; visibility: hidden;">Zoopagomycota</text><text dy=".2em" text-anchor="end" dx="-4px" transform="rotate(184.0443963183542)translate(277.49999999999994)rotate(-180)" style="fill: rgb(0, 0, 0); fill-opacity: 0; pointer-events: none; font-size: 12px; visibility: hidden;"/><text dy=".2em" text-anchor="end" dx="-4px" transform="rotate(185.11640498105044)translate(277.49999999999994)rotate(-180)" style="fill: rgb(238, 238, 238); fill-opacity: 1; pointer-events: none; font-size: 10px; visibility: visible;">Haptophyta</text><text dy=".2em" text-anchor="end" dx="-4px" transform="rotate(186.18841364374669)translate(277.49999999999994)rotate(-180)" style="fill: rgb(0, 0, 0); fill-opacity: 0; pointer-events: none; font-size: 12px; visibility: hidden;"/><text dy=".2em" text-anchor="end" dx="-4px" transform="rotate(186.77314564158104)translate(277.49999999999994)rotate(-180)" style="fill: rgb(238, 238, 238); fill-opacity: 0; pointer-events: none; font-size: 10px; visibility: hidden;">Chlorophyta</text><text dy=".2em" text-anchor="end" dx="-4px" transform="rotate(187.45533297238774)translate(277.49999999999994)rotate(-180)" style="fill: rgb(0, 0, 0); fill-opacity: 0; pointer-events: none; font-size: 12px; visibility: hidden;"/><text dy=".2em" text-anchor="end" dx="-4px" transform="rotate(196.6161342717922)translate(277.49999999999994)rotate(-180)" style="fill: rgb(238, 238, 238); fill-opacity: 1; pointer-events: none; font-size: 11px; visibility: visible;">Uroviricota</text><text dy=".2em" text-anchor="end" dx="-4px" transform="rotate(200.02707092582574)translate(277.49999999999994)rotate(-180)" style="fill: rgb(0, 0, 0); fill-opacity: 0; pointer-events: none; font-size: 12px; visibility: hidden;"/></g></svg>